<?xml version="1.0" encoding="UTF-8"?>
<!DOCTYPE svg PUBLIC "-//W3C//DTD SVG 1.1//EN" "http://www.w3.org/Graphics/SVG/1.1/DTD/svg11.dtd">
<!-- Creator: CorelDRAW -->
<svg xmlns="http://www.w3.org/2000/svg" xml:space="preserve" width="448.73mm" height="210.959mm" version="1.1" style="shape-rendering:geometricPrecision; text-rendering:geometricPrecision; image-rendering:optimizeQuality; fill-rule:evenodd; clip-rule:evenodd"
viewBox="0 0 95286.56 44796.64"
 xmlns:xlink="http://www.w3.org/1999/xlink"
 xmlns:xodm="http://www.corel.com/coreldraw/odm/2003">
 <defs>
  <style type="text/css">
   <![CDATA[
    .fil0 {fill:#0A2E36}
    .fil1 {fill:#233D4D}
   ]]>
  </style>
 </defs>
 <g id="Camada_x0020_1">
  <metadata id="CorelCorpID_0Corel-Layer"/>
  <rect class="fil0" width="95286.56" height="44796.64" rx="7970.65" ry="327.06"/>
  <path class="fil1" d="M44036.78 44796.64l413.8 0c-69.2,-159.96 -1112.44,-1413.3 -1583.24,-2365.19 -928.81,-1877.91 -992.7,-4778.68 -818.49,-6873.34 121.76,-1464.03 219.38,-1976.78 546.71,-3376.41 284.59,-1216.88 500.16,-2099.46 507.55,-3440.94 7.11,-1290.71 78.02,-2292.65 700.07,-3216.4 1103.97,-1639.34 3332.73,-1593.69 5154.18,-2685.28 507.11,-303.93 943.67,-694.33 1365.52,-1107.2 273.5,-267.66 979.03,-975.63 1208.38,-1264.27 49.22,-61.94 67.93,-71.6 119.45,-128.83l766.42 -932.65c800.25,-974.19 2937.04,-4166.55 3558.75,-5256.12 841.49,-1474.69 2197.71,-4190.54 1605.68,-5959.52 -342.49,-1023.36 -924.96,-1711.14 -1436.23,-2483.29 -421.36,-636.43 -1185.66,-1872.69 -716.1,-2903.64 -258.77,-322.58 -1859.42,-962.53 -2401.75,-1196.94 -2063.53,-891.94 -968.3,-1205.5 -453.32,-1606.62l-638.02 0c-208.46,219.93 -727.57,569.07 -299.13,1124.12 208.29,269.83 634.62,494.9 1036.59,686.96 569.03,271.93 1219.74,503.94 1790.58,783.54 206.4,101.1 376.66,207.99 564.42,309.79 -16.88,571.26 -202.32,799.27 125.45,1669.43 180.67,479.56 432.53,886.02 680.96,1267.84 470.96,723.85 1150.18,1531.34 1435.06,2484.91 712.72,2385.68 -1990.44,6361.65 -3243.84,8245 -567.73,853.04 -1758.62,2567.3 -2487.69,3380.23l-224.28 248.68c-554.86,622.18 -795.71,902.39 -1438.23,1484.75 -53.91,48.86 -68.44,82.77 -119.47,128.6 -1419.14,1273.96 -2256.97,1240.34 -4129.86,1987.51 -1027.59,409.94 -1733.11,915 -2211.17,1711.2 -592.55,986.93 -632.29,1968.18 -646.22,3253.18 -13.99,1293.11 -223.96,2220.34 -515.01,3400.02 -550.3,2230.5 -757.1,4758.36 -523.05,7135.5 184.98,1878.64 540.47,2929.54 1479.59,4359.38 128.62,195.78 275.16,385.81 409.3,564.57l416.63 571.43zm-44036.78 -27141.58c127.51,152.02 610.92,1203.63 711.72,1458.7 74.32,188.1 240.06,628.53 149.32,849.73 -108.98,265.73 -592.45,179.41 -861.05,159.58l0 342.39c230.29,27.14 464.85,48.03 689.87,1.04 1145.08,-239.21 97.32,-1996.11 -186.97,-2564.69 -85.94,-171.87 -162.64,-325.85 -249.76,-499.31 -85.02,-169.26 -148.9,-380.48 -253.14,-524.65l0 777.21zm0 -2049.21l0 486.21c1611.82,-1353.56 667.68,-4242 1883.63,-5918.8 113.75,-156.86 222.43,-294.67 362.67,-410.06 901.01,-741.43 1128.71,-959.41 2365.87,-1579.78 1400.28,-702.15 3061.45,-1164.66 4641.1,-1625.75 1638.22,-478.18 3351.2,-920.48 5134.39,-1134.59 2466.54,-296.18 3023.57,-193.66 5234,700.58 2063,834.59 3516.87,1009.18 5262.18,-542.38l383.29 -390.02c62.39,-71.41 105.75,-129.26 176.42,-197.91l278.05 -322.75c36.74,-44.55 58.8,-59.69 95.26,-102.9l186.04 -213.71c330.24,-390.53 598.88,-649.32 975.2,-973.38 983.4,-846.82 2138.25,-1529.11 3086,-2407.51 86.11,-79.82 118.57,-119.74 205.13,-193.47l792.42 -779.63 -467.25 0 -1207.19 1120.2c-134.97,108.62 -271.27,227.87 -416.54,332.9 -390.51,282.38 -1399.37,1008.2 -1763.9,1307.51 -149.58,122.82 -285.08,220.27 -425.31,348.29 -257.45,235.05 -561.32,473.6 -788.62,761.2l-1086.18 1210.06c-75.7,61.37 -139.47,125.01 -200.14,199.65 -94.6,116.41 -476.1,410.85 -616.61,505.92 -2493.25,1686.99 -4583.51,-564.38 -7135.52,-816.01 -830.87,-81.92 -2042.74,41.96 -2869.3,153.61 -1780.02,240.48 -3376.26,676.71 -5005.36,1132.77 -2063.08,577.56 -4780.3,1388.77 -6463.74,2752.08l-634.05 539.98c-39.94,42.13 -51.26,67.89 -92.65,106.83 -929.74,875.1 -989.9,2403.49 -1131.79,3646.74 -51.54,451.66 -109.25,883.66 -231.93,1307.36 -95.39,329.52 -334.72,842.02 -525.54,996.76zm0 -6263.16l0 589.71 342.13 -476.7c352.16,-447.44 851.36,-855.04 1324.92,-1170.84 218.85,-145.95 456.61,-297.22 699.2,-423.99 998.03,-521.55 2066.95,-969.2 3015.16,-1454.01 981.41,-501.8 1973.17,-979.66 3001.99,-1443.83 1708.06,-770.65 1896.69,-584.68 3727.95,-741.5 732.75,-62.75 1159.73,-236.7 1805.59,-416.77 2674.17,-745.55 3636.13,-242.8 6234.22,-363.07 652.05,-30.2 1342.88,-97.91 1914.31,-302.83 876.36,-314.23 1262.57,-819.02 1818.52,-1503.27 71.2,-87.64 169.2,-220.95 247.6,-302.04 191.98,-198.61 352.26,-411.55 551.83,-570.73 56.99,-45.48 101.25,-78.97 149.28,-126.58 156.78,-155.44 692,-539.32 786.87,-636.23l-549.98 0c-86.96,96.49 -200.52,168.18 -297.46,251.48 -366.72,315.17 -472.26,442.02 -824.84,797.34l-484.3 589.94c-171.49,209.57 -318.16,402.12 -497.1,576.71 -78.23,76.32 -207.27,174.95 -303.64,245.47 -113.78,83.26 -208.27,141.42 -339.78,209.48 -1607.81,832.27 -4908.47,215.47 -6964.1,474.28 -1411.11,177.67 -2042.1,656.92 -3522.03,768.93 -1667.14,126.2 -2035.33,25.69 -3582.04,744.45 -1000.9,465.1 -1942.59,912.67 -2912.13,1406.48 -1164.24,593 -3616.42,1572.69 -4556.25,2462.38 -106.64,100.95 -182.34,152.51 -279.15,245.03 -199.16,190.35 -351.22,423.53 -506.77,570.7zm0 -1606.85l0 379.57c329.73,-133.08 1976.19,-1260.77 2276.72,-1468.3 366.94,-253.33 743.51,-513.05 1121.83,-751.65 1442.9,-910.01 2181.25,-1294.34 3851.17,-1816.21 3054.15,-954.44 6056.76,-1619.36 9280.7,-2027.6 947.96,-120.04 2390.65,-238.51 3207.55,-566.12 659.89,-264.65 1310.12,-862.24 1998.14,-1297.59l232.48 -142.53c4.84,-3.25 11.08,-7.41 15.78,-10.64 38.18,-26.29 25.31,-16.67 47.76,-34.78l-620.99 0c-4.84,4.59 -12.42,4.67 -14.89,13.38 -2.44,8.6 -11.47,10.36 -14.86,13.08l-29.94 23.97c-32.62,24.25 -40.9,27.27 -75.51,50.28 -760.03,505.7 -1201.29,1007.25 -2157.64,1237.96 -628.57,151.64 -2459.32,371.37 -3187.27,458.37 -2873.95,343.51 -6162.4,1152.96 -8921.66,2015.34 -977.9,305.63 -1732.35,631.39 -2567.15,1077.87 -648.34,346.76 -1658.28,990.77 -2236.4,1410.26 -301.53,218.78 -1951.26,1326.7 -2205.82,1435.3zm0 -2824.58l0 350.67c640.42,-178.71 1443.15,-723.93 1897.7,-1042.07 705.27,-493.64 918.44,-722.21 1747.64,-1197.81 1216.71,-697.86 2903.47,-1393.85 4337.45,-1577.76 910.23,-116.75 1819.39,-126.67 2729.7,-220.08 887.97,-91.12 1667.9,-280.7 2537,-412.34 855.5,-129.6 1755.33,-206.25 2613.65,-323.6 473,-64.68 2183.14,-313.57 2486.69,-488.27l-1459.59 0c-172.28,77.27 -2051.44,285.69 -2381.98,326.44 -800.27,98.68 -1587.44,191.77 -2370.13,347.59 -1837.06,365.73 -3348.55,256.81 -4900.51,570.05 -1411.15,284.82 -3538.6,1246.41 -4694.72,2097.14 -269.02,197.95 -522.5,388.26 -794.41,579.62 -338.57,238.27 -1271.81,897.8 -1748.49,990.41zm249.7 -2354.61c-12.25,123.27 -71.52,244.92 -74.92,384.58 175.02,-50.26 372.48,-145.29 554.67,-213.13 193.21,-71.96 377.23,-133.74 574.93,-199.97 404.56,-135.52 822.29,-203.3 1245.46,-304.42 2149.63,-513.77 3914.07,-1348.38 5849.8,-1887.68 175.84,-48.97 1175.83,-296.59 1242.85,-336.02l-1308.78 0c-111.23,67.93 -823.52,265.5 -1012.56,328.42l-2946.51 1023.75c-666.75,222.26 -1375.44,445.38 -2080.2,592.64 -372.05,77.76 -716.95,155.52 -1063.41,259.66 -352.54,105.96 -642.16,234.62 -981.34,352.18zm95036.86 25014.95l0 -362.35c-130.72,-35.4 -355.04,-150.41 -505.49,-210.97 -1389.52,-559.37 -2294.56,-780.93 -1912.99,-2823.05 189.31,-1013.17 313.7,-1447.12 121.12,-2522.71 -151.21,-844.63 -636.11,-2458.07 -1245.88,-3002.87 -134.25,-119.93 -239.63,-213.49 -401.06,-322.94 -1595.09,-1081.34 -456.78,-1575.74 -1720.95,-3222.33 -263.65,-343.41 -400,-458.54 -682.57,-741.11 -416.24,-416.26 -841.85,-804.99 -1233.69,-1238.41 -55.34,-61.2 -118.45,-115.73 -169.54,-179.22 -210.52,-261.65 -226.94,-226.77 -354.56,-369.74 -351.22,-393.44 -752.26,-784.92 -1117.84,-1204.28 -31.09,-35.65 -49.56,-62.09 -79.06,-96.34 -1161.65,-1349.45 -1009.54,-2285.41 -1235.52,-4054.69 -52.83,-413.5 -146.9,-817.66 -184.04,-1231.55 -156.12,-1739.55 566.92,-4943.34 -1501.4,-5577.53 -1490.63,-457.06 -2374.62,745.78 -3560.68,214.77 -167.35,-74.92 -325.21,-171.26 -433.46,-265.24 -83.69,-72.67 -294.91,-271.63 -337.16,-361.03l-407.9 0c131.4,246.03 490.44,604.85 710.68,746.7 1415.89,911.86 2335.97,-232.82 3517.89,-100.38 2367.18,265.24 1479.21,3581.58 1699.01,5521.2 47.46,418.64 142.68,825.24 191.07,1257.27 174.97,1561.96 139.17,2675.04 1149.8,3892.22l1022.88 1124.8c126.52,125.67 222.52,247.85 348.46,375.73 347.06,352.37 691.57,769.72 1054.3,1093.46l1088.34 1082.57c112.74,133.46 217.51,262.65 322.36,403.08 937.15,1255.08 279.98,2096.89 1359.15,2936.06 737.61,573.57 854.38,467.44 1331.16,1538.63 289.13,649.55 515.64,1496.94 613.28,2278.59 125.58,1005.46 -190.54,1610.4 -274.18,2540.1 -142.4,1582.67 740.92,2032.74 1820.73,2462.4 349.69,139.13 671.46,283.21 1007.74,419.17zm0 9385.92l0 -424.61c-89.29,-35.72 -228.51,-126.22 -344.32,-182.51 -123.9,-60.24 -235.58,-96.64 -364.13,-134.25 -1349.15,-394.63 -2556.92,292.83 -4565.55,-80.18 -511.67,-95.03 -998.1,-247.79 -1138.5,-856.35 -139.7,-605.53 232.56,-844.87 -166.59,-1756.15 -459.73,-1049.53 -1219.64,-1371.02 -2090.88,-1906.26 -212.05,-130.28 -409.62,-263.18 -593.13,-405.9 -103.12,-80.2 -194.13,-144.4 -277.79,-221.5 -873.3,-804.84 -1457.11,-1629.57 -1084.1,-3212.43 260.91,-1107.11 735.32,-2123.22 604.53,-3380.48 -116.24,-1117.48 -753.73,-1988.91 -1214.73,-2773.25 -591.03,-1005.57 -776.19,-1750.61 -887.48,-3096.79 -52.13,-630.61 -84.77,-1232.42 -191.62,-1843.85 -208.82,-1194.86 -1146.25,-3205.89 -1630.53,-4359.98 -375.85,-895.74 -782.71,-1990.44 -1013.75,-3005.8 -343.07,-1507.77 -163.25,-2496.61 -433.15,-3563.4 -68.35,-270.13 -174.44,-528.19 -317.2,-707.29 -326.87,-410.06 -856.93,-651.06 -1402.91,-410.25 -660.25,291.19 -1107.31,1087.62 -1965.89,1041.39 -942.27,-50.75 -1935.1,-883.3 -2507.42,-1497.43 -48.75,-52.32 -84.62,-69.65 -128.47,-119.7 -43.57,-49.71 -62.11,-86.21 -112.2,-138.77 -92.48,-97 -147.54,-171.68 -225.64,-273.25 -150.41,-195.61 -283.02,-369.19 -419.3,-579.79 -247.77,-382.93 -507.26,-826.82 -660.99,-1336.41 -208.63,-691.57 -46.46,-1083.74 88.61,-1732.31l-351.16 0c-120.17,660.12 -286.67,1055.32 -83.79,1752.1 304.04,1044.28 800.55,1621.84 1398.94,2372.79 54.76,68.74 54.79,71.88 132.63,142.44 89.1,80.78 150.92,171.9 239.32,260.32l818.41 705.44c799.78,586.06 1879.53,1150.99 2925.1,400.57 640.38,-459.63 1228.32,-1212.97 1927.35,-459.29 478.31,515.69 487.34,1847.89 512.8,2542.2 59.33,1618.81 700.75,3323.89 1288.42,4769.4 392.06,964.35 802.25,1868.21 1184.28,2860.93 1024.24,2661.39 17.88,3846.29 1581.48,6534.28 487.66,838.35 1125.99,1667.63 1128.92,2914.34 4.82,2051.59 -1613.05,3737.2 -106.32,5701.61 283.87,370.08 235.83,270.42 489.18,535.35 546.56,571.53 1154.79,850.6 1776.5,1245.84l595.42 427.52c279.39,218.65 667.58,714.85 805.18,1216.28 183.36,668.21 -213.07,1112.61 193.89,1803.72 259.87,441.28 656.28,615.55 1294.15,730.16 2276.77,409.02 3529.1,-501.73 4989.65,279.11 143.04,76.47 199.5,156.86 302.79,222.39zm0 -2720.32l0 -355.51c-914.62,100.46 -2362.89,566.67 -3141.06,72.24 -132.78,-84.37 -391.74,-309.37 -445.72,-476.91 -71.67,-222.45 32.11,-563.19 9.85,-840.36 -31.7,-394.63 -267.98,-1070.14 -428.88,-1386.56 -236.32,-464.74 -477.25,-657.13 -952.48,-897.91 -404.42,-204.94 -831.38,-379.32 -1245.46,-575.91 -1535.1,-728.86 -1107.69,-959.62 -1178.7,-2458.85 -28.52,-602.3 -85.64,-1154.83 -85.17,-1772.84 0.42,-592.55 37.73,-1183.2 54.42,-1774.27 16.2,-573.1 44.95,-1187.23 -59.07,-1737.04 -100.99,-533.84 -284.18,-898.08 -478.18,-1346.3 -186.4,-430.66 -415.65,-818.56 -562.97,-1285.61 -193.98,-614.92 -157.46,-1244.16 -610.31,-1688.39 -257.34,-252.42 -792.42,-662.27 -947.03,-874.76 -953.14,-1310.01 -1158.69,-3099.87 -2021.52,-4845.4 -404.71,-818.77 -755.3,-1743.88 -1060.04,-2609.92 -162.19,-460.9 -329.18,-871.47 -451.6,-1372.93 -239.42,-980.7 -375.15,-1998.4 -744.45,-2899.43 -205.06,-500.33 -390.17,-844.99 -687.64,-1161.16 -235.6,-250.44 -774.26,-588.9 -1317.85,-451.92 -888.1,223.77 -1386.8,1405.25 -2467.73,1089.72 -561.93,-164.04 -410.53,-715.42 -600.14,-1245.63 -597.78,-1671.77 -2344.97,-1199.17 -2027.68,-3341.52l-331.07 0c-76.57,623.49 -67.06,1033.11 236.79,1516.58 491.63,782.31 1466.98,946.83 1802.4,1893.16 204.98,578.26 57.97,984.34 519.21,1354.99 368.72,296.29 1043.69,271.68 1445.34,56.91 429.22,-229.5 698.28,-507.49 1074.67,-772.58 1028.06,-724.06 1725.09,364.01 2041.87,1171.46 378.87,965.69 492.69,1922.34 754.19,2939.71 167.58,651.99 711.3,2099.12 971.45,2750.66 177.01,443.38 360.86,854.51 571.26,1276.14 790.95,1584.96 1147.25,3734.85 2053.16,4890.44 65.72,83.81 149.58,147.52 233.14,240.29 61.05,67.82 148.05,125.43 241.12,208.5 81.61,72.86 174.27,147.45 260.93,214.98 105.05,81.84 344.58,346.1 425.52,497.02 166.93,311.26 235.03,1052.35 389.7,1456.74 346.91,907.06 898.38,1664.06 1013.53,2704.35 61.5,555.5 15.8,1221.04 -3.52,1788.77 -20.56,604.26 -53.32,1199.63 -38.29,1805.91 14.86,598.46 94.43,1176.68 92.9,1774.25 -1.44,562.21 -82.96,1168.12 231.5,1569.48 441.3,563.21 1640.57,971.3 2365.34,1331.82 463.62,230.63 706.82,461.24 908.29,961.44 87.32,216.81 155.06,460.98 223.56,701.3 214.75,753.17 -189.6,1033.96 243.16,1554.21 850.96,1022.98 2415.73,564.46 3723.25,350.65zm0 -2501.39l0 -339.31c-436.54,73.37 -963.25,-172.4 -1085.6,-470.69 -84.43,-205.79 -28.77,-488.59 -79.91,-720.28 -46.16,-209.12 -136.77,-389.49 -248.55,-525.03 -525.01,-636.55 -1062.22,-774.92 -1918.83,-1204.18 -823.82,-412.82 -1114.31,-735.32 -1290.54,-1826.08 -76.47,-473.34 -117.98,-933.75 -162.51,-1417.08 -43.64,-473.51 -115.77,-907.64 -175.95,-1363.74 -130.98,-992.74 52.17,-2050.72 -118.26,-3035.08 -199.65,-1153 -797.45,-2353.19 -1341.69,-3350.16 -309.9,-567.69 -844.4,-1381.51 -1214.54,-1906.5 -107.53,-152.51 -208.67,-313.15 -317.27,-457.42 -115.35,-153.25 -213.41,-295.08 -321.68,-452.13 -875.68,-1270.22 -1733.94,-2383.02 -2450.04,-3816.26 -941.84,-1885.01 -1012.43,-2836.28 -1359.64,-4882.67 -173.87,-1024.75 -435.95,-2122.64 -995.27,-2951.44 -86.85,-128.72 -254.18,-338.8 -352.03,-422 -1516.24,-1289.03 -2943.24,-179.84 -4738.4,-1505.03 -322.73,-238.23 -506.62,-508.81 -455.59,-1090.74l-333.98 0c-41.34,562.66 74.05,864.87 367.74,1163.2 172.72,175.46 664.09,510.93 960.06,638.08 1746.81,750.52 3493.03,-199.88 4524.97,1815.99 686.99,1341.99 805.48,3581.64 1208.23,5135.11 388.72,1499.43 1248.54,3034.19 2072.76,4270.47l1302.47 1868.46c882.15,1275.31 1784.78,2465.9 2414.88,3926.66 799.76,1854.17 781.01,2086.18 766.49,3979.88 -4.23,549.85 27.88,957.41 113.52,1485.16 149.03,918.44 139.04,1918.28 356.79,2812.16 238.51,979.13 665.62,1320.48 1464.22,1709.69 542.8,264.52 1624.12,665.22 1871.93,1296.23 191.07,486.51 -61.92,840.09 342.11,1232.31 245.05,237.87 712.28,462.47 1194.11,402.4zm-23253.74 13060.84l331.09 0c69.18,-1189.68 263.31,-2477.18 410.08,-3660.55 135.33,-1091.12 447.56,-2647.14 334.19,-3673.54 -66.21,-599.33 -207.36,-1159.18 -311.83,-1738.74 -148.98,-826.56 -113.18,-2060.68 -457.16,-2588.24 -342.43,-525.2 -1232.72,-972.66 -1785.31,-1262.91 -2070.3,-1087.45 -4140.49,-1490.19 -6357.91,-287.88 -875.8,474.87 -1744.3,970.24 -2677.91,1391.55 -688.68,310.79 -2351.38,1023.13 -3199.31,620.46 178.99,-153.78 179.03,-185.63 462.6,-334.68 172.98,-90.91 365.07,-170.49 556.05,-242.46 869.46,-327.57 949.96,-446.74 1530.17,-916.89l1235.03 -1162.88c727.31,-659.59 1282.17,-579.18 2235.1,-985.27 1209.15,-515.3 1200.65,-1910.68 2009.25,-2836.7 473.22,-541.93 1828.65,-2143.26 2186.14,-2632.89 222.41,-304.63 481.24,-608.27 687.54,-935.75 106.75,-169.5 213.41,-323.28 317.97,-481.79 2442.12,-3702.89 1183.24,-5903.66 2305.81,-8179.4 111.18,-225.36 174.57,-323.77 312.45,-512.84 66.8,-91.63 127.37,-122.93 196.21,-202.73 71.05,-82.37 135.67,-114.77 223.5,-176.04 519.61,-362.5 1341.44,-342.11 1939.81,-42.92 510.78,255.41 831.13,849.47 989.9,1407.14 557.28,1957.18 -82.86,3603.81 647.85,5794.02 133.97,401.57 292.64,777.15 423,1200 315.76,1024.24 398,3285.88 439.88,4379.75 104.79,62.18 230.74,137.07 380.38,157.12 -52.73,191.98 -148.54,418.39 -218.82,597.74 -542.42,1383.87 -1007.21,2706.94 -1333.99,4182.11 -182.75,825.01 -338.78,1967.08 -124.12,2801.39 348.97,1356.47 2193.08,3334.13 1829.43,4398.05 -126.6,370.46 -467.89,574.72 -839.24,732.81 -544.8,231.93 -600.71,247.13 -986.65,587.35 -644.07,567.75 -1066.94,2525.66 -1314.51,3405.01 -116.83,414.93 -242.97,811.59 -377.57,1200.61l347.29 0c123.76,-410.72 252.91,-795.94 377.36,-1229.92 292.91,-1021.28 626.28,-2806.04 1435.45,-3331.3 315.95,-205.11 749.8,-330.43 1064.98,-532.99 1895.22,-1218.02 -884.21,-3726.06 -1246.41,-5391.98 -260.91,-1200 209.8,-2896.46 552,-4068.13 253.31,-867.4 494.79,-1521.51 817.43,-2354.91 76.21,-196.85 144.2,-387.07 217.68,-581.09 55.83,-147.43 182.45,-435.55 202.43,-563.19 -163.23,-125.54 -357.36,-130.23 -477.53,-211.48 -39.86,-1036.42 -106.7,-2092.53 -208.14,-3117.62 -151.85,-1534.57 -909.46,-2389.65 -996.31,-3961.17 -108.66,-1966.12 388.32,-5694.49 -2252.32,-6024.5 -1146.27,-143.25 -1799.54,389.55 -2199.83,1056.49 -914.26,1523.25 -667.56,4096.14 -1071.74,5544.17 -243.86,873.72 -610.09,1609.66 -1000.79,2321.49 -195.51,356.17 -429.26,695.46 -637.15,1010.71l-2195.61 2772.98c-53.32,57.02 -61.71,70.29 -104.94,120.57l-653.48 769.23c-526.15,668 -744.32,1581.69 -1171.12,2149.99 -515.2,686.01 -1432.39,637.34 -2250.29,1043.64 -548.9,272.68 -954.12,706.33 -1360.89,1112.91 -1736.75,1735.83 -2203.06,1212.35 -3017.05,1926.18 -125.52,110.06 -285.25,275.71 -380.87,453.11 404.44,337.63 1080.7,379.68 1692.79,282.57 543.78,-86.28 1076.24,-268.58 1556.29,-462.24 492.11,-198.5 943.1,-421.74 1397.69,-649.4 436.73,-218.72 904.73,-457.12 1323.62,-700.34 2197.07,-1275.61 3966.07,-1343.41 6319.6,-162.4 456.89,229.27 927.96,475.34 1317.06,730.07 426.8,279.41 737.52,521.38 827.6,1187.85 85.09,629.65 96.15,1212.1 215.24,1839.9 106.7,562.57 245.49,1137.23 308.86,1715.89 106.47,971.98 -210.73,2622.13 -342.49,3661.1 -153.14,1207.41 -299.01,2420.59 -405.52,3643.79zm-4198.85 0l355.07 0c65.66,-316.04 158.86,-543.65 201.75,-899.65 117.77,-977.48 -226.06,-2069.09 -334.87,-2986.01 -162.79,-1371.89 494.24,-2715.86 -148.07,-3969.53 -524.31,-1023.39 -1684.42,-1312.41 -3159.94,-1310.54 -1331.95,1.68 -2784.51,165.35 -4015.19,481.33 -2501.28,642.24 -2598.49,1489.93 -3923.01,3318.31l-260.7 313.4c-435.86,529.95 -1542.41,1324.98 -2206.03,873.94 -1175.58,-799 -848.9,-4397.5 -506.09,-5585.64 337.4,-1169.33 812.53,-2145.66 1258.71,-3209.35 588.39,-1402.7 431.17,-1203.69 1186.77,-2159.78 345.66,-437.37 1622.91,-1351.08 2128.91,-1765.26 49.67,-40.66 100.12,-86.89 149.73,-124.84l304.25 -269.7c46.48,-43.06 98.21,-79.25 151.79,-124.27l888.89 -807.47c1022.98,-836.07 1484.07,-1158.31 2601.23,-1868.85 430,-273.48 977.99,-548 1339.27,-908.27 197.31,-196.76 364.26,-330.9 541.68,-582.96 775.81,-1102.34 915.26,-2232.28 625.36,-3601.05 -123.86,-584.83 -426.58,-1159.12 -485.32,-1731.29 -68.44,-666.71 234.09,-1281.05 444.82,-1798.39 606.44,-1488.85 1114.4,-3296.92 2349.2,-4366.77 551.06,-477.44 1391.07,-753.45 1750.44,-1596.36 108.17,-253.75 174.89,-580.05 257.19,-868.2 160,-560.41 473.98,-993.66 997.25,-1247.79 568.11,-275.88 1279.84,30.37 1780.47,220.69 1176.87,447.39 2345.31,693.99 3400.1,1094.52 570.9,216.76 960.51,461.58 1389.64,856.76 738.95,680.53 1117.2,1799.92 1364.8,3106.17 247.15,1303.98 388.19,2621.72 511.29,3975.25 239.74,2635.89 465.63,5392.77 1122.68,7848.4 262.29,980.36 56.87,2134.64 296.97,3049.67 84.68,322.66 262.84,561.11 290.58,829.75 80.99,784.5 95.39,1143.7 402.76,1821.94 248.57,548.47 533.08,1086.09 428.86,1797.94 -121.61,830.66 -554.2,915.7 51.75,1643.19 110.14,132.23 463.21,416.03 621.18,501.29 240.25,129.68 562.08,187.38 845.1,280.23 1415.93,464.47 325.29,1818.44 1968.42,2526.27 946.62,407.79 2710.8,638.23 2336.56,2066.78 -432.81,1652.1 -4129.71,2079.9 -5988.72,2974.05 -281.32,135.31 -458.08,289.47 -657.51,466.12 -57.08,50.56 -99.36,71.18 -151.02,124.78 -68.8,71.37 -75.15,74.53 -143.67,130.7l-845.38 853.51c-163.44,204.04 -329.75,347.82 -500.71,627.02l397.24 0c34.66,-62.92 81.12,-117.53 120.46,-161.91l394.46 -454.19c371.52,-323.23 668.81,-697.18 1169.52,-1076.81 1424.28,-1079.87 6295.52,-1347.22 6558.49,-3602.39 178.1,-1527.2 -1328.85,-1777.37 -2345.14,-2169.53 -681.42,-262.95 -909.89,-411.87 -1082.21,-1161.28 -138.58,-602.71 -257.09,-1054.5 -882.49,-1367.13 -556.82,-278.37 -872.53,-91.67 -1516.8,-730.64 -602.83,-597.88 -44.38,-654.79 -3.55,-1710.95 41.94,-1085.07 -664.31,-1689.05 -762.52,-2614.59 -27.16,-255.94 -59.01,-821.83 -116.32,-1036.83 -22.78,-85.49 -132.12,-228.36 -182.92,-364.24 -379.46,-1015 -58.5,-2093.15 -439.92,-3531.27 -983.46,-3708.03 -877.69,-8213.87 -1634.48,-11898.6 -124.8,-607.57 -277.75,-1199.23 -521.76,-1725.6 -352.22,-759.76 -870.47,-1376.92 -1591.22,-1805.35 -745.68,-443.25 -1615.69,-677.28 -2478.47,-918.68 -607.44,-169.96 -1132.49,-354.85 -1693.6,-552.85 -555.56,-196.04 -1192.22,-486.15 -1862.43,-287.35 -477.78,141.72 -598.16,366.7 -832.72,566.33 -609.67,518.87 -540.78,1527.37 -981.07,2140.86 -56.17,78.27 -69.88,72.52 -136.56,137.26 -232.99,226.28 -103.54,139.43 -462.32,387.15 -483.09,333.58 -859.41,533.86 -1257.88,990.11 -174.17,199.44 -333.58,405.56 -492.41,655.54 -581.66,915.47 -977.9,2006.98 -1406.33,3088.63 -206.87,522.27 -483.2,1076.05 -583.38,1666.44 -133.95,789.34 121.76,1238.05 326.55,1889.93 409.77,1304.36 368.4,2616.58 -300.39,3677.6 -136.96,217.29 -346.49,459.92 -510.59,612.09 -56.23,52.15 -73.71,71.82 -138.83,135.35 -49.43,48.25 -94.86,74.85 -152.36,122.59 -275.84,228.97 -1362.08,879.69 -1735.28,1111.62 -472.11,293.4 -885.93,611.69 -1314.28,932.63 -318.41,238.59 -626.79,514.77 -931.33,767.4l-723.87 673.08c-65.66,57.23 -96.32,71.24 -162.57,138.28l-298.09 251.16c-946.22,751.56 -2000.52,1450.73 -2676.62,2417.74 -340.92,487.61 -495.11,931.69 -743.62,1528.81 -436.54,1048.89 -964.52,2101.32 -1290.79,3229.53 -352.71,1219.64 -483.85,2728.92 -327.57,4042.26 290.53,2441.61 1519.73,2884.23 3174.68,1549.5 61.28,-49.43 79.84,-85.62 134.76,-138.58 334.74,-322.83 365.94,-386.11 656.45,-768.61 396.6,-522.18 958.41,-1545.36 1432.88,-1961.56 472.52,-414.5 821.97,-607.44 1448.48,-823.27 1191.31,-410.42 2514.98,-577.65 3856.25,-660.48 933.63,-57.67 2118.35,-82.31 2949.21,368.17 131.87,71.48 241.12,136.92 333.05,241.48 148.43,168.84 51.92,7.69 265.6,308.71 752.6,1060.21 75.7,2650.82 215.83,3955.52 70.46,655.9 246.54,1262.74 317.8,1921.3 95.43,881.6 40.09,1225.09 -196.21,2015.62zm2335.35 0l345.32 0c226.6,-980.81 460.45,-1943.47 444.93,-3021.4 -14.86,-1032.03 -297.73,-2477.67 -255.03,-3193.28 89.12,-1493.63 1267.9,-2402.79 -751.75,-4083.78 -1756.68,-1462.1 -4269.05,-1576.78 -6569.7,-1029.23 -1958.44,466.1 -4260.13,1631.31 -5598.62,3091.44 -48.54,52.94 -58.78,55.83 -114.6,108.76l-297.05 353.2c-152.15,179.56 -521.95,744.04 -716.57,1006.29l-399.57 473.39c-309.3,318.58 -720.09,744 -1002.79,182.26 -414.67,-824.01 -28.9,-2060.89 206.85,-2875.86 377.98,-1306.66 845.84,-2556.7 1564.74,-3653.99l539.94 -757.53c192.28,-244.96 398.7,-454.76 652.97,-645.9 831.85,-625.38 1800.11,-915.11 2781.39,-1562.43 842.68,-555.9 1287.38,-807.45 2186.88,-1284.06 350.03,-185.49 774.69,-431.23 1073.22,-650.31 758.61,-556.65 813.06,-696.35 1337.38,-1284.85 457.61,-513.6 1057.38,-1373.67 1533.66,-1937.05 123.67,-146.29 258.28,-318.95 387.43,-462.15 867.14,-961.55 1242.8,-2358.99 1578.91,-3640.99 269.98,-1029.78 783.56,-2183.44 -210.35,-2918.73 -230.46,-170.51 -423.72,-426.52 -536.83,-735.32 -339.16,-926.05 -125.07,-2049.47 249.25,-2861 270.76,-586.99 765.92,-1396.33 1211.7,-1833.92l689.72 -608.23c522.18,-403.12 1111.81,-683.4 1814.78,-779.44 1344.69,-183.72 2323.99,374.71 3148.68,1139.9 85.85,79.65 137.56,151.83 219.65,230.5 291.21,279.11 696.73,882.26 897.21,1248.96 953.88,1744.81 1112.51,3536.49 1192.71,5749.05 39.92,1101.53 63.64,2195.5 184.93,3284.06 109.34,981.34 340.03,1999.78 504.79,2964.86 171.13,1002.28 329.67,2134.85 234.41,3179.52 -28.9,316.97 -478.72,2387.84 -579.28,2840.19 84.54,100.31 98.06,46.95 175.99,219.97 327.69,727.54 -73.34,2250.5 738.35,3207.97 42.6,50.26 57.91,53.64 99,99.29 897.72,997.46 -162.81,1821.56 333.58,2638.01 697.35,1147.06 2484.67,498.15 2849.76,1869.17 448.37,1683.79 -2396.59,2180.06 -3649.21,2520.39 -852.72,231.67 -1450.8,500.71 -1974.68,1173.35 -402.87,517.21 -755.43,1458.63 -919.31,2238.93l334.43 0c114.99,-527.36 329.61,-1146.1 549.79,-1577.34 588.18,-1151.94 1459.19,-1367.98 2634.91,-1658.73 1392.38,-344.34 4005.1,-1019.18 3285.01,-2955.49 -408.36,-1098.11 -1671.17,-984.36 -2385.11,-1361.44 -474.36,-250.55 -587.99,-546.99 -503.05,-1052.73 124.9,-743.81 301.09,-1065.73 -105.45,-1759 -58.44,-99.65 -154.38,-222.75 -227.38,-297.56 -853.68,-874.91 -366.68,-2344.72 -784.28,-3233.96 -127.6,-271.74 -126.47,-66.78 -13.55,-612.54 61.56,-297.39 123.5,-589.43 184.91,-888.5 61.13,-297.75 147.41,-570.7 203.6,-869.16 127.26,-676.07 111.93,-1349.59 61.81,-2038.17 -91.14,-1252.25 -376.15,-2492.36 -587.12,-3709.28 -657.47,-3792.48 305.78,-7988.03 -2254.83,-11152.73 -1381.93,-1707.97 -3559.94,-2461.76 -5593.59,-1112.08 -254.48,168.88 -391.99,285.61 -605.13,468.44 -292.7,251.08 -536.81,509.48 -781.52,817.66 -81.94,103.2 -148.75,198.27 -236.05,314.25 -768.61,1021.22 -1406.55,2730.87 -987.33,4093.82 225.98,734.7 478.35,826.8 893.11,1255.4 446.21,461.11 273.42,1028.74 101.18,1673.04 -297.39,1112.49 -564.46,2274.26 -1043.6,3228.25 -122.93,244.77 -261.85,468.33 -403.01,669.96 -67.99,97.13 -151.15,212.45 -227.47,296.27l-1911.17 2384.21 -777.96 844.14c-95.34,80.63 -173.98,157.26 -282.38,241.74 -787.49,613.68 -2108.1,1198.93 -3036.86,1806.84 -417.09,272.99 -846.05,572.45 -1330.1,816.58 -982.68,495.64 -1900.13,853.61 -2591.34,1706.12 -311.83,384.62 -609.92,797.62 -874.49,1273.21 -694.95,1249.34 -818.56,1676.16 -1260.49,3034.06 -319.82,982.64 -807.64,2590.68 -206.87,3534.5 273.69,429.98 660.46,413.23 1077.39,132.31 152.97,-103.05 428.01,-385.09 547.58,-527.51 294.27,-350.5 423.57,-551.1 689.87,-932.52 454.76,-651.33 921.35,-1162.26 1562.24,-1658.47 1941.43,-1503.18 4594,-2563.41 7156.7,-2497.39 1260.66,32.49 2484.31,388.6 3316.65,973.74 538.66,378.68 468.71,391.78 857.93,738.52 55.59,49.52 193.09,227.49 246.66,303.1 845.33,1193.05 -195.93,1871.42 -86.57,3519.89 105.13,1584.79 389.27,2249.65 164,3998.37 -98.93,768.1 -307.99,1326.53 -373.86,1770.19zm-22754.7 0l445.7 0c-74.98,-137.58 -154.23,-171.79 -258.34,-282.7 -93.58,-99.68 -151.28,-178.18 -254.09,-271.21 -184.38,-166.78 -348.57,-352.71 -535.11,-513.6 -55,-47.44 -97.13,-74.02 -149.03,-125.69 -50.18,-49.94 -75.17,-95.81 -128.15,-145.52 -645.92,-606.27 -1243.21,-1241.17 -1571.58,-2123.96 -211.46,-568.43 -316.52,-1112.36 -318.35,-1781.06 -3.33,-1209.59 335.98,-2507.52 581.56,-3643.09 301.81,-1395.69 470.96,-2011.46 850.54,-3366.21 152.97,-546.01 288.86,-1170.71 352.03,-1765.39 137.45,-1293.58 -272.08,-2437.53 604.93,-3570.53l478.78 -569.24c356.04,-382.37 966.29,-919.06 1387.73,-1259.26l1450.84 -1170.35c427.26,-365.77 710.58,-591.26 1119.56,-1003.51 872.49,-879.48 1166.17,-1645.5 1789.58,-2430.21l769.55 -828.26c98.78,-90.95 177.78,-157.52 275.5,-249.36 300.58,-282.36 791.18,-788.38 1029.74,-1092.95 548.54,-700.36 1666.27,-3316.27 2056.82,-4260.83 817.37,-1976.85 2246.19,-4207.77 1910.59,-6428.3 -96.55,-638.8 -305.14,-1042.77 -510.44,-1609.76 -253.84,-701.04 -246.49,-1031.26 -1.95,-1725.96 441.41,-1254.04 -944.84,-1846.78 -1779.04,-2263.9 -250.04,-125.01 -470.07,-243.29 -696.8,-375.32 -273.12,-159.05 -382.42,-287.11 -570.02,-478.23 -108.42,-110.48 -332.03,-422.51 -417.24,-630.9 -141.17,-345.21 -98.81,-525.37 22.51,-831.32l-364.45 0c-180.47,702.64 71.35,1147.63 411.83,1559.61l388.91 409.87c658.62,538.51 1595.94,799.66 2175.58,1246.37 539.81,416.01 719.03,732.43 469.35,1381 -484.49,1258.41 368.7,2207.92 544.39,3369.31 186.08,1230.04 -215.34,2457.77 -634.9,3456.14 -270,642.46 -684.59,1517.24 -990.41,2181.4 -545.46,1184.52 -1668.86,4135.84 -2416.45,4973.85 -250.72,281.06 -769.46,828.32 -1039.06,1057.96 -304.93,259.72 -424.08,421.55 -655.81,668.72 -373.79,398.7 -469.56,578.35 -769.46,1053.94l-654.03 943.14c-77.38,104.94 -154.63,188.46 -234.01,290.34 -554.71,712 -2101.92,1913.33 -2803.73,2464.08 -99.04,77.72 -181.98,156.05 -287.01,237.13 -98.98,76.4 -188.42,149.05 -284.42,240.53l-277.5 246.41c-53.64,43.34 -103.16,79.69 -150,126.05 -310.94,307.69 -613.75,614.96 -893.09,954.37 -83.35,101.25 -145.42,197.7 -218.89,306.82 -840.39,1248.22 -410.55,2251.96 -566.16,3585.21 -123.78,1060.59 -519.72,2358.16 -812.46,3399.45 -156.5,556.69 -273.55,1135.72 -392.48,1705.83 -242.71,1163.34 -569.71,2378.78 -578.46,3620.46 -10.26,1455.62 472.52,2600.74 1266.54,3481.58 45.97,51.01 74.96,98.57 122.91,153.14 48.44,55.13 79.42,69.48 131.21,117.77 180.45,168.26 332.41,344.07 516.51,532.04 77.91,79.55 189.35,175.76 277.52,247.94l782.22 786.19zm1605.34 0l406.98 0c-147.92,-227.66 -308.41,-437.99 -460.54,-672.99 -461.35,-712.74 -802.31,-1369.51 -1135.7,-2185.6 -423.82,-1037.44 -994,-2258.16 -875.27,-3548.85 59.33,-645.03 221.82,-1261.22 321.49,-1898.66 102.86,-657.75 178.35,-1313.6 243.01,-1980.1 62.22,-641.2 107.13,-1374.5 251.16,-1973.81 246.92,-1027.36 869.41,-1867.91 1277.57,-3140.76 523.97,-1633.99 157.18,-1764.31 1464.54,-3254.73l2997.13 -3368.87c929.42,-1122.83 2045.35,-2618.67 2844.86,-3799 875.34,-1292.3 1853.32,-2715.26 2445.43,-4221.04 584.1,-1485.43 1017.72,-3481.62 1561.24,-5105.32 268.77,-802.95 281.7,-921.14 494.71,-1702.71 423.02,-1552 824.23,-986.25 1972.51,-1922.1 455.19,-370.95 1211.87,-1067.62 1033.54,-1715.3 -128.94,-468.29 -723.28,-793.56 -1249.03,-949.66 -679.89,-201.9 -1455.73,115.35 -2025.45,-96.49 -566.71,-210.71 -606.29,-533.1 -862.77,-809.87 -80.84,-87.23 -179.94,-172.55 -303.49,-246.75 -463.64,-278.49 -1015.85,-465.17 -1467.85,-754.43 -638.15,-408.39 -742.07,-803.54 -509.06,-1449.61l-357.7 0c-96.98,354.62 -156.56,615.38 -5.67,973.27 445.12,1055.77 2051.97,1097.39 2553.75,1891.59 695.27,1100.49 1610.55,710.34 2490.79,743.77 528.55,20.07 1337.62,382.18 1425.87,806.39 118.07,567.54 -990.05,1479.68 -1535.72,1766.16 -249.13,130.78 -535.82,210.5 -735.42,364.92 -175.76,135.97 -386.45,368.76 -501.88,598.27 -111.78,222.2 -198.86,558.03 -269.6,828.83 -77.93,298.35 -149.22,601.86 -229.8,893.62 -79.44,287.67 -186.65,544.86 -277.92,820.59 -183.98,555.82 -342.9,1131.75 -509.91,1713.71 -328.5,1144.72 -610.99,2321.36 -1049.55,3369.06 -424.91,1015.06 -634.09,1326.47 -1144.04,2176.92l-1319.23 2002.26c-313.11,425.99 -588.01,868.31 -913.75,1283.15 -171.28,218.1 -317.48,430.19 -480.07,643.16l-1218.79 1552.43c-406.05,526.96 -747.61,872.73 -1150.73,1346.35l-2223.4 2470.53c-1005.19,1209.25 -855.1,1736.02 -1280.07,3141.02 -167.14,552.61 -420.41,1055.43 -659.23,1539.01 -766.11,1551.28 -679.83,1909.11 -855.93,3584.14 -70.16,667.39 -143.72,1318.25 -247.38,1980.77 -99.08,633.24 -255.56,1235.05 -315.55,1877.17 -122.52,1311.27 408,2509.37 835.9,3555.48 208.57,509.89 446.61,1062.69 707.37,1514.76l621.33 1028.1c71.39,107.17 166.08,216.47 221.31,331.22zm2040.32 0l453.89 0c-56.08,-92.9 -142.8,-160.49 -218.21,-256.62 -37.9,-48.35 -65.96,-69.16 -105.71,-118.26l-497.87 -651.61c-266.35,-358.21 -466.48,-696.01 -710.83,-1111.11 -447.67,-760.52 -751.6,-1775.8 -916.36,-2755.52 -186.65,-1109.88 -127.34,-2317.58 -10.28,-3440.56 108.87,-1044.32 231.99,-2182.55 508.72,-3155.5 139.28,-489.63 298.2,-926.64 423.97,-1424.89 122.16,-484.02 234.37,-980.85 367.66,-1454.24 436.86,-1551.47 946.18,-2469.02 1857.27,-3661.18 242.16,-316.91 520.7,-611.62 726.65,-871.83l994.68 -1076.3c61.01,-71.94 156.92,-192.26 224.11,-250.95l1079.96 -1193.24c378.28,-461.96 878.82,-1096.96 1252.55,-1493.2l924.26 -923.39c215.77,-207.53 941.4,-908.46 1148.63,-1148.56l211.09 -238.83c453.59,-574.46 714.87,-863.49 1124.87,-1622.46 765.68,-1417.35 1184.37,-2398.23 1544.55,-3974.31 326.08,-1426.89 662.88,-2360.05 1617.07,-3426.39 74.81,-83.6 143.95,-172.32 210.95,-237.85l865.23 -983.27c136.2,-180.3 259.93,-325.51 390.91,-532.33 189.77,-299.71 543.18,-621.18 742.39,-854.85 38.86,-45.59 61.62,-78.42 101.1,-125.31 45.12,-53.58 64.19,-59.2 112.99,-109.95l1184.71 -1301.45c-37.99,-88.51 -110.04,-184.04 -183.72,-220.35 70.86,6.73 89.63,44.85 135.18,91.63 99,-115.11 223.39,-413.33 315.87,-565.27 345.89,-568.37 645.98,-1366.73 489.18,-2065.61 -27.67,-123.29 -76.06,-235.05 -129.23,-323.26 -131.55,-218.23 -535.84,-572.13 -739.71,-758.31 -1126.12,-1028.38 -2442.95,-925.13 -3760.39,-1210.25 -841.55,-182.13 -1936.99,-659.7 -2096.53,-1351.23l-334.43 0c85.11,583.64 641.82,977.29 1072.52,1213.61 1723.43,945.52 3297.73,322.83 4758.62,1482.63l591.3 532.48c405.77,407.49 389.34,677.73 290.58,1328.3 -68.48,451.05 -527.92,1155.66 -722.58,1547.01 -105.66,212.45 -47.25,211.52 -194.98,378.76 -49.14,55.61 -97.74,89.97 -148.24,150.68l-1196.96 1325.05c-154.42,187.21 -400.19,418.26 -520.17,604.76 -420.36,653.35 -687.56,884.38 -1157.19,1412.75l-268.19 307.52c-188.78,241.76 -397.34,438.52 -622.5,775.62 -784.96,1175.32 -890.92,1930.49 -1225.31,3293.04 -362.35,1476.39 -1425.87,3835.82 -2442.23,4949.83 -54.7,59.97 -74.79,94.09 -124.2,151.25l-970.66 1000.37c-107.62,97.47 -193.89,173.15 -299.28,275.65 -115.11,111.97 -169.98,149.92 -287.16,287.22 -172.45,202.07 -421.04,403.23 -568.9,554.4 -544.95,557.07 -1166.51,1474.92 -1693.07,2002.37 -55.78,55.89 -76.61,93.71 -125.05,151.34 -46.5,55.34 -98.91,93.35 -148.83,149.39l-937.73 1009.86c-293.53,338.04 -810.64,872.03 -1070.31,1202.46 -397.26,505.51 -592.13,723.89 -980.43,1292.66 -623.39,913.14 -1043.07,1892.06 -1383.65,3135.29 -165.04,602.45 -296.12,1208.51 -470.05,1802.51 -180.11,615.06 -351.22,1130.52 -479.82,1794.5 -237.91,1228.3 -422.21,2815.36 -428.39,4093.18 -10.98,2266.57 519.21,3904.77 1722.37,5647.88 74.89,108.51 153.21,214.56 231.1,318.71l494.22 625.55zm13370.25 0l330.75 0c73.41,-745.76 151.45,-1501.74 278.66,-2231.92 257.56,-1478.34 1002.13,-3091.73 148.13,-4075.58 -336.21,-387.32 -956.2,-722.32 -1623.18,-899.63 -1505.07,-400.08 -2870.19,441.09 -3728.41,1097.24l-848.56 698.81c-70.12,55.97 -106.47,101.29 -170.51,153.8l-505.64 443.89c-66.4,53.21 -103.39,102.63 -166.78,157.18 -58.59,50.43 -109.51,79.42 -165.48,135.52l-677.96 594.59c-58.5,43.7 -120.04,97.04 -178.99,146.24 -734.21,612.73 -2053.1,1608.93 -3487.46,1528.39 -356.23,-20 -715.95,-95.34 -991.07,-253.52 -1462.73,-841.02 -1406.29,-3443.95 -1366.79,-4936.69 22.13,-836.35 32.3,-1633.61 1.55,-2471.11 -57.95,-1577.87 -168.5,-3198.93 239.87,-4690.03 183.66,-670.61 457.69,-1220.3 785.47,-1711.73 168.12,-252.06 350.9,-506.36 534.82,-714.12l291.28 -332.43c207.46,-258.07 824.48,-813.65 944.8,-952.91l497.76 -451.75c374.33,-317.97 823.38,-811.23 1124.63,-1071.72 154.08,-133.25 1017.46,-1153.64 1185.62,-1336.83 239.36,-260.74 641.44,-804.65 857.73,-1039.95 1260.05,-1370.83 2481.15,-3731.07 3477.25,-5363.1 575.29,-942.61 873.34,-1358.81 1539.6,-2230.75 1018.5,-1332.88 1349.36,-3012.51 2945.94,-4619.08 106.43,-107.09 217.61,-196.25 322.81,-301.49l1198.57 -1324.26c99.38,-125.94 176.97,-248.34 273.46,-375.83 408.34,-539.49 745.3,-930.46 1191.67,-1329.65 368.4,-329.46 892.2,-784.75 1534.82,-964.1 347.06,-96.85 753.34,-89.84 1083.88,51.01 249.17,106.17 600.71,387.92 745.36,527.22 1320.8,1272 2293.99,991.02 4005.31,986.95 686.35,-1.64 1439.63,77 1882.27,640.55 356.85,454.34 521.8,1146.12 777.76,1744.16 254.84,595.42 571.87,1077.85 820.42,1701.96 1022.83,2568.28 530.46,4235.82 592.3,6826.94 54.36,2277.15 898.16,4405.31 1674.19,6512.71 117.73,319.71 127.39,1369.32 148.28,1752.18 14.86,272.61 -13.99,306.27 103.69,518.19 366.11,659.23 -279.98,1442.98 338.12,2658.31 208.38,409.68 380.78,484.89 568.43,705.25l324.45 299.69c112.99,102.54 205.21,210.58 298.75,325.8 180.05,221.78 367.02,460.16 410.57,836.03 82.48,712.02 -206.66,1323.31 553.16,1970.5 207.82,176.99 550.93,293.87 817.47,432.17 192.71,99.99 394.18,263.42 555.31,393.76 68.65,55.53 90.88,109.57 156.75,166.82 689.77,599.56 956.09,2355.78 2084.87,2960.71 661.72,354.62 1423.53,183.57 2131.46,1.3 1251.26,-322.19 3396.56,-275.22 4157.02,525.79 300.85,316.91 546.77,1314.39 -546.77,1507.2 -387.96,68.42 -788.83,50.69 -1185.92,37.31 -2341.15,-78.8 -4947.16,915.24 -7057.04,1759.81 -1432.45,573.4 -3040.09,1052.05 -4110.79,2182.76l-301.24 322.75c-73.73,82.58 -226.3,268.05 -276.41,374.71l425.12 0c34.44,-72.73 77.66,-120.1 126.41,-174.61 57.04,-63.79 93.58,-124.9 146.09,-179.22 50.18,-51.88 107.91,-88.7 158.92,-140.02 52.73,-53.07 99.29,-123.18 152.59,-171.02 708.45,-635.83 1534.65,-999.84 2450.76,-1369.81 2284.62,-922.65 5367.2,-2239.82 7878.63,-2274.47 988.37,-13.63 2641.51,270.96 2712.14,-1108.96 22.55,-440.71 -115.28,-730.5 -313.91,-975.78 -363.37,-448.69 -1195.26,-664.86 -1774.39,-749.12 -3293.21,-479.12 -4278.75,1618.6 -5682.86,-1156.66 -245.32,-484.87 -441.32,-999.48 -775.83,-1421.77 -66.1,-83.45 -90.16,-91.61 -163.61,-161.13 -248.74,-235.34 -371.5,-381.25 -697.69,-575.69 -426.88,-254.5 -862.36,-323.74 -1131.39,-766.72 -486.89,-801.7 417.45,-1516.39 -989.56,-2830.59 -64.45,-60.22 -109.32,-88.61 -173.38,-151.25 -63,-61.6 -104.79,-100.46 -169.84,-155.23 -401.21,-337.93 -742.81,-993.51 -720.22,-1794.72 11.57,-410.66 148.86,-733.81 32.09,-1161.45 -45.95,-168.24 -155.16,-314.32 -170.41,-459.46 -60.54,-576.42 -13.12,-1229.11 -96.02,-1795.91 -29.2,-199.56 -874.3,-2470.6 -993.49,-2826.89 -449.48,-1343.82 -775.6,-2766.69 -742.34,-4317.7 53.87,-2511.47 282.72,-4426.14 -736,-6738.75 -267.64,-607.59 -575.55,-1081.95 -821.21,-1726.77 -388.7,-1020.22 -589.33,-1847.68 -1657.52,-2163.56 -1415.19,-418.52 -3165.4,328.29 -4427.86,-592.09l-350.37 -272.87c-75.64,-56.87 -102.65,-92.29 -173.95,-150.51 -640.4,-523.03 -1136.8,-932.69 -2081.72,-692.53 -565.16,143.65 -1010.07,431.09 -1438.29,784.73 -107.81,89.04 -241.06,184.4 -333.98,290.98 -193.11,221.46 -439.07,403.01 -619.01,629.74 -27.9,35.14 -39.54,54.42 -66.44,83.58l-1211.74 1508.71c-121.95,130.44 -161.77,212.3 -314.1,335.76l-1083.84 1112.93c-681.04,795.9 -1148.31,1541.39 -1613.8,2508.35 -479.06,995.14 -820.81,1491.65 -1465.85,2353.55 -1840.35,2458.98 -2631.85,4820.83 -4932.49,7452.56l-1015.08 1208.13c-285.08,349.44 -1199.21,1286.12 -1572.77,1596.26 -69.25,57.48 -97.57,69.23 -163.13,137.49 -160.85,167.48 -354.13,293.1 -515.32,459.2l-777.96 794.99c-264.22,268.13 -512.82,542.29 -743.81,854.61 -475.81,643.39 -847.44,1254.8 -1100.6,2094.98 -449.28,1490.95 -373.03,3060.88 -310.45,4661.87 33.25,850.73 42.15,1643.61 15.63,2496.93 -59.24,1906.56 -108.28,4975.74 1935.78,5642.55 1616.24,527.24 3190.37,-509.25 4191.93,-1275.31 132.72,-101.5 219.8,-182.98 343.22,-280.53 354.75,-280.38 676.13,-583.13 1016.8,-881.94l673.31 -599.86c955.1,-790.59 2180.51,-2006.49 3835.05,-1892.63 730.41,50.26 1364.5,363.26 1809.88,700.38 1004.89,760.65 185.89,2640.33 -48.52,4017.82 -123.54,726.08 -222.03,1521.26 -279.62,2259.44z"/>
 </g>
</svg>
