<?xml version="1.0" encoding="UTF-8"?>
<!DOCTYPE svg PUBLIC "-//W3C//DTD SVG 1.1//EN" "http://www.w3.org/Graphics/SVG/1.1/DTD/svg11.dtd">
<!-- Creator: CorelDRAW -->
<svg xmlns="http://www.w3.org/2000/svg" xml:space="preserve" width="275mm" height="47.1105mm" version="1.1" style="shape-rendering:geometricPrecision; text-rendering:geometricPrecision; image-rendering:optimizeQuality; fill-rule:evenodd; clip-rule:evenodd"
viewBox="0 0 27492.26 4709.72"
 xmlns:xlink="http://www.w3.org/1999/xlink"
 xmlns:xodm="http://www.corel.com/coreldraw/odm/2003">
 <defs>
  <style type="text/css">
   <![CDATA[
    .fil1 {fill:black;fill-rule:nonzero}
    .fil0 {fill:#F4701F;fill-rule:nonzero}
   ]]>
  </style>
 </defs>
 <g id="Camada_x0020_1">
  <metadata id="CorelCorpID_0Corel-Layer"/>
  <path class="fil0" d="M2909.1 2432.02c339.7,-166.67 580.6,-493.82 580.6,-962.92 0,-697.53 -555.87,-1117.27 -1550.27,-1117.27l-1939.42 0 0 4320.85 2062.94 0c1093.23,0 1655.27,-425.92 1655.27,-1166.63 0,-574.05 -321.15,-938.25 -809.11,-1074.04zm-1025.25 -1580.21c629.96,0 988.2,234.56 988.2,691.35 0,456.76 -358.24,691.33 -988.2,691.33l-1266.18 0 0 -1382.67 1266.18 0zm154.4 3320.89l-1420.58 0 0 -1438.24 1420.58 0c685.57,0 1056.15,222.23 1056.15,722.21 0,499.99 -370.59,716.03 -1056.15,716.03zm2847.32 -3401.13c234.69,0 401.47,-172.83 401.47,-395.03 0,-209.88 -172.95,-376.53 -401.47,-376.53 -228.53,0 -401.47,172.83 -401.47,388.87 0,216.04 172.94,382.69 401.47,382.69zm-296.47 3901.12l592.93 0 0 -3271.5 -592.93 0 0 3271.5zm3378.52 -617.26c-123.55,98.74 -290.32,154.32 -463.24,154.32 -327.36,0 -512.65,-197.54 -512.65,-549.38l0 -1771.54 938.81 0 0 -487.64 -938.81 0 0 -716.03 -592.95 0 0 716.03 -555.85 0 0 487.64 555.85 0 0 1796.22c0,660.47 376.77,1024.67 1037.66,1024.67 265.58,0 537.33,-74.09 716.47,-228.41l-185.29 -425.89z"/>
  <path class="fil1" d="M11514.88 349.12l0 1858.3 -2481.8 0 0 -1858.3 -617.35 0 0 4321.54 617.35 0 0 -1926.16 2481.8 0 0 1926.16 617.38 0 0 -4321.54 -617.38 0zm3228.83 4358.59c981.61,0 1697.76,-697.62 1697.76,-1673.08 0,-975.4 -716.15,-1666.85 -1697.76,-1666.85 -981.61,0 -1703.9,691.46 -1703.9,1666.85 0,975.46 722.29,1673.08 1703.9,1673.08zm0 -518.6c-629.7,0 -1105.1,-456.84 -1105.1,-1154.48 0,-697.59 475.4,-1148.25 1105.1,-1148.25 629.7,0 1098.91,450.65 1098.91,1148.25 0,697.63 -469.21,1154.48 -1098.91,1154.48zm4975.97 -2790.45l0 1691.54c0,703.82 -395.12,1086.58 -1012.5,1086.58 -561.78,0 -882.81,-321.03 -882.81,-963.1l0 -1815.03 -592.66 0 0 1882.93c0,963.09 561.78,1426.13 1407.58,1426.13 463.01,0 870.48,-191.39 1111.26,-530.93l0 493.88 561.79 0 0 -3272.01 -592.66 0zm2660.8 3309.06c870.5,0 1413.77,-376.59 1413.77,-968.24 0,-1271.76 -2074.34,-642.06 -2074.34,-1414.77 0,-259.3 253.12,-450.67 771.69,-450.67 321.03,0 648.25,67.89 944.57,259.3l253.13 -469.21c-283.99,-185.21 -765.54,-296.34 -1191.51,-296.34 -839.6,0 -1364.38,395.12 -1364.38,982.63 0,1302.62 2068.17,666.75 2068.17,1401.4 0,276.79 -228.43,443.49 -777.88,443.49 -425.99,0 -870.46,-142 -1148.28,-338.52l-246.94 468.18c271.62,216.07 808.75,382.76 1351.99,382.76zm5111.78 -1654.55c0,-1006.28 -672.92,-1685.38 -1617.46,-1685.38 -944.56,0 -1642.2,697.62 -1642.2,1666.85 0,975.46 703.79,1673.08 1759.49,1673.08 543.27,0 993.94,-185.22 1290.27,-530.93l-327.2 -382.76c-240.78,265.47 -561.81,395.09 -944.54,395.09 -648.23,0 -1111.27,-382.76 -1185.36,-956.9l2654.66 0c6.17,-55.56 12.34,-129.65 12.34,-179.05zm-1617.46 -1185.3c574.12,0 987.75,388.92 1049.48,938.38l-2099.02 0c61.73,-555.61 481.56,-938.38 1049.53,-938.38z"/>
 </g>
</svg>
