<?xml version="1.0" encoding="UTF-8"?>
<!DOCTYPE svg PUBLIC "-//W3C//DTD SVG 1.1//EN" "http://www.w3.org/Graphics/SVG/1.1/DTD/svg11.dtd">
<!-- Creator: CorelDRAW -->
<svg xmlns="http://www.w3.org/2000/svg" xml:space="preserve" width="1600px" height="1600px" version="1.1" style="shape-rendering:geometricPrecision; text-rendering:geometricPrecision; image-rendering:optimizeQuality; fill-rule:evenodd; clip-rule:evenodd"
viewBox="0 0 1448.17 1448.17"
 xmlns:xlink="http://www.w3.org/1999/xlink"
 xmlns:xodm="http://www.corel.com/coreldraw/odm/2003">
 <defs>
  <style type="text/css">
   <![CDATA[
    .fil2 {fill:#03914A}
    .fil0 {fill:#04A557}
    .fil3 {fill:#3E436D}
    .fil5 {fill:#DDA22C}
    .fil1 {fill:#FBC13D}
    .fil4 {fill:#FEFEFE}
   ]]>
  </style>
 </defs>
 <g id="Camada_x0020_1">
  <metadata id="CorelCorpID_0Corel-Layer"/>
  <g id="_2534695834656">
   <path class="fil0" d="M231.52 617.04c20.53,-8.33 118.75,-68.17 148.03,-84.77 48.88,-27.71 96.93,-56.25 145.03,-84.08 49.11,-28.41 96.22,-55.43 144.96,-84.13 13.43,-7.9 25.06,-13.98 37.52,-21.89 18.66,-11.83 19.23,-8.62 37.62,2.08 62.2,36.17 643.25,370.76 652.32,379.83 -9.57,9.57 -56.52,33.83 -72.34,43.38 -24.76,14.96 -48.25,28.22 -73.5,42.51l-508.3 294.97c-21.04,12.28 -18.21,11.55 -39.23,-1.16 -127.04,-76.82 -270.77,-154.55 -399.35,-231.44 -20.72,-12.4 -51.88,-32.72 -72.74,-41.22 22.88,173.52 116.6,317.66 202.33,403.81 47.53,47.77 102.96,88.82 173.72,128.86 40.82,23.1 172.79,76.74 226.8,73.23 36.11,13.21 201.68,-54.42 246.63,-81.64 38.75,-23.48 62.27,-37.7 99.09,-67.78 69.74,-56.97 107.85,-102.95 156.06,-174.88 69.02,-103 107.16,-233.79 112,-364.76l0 -56.85c-3.19,-85.63 -20.89,-169.62 -53.82,-244.14 -51.63,-116.88 -65.03,-122.78 -128.84,-204.92 -21.8,-28.07 -56.21,-57.62 -83.87,-80.18 -16.26,-13.26 -29.11,-23.35 -46.87,-35.15 -53.17,-35.35 -102.05,-64.14 -166.36,-85.37 -21.44,-7.08 -112.26,-37.97 -134.02,-30.29 -42.18,-7.9 -183.71,50.74 -226.66,73.42 -63.45,33.49 -146.92,95.38 -191.92,147.44 -95.94,110.99 -163.49,229.33 -184.29,385.12z"/>
   <path class="fil1" d="M231.52 617.04l-0.31 2.17c-10.39,67.62 -10.41,142.04 0,209.74l0.33 2.17c20.86,8.5 52.02,28.82 72.74,41.22 128.58,76.89 272.31,154.62 399.35,231.44 21.02,12.71 18.19,13.44 39.23,1.16l508.3 -294.97c25.25,-14.29 48.74,-27.55 73.5,-42.51 15.82,-9.55 62.77,-33.81 72.34,-43.38 -9.07,-9.07 -590.12,-343.66 -652.32,-379.83 -18.39,-10.7 -18.96,-13.91 -37.62,-2.08 -12.46,7.91 -24.09,13.99 -37.52,21.89 -48.74,28.7 -95.85,55.72 -144.96,84.13 -48.1,27.83 -96.15,56.37 -145.03,84.08 -29.28,16.6 -127.5,76.44 -148.03,84.77z"/>
   <path class="fil2" d="M834.39 1437.02c-54.01,3.51 -185.98,-50.13 -226.8,-73.23 -70.76,-40.04 -126.19,-81.09 -173.72,-128.86 -85.73,-86.15 -179.45,-230.29 -202.33,-403.81l-0.33 -2.17 -181.59 -105.92 181.59 -103.82 0.31 -2.17c20.8,-155.79 88.35,-274.13 184.29,-385.12 45,-52.06 128.47,-113.95 191.92,-147.44 42.95,-22.68 184.48,-81.32 226.66,-73.42 -3.72,-4.51 -0.26,-4.35 -18.45,-6.9 -8.46,-1.18 -14.95,-0.9 -23.49,-1.81 -9.91,-1.06 -20.32,-1.84 -31.12,-2.35l-64.97 0c-72.23,3.07 -150.3,15.87 -206.64,37.17 -133.75,50.55 -152.96,71.46 -248.11,145.04 -26.01,20.13 -48.7,48.91 -71.19,73.06l-42.71 56.29c-21.88,29.5 -30.27,49.18 -45.81,75.81 -23.17,39.68 -50.52,112.63 -61.39,159.23 -11.96,51.32 -18.7,100.27 -20.51,148.81l0 53.57c1.81,49.1 8.58,98.51 20.01,150.26 7.53,34.09 23.06,75.41 36.12,108.13l50.17 96.9c99.63,150.98 205.22,239.19 381.35,305.97l75.18 20.99c25.43,6.21 56.25,11.57 84.96,14.03 16.5,1.42 34.57,2.42 53.21,2.91l50.38 0c21.48,-0.59 42.53,-1.96 61.66,-4.28 19.58,-2.38 16.92,-0.37 21.35,-6.87z"/>
   <path class="fil3" d="M984.41 825.82c-11.87,-11.27 -40.27,-79.89 -135.13,-144.88 -17.57,-12.03 -36.93,-23.54 -56.82,-33.61 -82.42,-41.72 -193.78,-68.58 -300.7,-70.45 -17.04,37.28 -31.48,57.5 -38.99,107.67 -6.79,45.43 -1.92,88.6 11.64,129.52 52.75,159.1 237.38,230.3 377.24,163.38 61.77,-29.56 125.09,-87.54 142.76,-151.63z"/>
   <path class="fil4" d="M491.76 576.88c106.92,1.87 218.28,28.73 300.7,70.45 19.89,10.07 39.25,21.58 56.82,33.61 94.86,64.99 123.26,133.61 135.13,144.88 12.05,-24.12 20.48,-70.08 19.22,-101.44 -15.24,-15.03 -25.08,-30.26 -39.91,-44.75 -12.85,-12.55 -29.06,-25.9 -44.47,-37.63 -102.36,-77.95 -223.48,-122.39 -360.5,-134.71 -27.69,-2.7 -56.9,50.28 -71.78,66.62l4.79 2.97z"/>
   <path class="fil3" d="M558.75 507.29c137.02,12.32 258.14,56.76 360.5,134.71 15.41,11.73 31.62,25.08 44.47,37.63 14.83,14.49 24.67,29.72 39.91,44.75 2.9,-102.77 -58.73,-194.05 -144.25,-243.01 -69.32,-39.69 -160.48,-43.6 -237.8,-12.55 -13.25,5.32 -43.3,20.24 -54.9,29.92 -0.68,0.56 -2.62,2.32 -3.25,2.95 -4.28,4.32 -0.92,0.03 -4.68,5.6z"/>
   <path class="fil5" d="M231.21 828.95c-10.41,-67.7 -10.39,-142.12 0,-209.74l-181.59 103.82 181.59 105.92z"/>
   <path class="fil4" d="M524.37 794.68c-4.52,1.97 -18.76,6.53 -10.26,26.08 3.4,7.82 14.23,14 26.6,8.61 19.82,-8.63 10.3,-46.34 -16.34,-34.69z"/>
   <path class="fil4" d="M756.3 930.44c-4.52,1.98 -18.76,6.53 -10.26,26.09 3.4,7.81 14.23,14 26.6,8.61 19.82,-8.63 10.3,-46.35 -16.34,-34.7z"/>
   <path class="fil4" d="M756.3 707c-4.52,1.97 -18.76,6.52 -10.26,26.08 3.4,7.81 14.23,14 26.6,8.61 19.82,-8.63 10.3,-46.35 -16.34,-34.69z"/>
   <path class="fil4" d="M617.7 814.48c-4.51,1.97 -18.75,6.53 -10.25,26.08 3.4,7.81 14.23,14 26.6,8.61 19.82,-8.63 10.3,-46.34 -16.35,-34.69z"/>
   <path class="fil4" d="M617.7 910.64c-4.51,1.98 -18.75,6.53 -10.25,26.09 3.4,7.81 14.23,14 26.6,8.61 19.82,-8.63 10.3,-46.35 -16.35,-34.7z"/>
   <path class="fil4" d="M524.37 633.46c-7.21,3.15 -7.35,-1.28 -11.12,10.17 -5.57,16.9 9.71,32.25 27.46,24.52 19.82,-8.63 10.3,-46.35 -16.34,-34.69z"/>
   <path class="fil4" d="M841.03 893.28c-28.78,9.91 -12.03,45.18 12.01,36.57 22.38,-8.01 10.6,-44.36 -12.01,-36.57z"/>
   <path class="fil4" d="M890.36 830.52c-20.62,11.89 -6.45,45.39 17.18,34.83 21.56,-9.64 7.13,-48.86 -17.18,-34.83z"/>
   <path class="fil4" d="M714.99 858.8c-20.61,11.9 -6.45,45.4 17.18,34.83 21.57,-9.63 7.13,-48.86 -17.18,-34.83z"/>
  </g>
 </g>
</svg>
