<?xml version="1.0" encoding="UTF-8"?>
<!DOCTYPE svg PUBLIC "-//W3C//DTD SVG 1.1//EN" "http://www.w3.org/Graphics/SVG/1.1/DTD/svg11.dtd">
<!-- Creator: CorelDRAW -->
<svg xmlns="http://www.w3.org/2000/svg" xml:space="preserve" width="46.228mm" height="46.228mm" version="1.1" style="shape-rendering:geometricPrecision; text-rendering:geometricPrecision; image-rendering:optimizeQuality; fill-rule:evenodd; clip-rule:evenodd"
viewBox="0 0 1412.95 1412.95"
 xmlns:xlink="http://www.w3.org/1999/xlink"
 xmlns:xodm="http://www.corel.com/coreldraw/odm/2003">
 <defs>
  <style type="text/css">
   <![CDATA[
    .fil0 {fill:black;fill-rule:nonzero}
   ]]>
  </style>
 </defs>
 <g id="Camada_x0020_1">
  <metadata id="CorelCorpID_0Corel-Layer"/>
  <path class="fil0" d="M720.25 0c1.06,0.03 2.11,0.08 3.17,0.11 252.48,7.67 478.83,153.36 601.23,372 51.27,91.65 82.16,195.55 87.04,301.27 0.3,6.35 0.72,12.67 1.27,18.99l0 27.87 -0.09 3.14c-2.7,88.97 -21.85,174.16 -57.39,255.58 -107.16,245.39 -349.71,421.57 -618.66,432.83 -5.44,0.25 -10.85,0.63 -16.23,1.16l-24.82 0 -3.06 0c-337.56,-8.69 -628.38,-266.2 -683.71,-598.35 -4.72,-28.43 -7.42,-53.43 -8.08,-75.01 -0.28,-9.08 -0.58,-15.43 -0.91,-19.01l0 -27.87c4.33,-168.59 70.18,-327.82 182.55,-452.89 130.89,-145.71 313.23,-233.96 509.82,-239.81l3.06 0 24.82 0zm-95.15 742.21c83.09,-83.2 166.63,-166.71 250.6,-250.49 39.13,-39.08 98.49,-44.26 143.34,-12.58 30.05,21.22 47.6,57.46 45.62,94.44 -1.57,28.89 -12.64,53.65 -33.25,74.29 -109.12,109.36 -218.59,218.84 -328.46,328.48 -21.17,21.11 -50.75,34.24 -80.22,33.25 -31.04,-1.08 -56.6,-11.62 -76.69,-31.65 -55.5,-55.33 -111.35,-111.19 -167.62,-167.62 -5.99,-6.02 -11.54,-13.75 -16.7,-23.16 -20.73,-37.81 -17.39,-82.4 6.79,-116.9 33.17,-47.3 97.47,-59.66 146.82,-30.38 8.89,5.27 21.39,16.14 37.48,32.56 22.49,22.96 45.73,46.23 69.68,69.79 0.86,0.86 1.74,0.86 2.62,-0.03zm-2.76 78.02c-43.69,-43.6 -85.14,-85 -124.32,-124.21 -21.83,-21.88 -56.08,-23.1 -78.59,-0.91 -21.72,21.36 -21.77,56.49 -0.14,78.1 59.64,59.58 114.89,114.8 165.75,165.69 16.39,16.42 44.26,21.11 64.99,9 5.52,-3.23 11.54,-8.09 18.05,-14.63 110.8,-110.97 218.81,-218.95 324.07,-323.98 22.55,-22.49 24.26,-56.77 1.63,-79.59 -22.05,-22.3 -56.77,-21.28 -78.87,0.83 -96.89,96.84 -193.51,193.4 -289.79,289.71 -0.91,0.91 -1.85,0.91 -2.76,0zm-277.73 -502.87c0,15.04 -12.2,27.24 -27.24,27.24 -15.04,0 -27.24,-12.2 -27.24,-27.24 0,-15.04 12.2,-27.24 27.24,-27.24 15.04,0 27.24,12.2 27.24,27.24zm12.36 857.87c-9.22,-6.96 -18.77,-13.52 -27.15,-21.25 -14.82,-13.63 -30.36,-26.63 -44.1,-41.45 -15.4,-16.64 -30.71,-32.98 -44.29,-51.41 -9.55,-12.97 -19.65,-25.5 -27.9,-39.21 -9.71,-16.17 -20.29,-31.79 -28.54,-48.9 -8.14,-16.89 -16.86,-33.61 -23.9,-50.97 -22.43,-55.28 -35.96,-112.29 -40.57,-171.1 -5.57,-71.53 3.2,-141.22 26.36,-209.02 19.7,-57.65 45.54,-109.69 77.52,-156.14 4.61,-6.73 14.43,-11.4 22.69,-10.79 12.91,0.97 21.3,7.53 25.17,19.7 2.35,7.37 1.46,14.49 -2.65,21.3 -7.23,12.01 -14.4,24.04 -21.52,36.07 -21.42,36.1 -38.69,74.87 -51.85,116.35 -19.4,61.13 -26.11,122.83 -20.06,185.12 1.43,14.85 4.28,29.53 6.43,44.27 1.49,10.07 3.73,20.56 6.71,31.46 3.7,13.52 7.07,27.27 11.65,40.68 16.15,47.19 37.51,90.33 64.13,129.43 56.55,83.04 130.29,146.37 221.25,189.98 17.11,8.19 34.3,14.18 51.91,20.89 15.81,5.99 32.32,9.88 48.32,14.13 21.25,5.6 44.24,8.83 65.9,11.48 30.83,3.78 63.39,4.17 97.69,1.21 16.06,-1.38 31.32,-4.25 47.3,-6.65 10.4,-1.57 20.78,-3.78 31.19,-6.62 14.13,-3.84 27.93,-7.2 41.78,-11.92 46.61,-15.87 90.07,-37.5 130.39,-64.94 42.86,-29.17 81.02,-63.88 114.47,-104.12 43.82,-52.68 76.61,-111.9 98.35,-177.61 6.43,-19.43 13.69,-47.08 17.11,-69.65 2.35,-15.37 5.27,-31.08 6.46,-46.39 2.76,-35.74 2.4,-67.45 -1.1,-95.07 -1.57,-12.5 -3.42,-25.14 -5.49,-37.92 -3.45,-21.11 -9.11,-42.55 -15.43,-62.92 -15.21,-49.12 -37.53,-95.48 -66.92,-139.09 -39.52,-58.59 -88.64,-107.96 -147.39,-148.08 -38.61,-26.36 -80.45,-47.47 -125.48,-63.28 -17.3,-6.07 -34,-10.1 -51.36,-14.85 -16.31,-4.47 -33.64,-6.49 -49.95,-9.11 -122.64,-19.56 -247.51,19.23 -350.2,86.46 -7.17,4.69 -16.14,9.58 -24.89,8.47 -12.34,-1.6 -20.23,-8.23 -23.73,-19.84 -4.61,-15.23 4.31,-26.08 16.89,-34.17 90.27,-57.81 193.59,-98.22 301.05,-100.67 83.45,-1.9 162.96,13.49 238.49,46.2 21.77,9.41 46.8,21.5 68.03,34.61 7.48,4.64 14.66,9.03 21.53,13.16 15.84,9.58 30.44,21.44 45.17,32.34 7.81,5.8 15.18,11.87 22.05,18.21 13.75,12.64 28.29,24.95 40.82,38.94 13.94,15.56 28.32,30.24 40.62,47.11 4.94,6.76 9.85,13.3 14.71,19.62 10.29,13.3 18.05,27.4 27.07,41.61 6.68,10.51 12.78,21.58 18.32,33.14 7.4,15.4 15.24,30.49 21.66,46.33 55.8,137.4 56.6,288.99 2.13,426.9 -3.78,9.52 -7.87,18.82 -12.25,27.84 -8.14,16.67 -15.59,33.58 -25.34,49.34 -11.04,17.88 -21.03,35.46 -33.78,52.13 -9.83,12.86 -19.4,26.71 -30.27,38.61 -7.23,7.92 -14.52,15.98 -21.88,24.18 -11.95,13.3 -25.31,24.67 -38.17,36.65 -15.07,14.05 -31.46,25.56 -47.63,37.97 -14.52,11.15 -30.33,20.04 -45.59,29.61 -8.19,5.16 -16.56,9.8 -25.03,13.91 -17.3,8.39 -34.25,17.31 -51.96,24.45 -136.25,55 -286.26,56.21 -423.03,3.07 -11.62,-4.53 -23.1,-9.58 -34.41,-15.18 -14.88,-7.34 -30.47,-14.21 -44.6,-22.85 -9.74,-5.96 -19.79,-12.09 -30.11,-18.41 -11.59,-7.09 -22.05,-15.26 -32.76,-23.35zm987.16 -597.72c-53.09,-252.04 -256.07,-455.1 -508.22,-508.61 -17.6,-3.73 -35.2,-6.69 -52.83,-8.89 -48.99,-6.12 -98.07,-6.34 -147.24,-0.65 -21.49,2.48 -43,6.1 -64.53,10.84 -248.35,54.73 -448.59,256.07 -501.93,504.69 -4.19,19.52 -7.35,38.97 -9.66,58.33 -5.93,49.79 -5.79,98.89 -0.16,146.63 34.94,296.34 279.87,540.29 576.63,573.82 47.06,5.32 95.43,5.31 144.46,-0.57 18.82,-2.26 37.73,-5.32 56.71,-9.37 250.39,-53.34 453.47,-256.37 506.46,-506.9 3.79,-17.91 6.8,-35.81 9.03,-53.69 6.29,-50.35 6.41,-100.6 0.36,-150.75 -2.21,-18.31 -5.24,-36.6 -9.09,-54.89z"/>
 </g>
</svg>
