<?xml version="1.0" encoding="UTF-8"?>
<!DOCTYPE svg PUBLIC "-//W3C//DTD SVG 1.1//EN" "http://www.w3.org/Graphics/SVG/1.1/DTD/svg11.dtd">
<!-- Creator: CorelDRAW -->
<svg xmlns="http://www.w3.org/2000/svg" xml:space="preserve" width="101.988mm" height="106.191mm" version="1.1" style="shape-rendering:geometricPrecision; text-rendering:geometricPrecision; image-rendering:optimizeQuality; fill-rule:evenodd; clip-rule:evenodd"
viewBox="0 0 5765.78 6003.41"
 xmlns:xlink="http://www.w3.org/1999/xlink"
 xmlns:xodm="http://www.corel.com/coreldraw/odm/2003">
 <defs>
  <style type="text/css">
   <![CDATA[
    .fil0 {fill:white;fill-rule:nonzero}
   ]]>
  </style>
 </defs>
 <g id="Camada_x0020_1">
  <metadata id="CorelCorpID_0Corel-Layer"/>
  <path class="fil0" d="M1167.95 3002.08c0.12,-27.99 0.93,-55.99 2.37,-83.98 1.45,-27.99 3.6,-55.93 6.44,-83.81 2.84,-27.88 6.37,-55.64 10.54,-83.34 4.23,-27.7 9.1,-55.29 14.6,-82.76 5.57,-27.48 11.77,-54.78 18.67,-81.96 6.89,-27.18 14.43,-54.13 22.66,-80.91 8.17,-26.83 17.04,-53.38 26.54,-79.75 9.51,-26.37 19.65,-52.45 30.43,-78.36 10.78,-25.85 22.2,-51.41 34.25,-76.73 12.05,-25.27 24.69,-50.31 37.96,-75 13.22,-24.63 27.07,-49.03 41.56,-73.03 14.43,-23.99 29.5,-47.64 45.09,-70.88 15.59,-23.3 31.76,-46.13 48.51,-68.62 16.69,-22.48 33.97,-44.57 51.82,-66.19 17.79,-21.62 36.1,-42.83 54.94,-63.58 18.89,-20.69 38.19,-40.98 58.07,-60.74 19.82,-19.82 40.11,-39.12 60.92,-57.9 20.8,-18.78 42.02,-37.09 63.69,-54.83 21.68,-17.73 43.76,-34.94 66.31,-51.64 22.48,-16.69 45.44,-32.8 68.74,-48.34 23.29,-15.53 47,-30.54 71,-44.92 24.05,-14.37 48.45,-28.17 73.14,-41.38 24.75,-13.21 49.79,-25.79 75.12,-37.79 25.33,-11.93 50.94,-23.3 76.79,-34.02 25.91,-10.72 52.05,-20.8 78.42,-30.25 26.42,-9.38 52.97,-18.2 79.8,-26.37 26.84,-8.11 53.84,-15.59 80.97,-22.43 27.18,-6.78 54.54,-12.92 82.01,-18.43 27.47,-5.45 55.06,-10.26 82.82,-14.37 27.71,-4.17 55.47,-7.59 83.4,-10.38 27.88,-2.78 55.81,-4.81 83.8,-6.26 27.94,-1.39 55.99,-2.09 83.98,-2.14 119.63,-0.23 237.97,12 355.05,36.8l22.25 0c7.07,0.75 14.14,0.75 21.22,0.11 7.13,-0.7 14.03,-2.02 20.86,-4.05 6.84,-2.03 13.39,-4.75 19.65,-8.06 6.32,-3.3 12.23,-7.24 17.73,-11.71 5.51,-4.52 10.55,-9.5 15.07,-14.95 4.52,-5.51 8.52,-11.36 11.88,-17.62 3.36,-6.26 6.14,-12.8 8.23,-19.59 2.09,-6.78 3.48,-13.74 4.23,-20.8 0.75,-7.07 0.75,-14.14 0.11,-21.21 -0.7,-7.13 -2.03,-14.03 -4.05,-20.86 -2.03,-6.84 -4.69,-13.39 -8.06,-19.65 -3.3,-6.32 -7.19,-12.23 -11.7,-17.73 -4.46,-5.51 -9.45,-10.55 -14.95,-15.07 -5.45,-4.57 -11.3,-8.51 -17.56,-11.93 -6.26,-3.36 -12.81,-6.09 -19.59,-8.17 -6.83,-2.14 -13.73,-3.53 -20.8,-4.29 -35.06,-7.42 -70.24,-13.86 -105.66,-19.3 -35.41,-5.51 -70.88,-9.97 -106.53,-13.45 -35.64,-3.53 -71.35,-6.03 -107.16,-7.54 -35.76,-1.5 -71.52,-1.97 -107.34,-1.5 -35.82,0.46 -71.58,1.97 -107.34,4.46 -35.7,2.44 -71.34,5.91 -106.87,10.37 -35.53,4.47 -70.88,9.91 -106.12,16.34 -35.24,6.44 -70.24,13.86 -105.07,22.26 -34.83,8.34 -69.37,17.68 -103.68,28 -34.26,10.32 -68.28,21.56 -101.95,33.73 -33.62,12.23 -66.94,25.33 -99.86,39.41 -32.98,14.03 -65.49,28.98 -97.59,44.86 -32.11,15.82 -63.75,32.57 -94.94,50.19 -31.18,17.62 -61.84,36.11 -91.98,55.41 -30.13,19.36 -59.69,39.53 -88.72,60.45 -29.04,20.99 -57.44,42.77 -85.26,65.32 -27.82,22.55 -55,45.84 -81.49,69.96 -26.54,24.06 -52.4,48.86 -77.49,74.36 -25.15,25.5 -49.55,51.64 -73.26,78.53 -23.65,26.84 -46.6,54.36 -68.74,82.48 -22.14,28.17 -43.46,56.91 -64.04,86.24 -20.52,29.33 -40.27,59.17 -59.11,89.6 -18.9,30.43 -36.92,61.38 -54.14,92.8 -17.15,31.41 -33.44,63.28 -48.8,95.63 -15.42,32.34 -29.84,65.09 -43.46,98.23 -13.56,33.16 -26.2,66.6 -37.91,100.44 -11.71,33.85 -22.43,67.98 -32.22,102.47 -9.79,34.43 -18.66,69.08 -26.54,104.03 -7.88,34.95 -14.78,70.07 -20.7,105.37 -5.91,35.35 -10.84,70.76 -14.78,106.41 -3.94,35.59 -6.89,71.23 -8.86,106.99 -1.97,35.76 -2.9,71.58 -2.9,107.34 -0.06,71.17 3.77,142.11 11.53,212.82 7.83,70.71 19.48,140.84 35.01,210.27 15.53,69.43 34.89,137.76 58.02,205.05 23.12,67.29 49.9,133.07 80.32,197.41 30.43,64.34 64.34,126.76 101.66,187.31 37.39,60.57 77.95,118.87 121.77,174.92 43.82,56.04 90.58,109.54 140.32,160.43 49.73,50.82 102.18,98.81 157.23,143.85 19.88,16.29 42.72,24.52 68.45,24.81 11.24,0.29 22.26,-1.22 33.04,-4.4 10.78,-3.19 20.8,-7.94 30.13,-14.31 9.27,-6.31 17.39,-13.91 24.29,-22.78 6.9,-8.93 12.28,-18.61 16.17,-29.21 3.88,-10.55 6.03,-21.44 6.5,-32.69 0.46,-11.24 -0.81,-22.31 -3.83,-33.15 -3.01,-10.84 -7.59,-20.92 -13.79,-30.37 -6.15,-9.39 -13.62,-17.62 -22.37,-24.69 -48.98,-39.99 -95.58,-82.59 -139.85,-127.74 -44.22,-45.15 -85.89,-92.61 -124.84,-142.4 -39.01,-49.78 -75.11,-101.54 -108.38,-155.32 -33.26,-53.79 -63.47,-109.25 -90.53,-166.34 -27.13,-57.14 -51.01,-115.57 -71.64,-175.38 -20.63,-59.76 -37.84,-120.5 -51.76,-182.16 -13.91,-61.67 -24.34,-123.97 -31.35,-186.8 -6.95,-62.83 -10.49,-125.88 -10.49,-189.11zm0 0z"/>
  <path class="fil0" d="M5587.67 3112.48c-11.94,-35.99 -17.97,-72.91 -17.97,-110.81 0,-37.9 6.03,-74.82 17.97,-110.81l149.7 -461.11c9.39,-28.69 16.46,-57.9 21.22,-87.69 4.75,-29.79 7.18,-59.76 7.18,-89.95 0.06,-30.14 -2.32,-60.1 -7.01,-89.89 -4.69,-29.79 -11.71,-59.06 -21.04,-87.75 -9.33,-28.69 -20.8,-56.45 -34.54,-83.35 -13.68,-26.83 -29.44,-52.51 -47.18,-76.85 -17.73,-24.4 -37.32,-47.23 -58.65,-68.57 -21.39,-21.27 -44.28,-40.79 -68.68,-58.47l-395.27 -285.73c-30.89,-22.14 -57.55,-48.57 -79.92,-79.29 -22.38,-30.71 -39.35,-64.22 -51.01,-100.38l-149.71 -461.17c-9.33,-28.69 -20.8,-56.45 -34.48,-83.34 -13.68,-26.84 -29.39,-52.51 -47.12,-76.91 -17.73,-24.39 -37.21,-47.23 -58.54,-68.56 -21.33,-21.33 -44.22,-40.86 -68.62,-58.6 -24.4,-17.73 -50.08,-33.38 -76.91,-47.06 -26.89,-13.68 -54.66,-25.21 -83.35,-34.49 -28.69,-9.33 -57.95,-16.29 -87.75,-20.98 -29.79,-4.7 -59.75,-7.02 -89.95,-7.02l-481.63 0c-37.96,0 -75,-5.85 -111.11,-17.5 -36.11,-11.7 -69.49,-28.69 -100.21,-50.94l-391.85 -284.86c-24.39,-17.85 -49.95,-33.62 -76.85,-47.41 -26.84,-13.79 -54.66,-25.33 -83.35,-34.72 -28.69,-9.39 -57.95,-16.46 -87.75,-21.21 -29.79,-4.75 -59.81,-7.07 -90.01,-7.07 -30.19,0 -60.16,2.32 -90.01,7.07 -29.79,4.75 -59.06,11.82 -87.74,21.21 -28.7,9.39 -56.45,20.92 -83.35,34.72 -26.83,13.79 -52.45,29.56 -76.85,47.41l-392.67 284.86c-30.71,22.31 -64.1,39.3 -100.21,51 -36.16,11.71 -73.14,17.51 -111.1,17.45l-486.84 0c-30.14,0 -60.16,2.32 -89.95,7.07 -29.84,4.7 -59.06,11.71 -87.8,20.98 -28.69,9.33 -56.51,20.81 -83.4,34.49 -26.9,13.68 -52.57,29.39 -77.03,47.12 -24.4,17.68 -47.35,37.21 -68.68,58.54 -21.39,21.33 -40.98,44.16 -58.72,68.56 -17.79,24.4 -33.55,50.02 -47.29,76.91 -13.74,26.84 -25.27,54.59 -34.66,83.29l-149.71 462.04c-11.59,35.93 -28.52,69.2 -50.71,99.8 -22.26,30.55 -48.68,56.86 -79.35,79l-390.11 285.73c-24.46,17.68 -47.35,37.21 -68.68,58.47 -21.39,21.34 -40.92,44.17 -58.71,68.57 -17.73,24.34 -33.44,50.02 -47.17,76.85 -13.68,26.89 -25.21,54.66 -34.55,83.35 -9.33,28.69 -16.34,57.95 -21.04,87.75 -4.69,29.79 -7.01,59.75 -7.01,89.89 0.06,30.19 2.43,60.16 7.19,89.95 4.75,29.79 11.82,59 21.21,87.69l149.7 461.11c12,35.99 17.97,72.91 17.97,110.81 0,37.9 -5.97,74.82 -17.97,110.81l-149.7 461.11c-9.33,28.69 -16.41,57.95 -21.16,87.8 -4.75,29.79 -7.13,59.81 -7.13,90.01 -0.06,30.19 2.32,60.16 7.02,90.01 4.69,29.85 11.7,59.12 21.04,87.8 9.33,28.75 20.8,56.51 34.54,83.46 13.68,26.89 29.39,52.57 47.12,76.97 17.73,24.46 37.32,47.35 58.65,68.68 21.33,21.33 44.23,40.92 68.68,58.65l392.66 284.86c30.78,22.2 57.32,48.63 79.52,79.35 22.25,30.71 39.12,64.15 50.54,100.32l149.71 461.17c9.33,28.58 20.8,56.28 34.48,83.05 13.62,26.84 29.33,52.4 47,76.74 17.68,24.34 37.1,47.18 58.37,68.45 21.27,21.27 44.05,40.8 68.33,58.48 24.34,17.73 49.9,33.44 76.68,47.12 26.77,13.74 54.48,25.27 83.05,34.6 28.57,9.33 57.72,16.4 87.4,21.21 29.73,4.75 59.58,7.19 89.66,7.3l484.23 0c37.96,-0.06 75,5.74 111.11,17.45 36.11,11.71 69.55,28.69 100.21,51l392.72 285.73c24.4,17.74 50.07,33.38 76.97,47.06 26.89,13.68 54.65,25.15 83.34,34.49 28.69,9.27 57.9,16.28 87.68,20.97 29.79,4.75 59.76,7.08 89.96,7.08 30.13,0 60.1,-2.32 89.89,-7.08 29.79,-4.69 59.06,-11.7 87.75,-20.97 28.69,-9.33 56.45,-20.81 83.34,-34.49 26.89,-13.68 52.51,-29.32 76.97,-47.06l391.79 -285.73c30.78,-22.26 64.16,-39.24 100.26,-50.94 36.11,-11.65 73.14,-17.5 111.05,-17.5l485.1 0c30.2,0.12 60.16,-2.2 90.01,-6.84 29.79,-4.64 59.06,-11.59 87.75,-20.87 28.74,-9.27 56.57,-20.74 83.46,-34.42 26.89,-13.68 52.57,-29.39 76.97,-47.12 24.41,-17.68 47.3,-37.27 68.63,-58.59 21.32,-21.33 40.8,-44.22 58.54,-68.68 17.68,-24.39 33.38,-50.07 47,-77.02 13.68,-26.89 25.1,-54.71 34.37,-83.4l149.71 -461.17c11.47,-36.11 28.34,-69.55 50.6,-100.26 22.25,-30.72 48.68,-57.21 79.46,-79.41l391.79 -284.86c24.46,-17.73 47.35,-37.32 68.68,-58.65 21.39,-21.32 40.92,-44.22 58.65,-68.68 17.73,-24.4 33.44,-50.07 47.18,-76.97 13.68,-26.95 25.21,-54.71 34.54,-83.46 9.27,-28.69 16.28,-57.95 20.97,-87.8 4.75,-29.85 7.08,-59.81 7.08,-90.01 -0.06,-30.19 -2.44,-60.22 -7.19,-90.01 -4.75,-29.85 -11.76,-59.12 -21.16,-87.8l-146.28 -461.11zm-2101.19 2321.02l-392.71 285.79c-15.25,11.01 -31.24,20.8 -47.99,29.33 -16.81,8.58 -34.14,15.71 -52.05,21.56 -17.91,5.79 -36.11,10.14 -54.71,13.1 -18.61,2.96 -37.32,4.4 -56.1,4.4 -18.83,0 -37.55,-1.45 -56.16,-4.4 -18.54,-2.96 -36.8,-7.3 -54.71,-13.1 -17.91,-5.85 -35.24,-12.98 -51.99,-21.56 -16.81,-8.53 -32.8,-18.32 -48.04,-29.33l-392.72 -285.79c-49.03,-35.76 -102.41,-63 -160.19,-81.72 -57.78,-18.72 -117.02,-28 -177.7,-27.76l-486.84 0c-18.84,0.06 -37.61,-1.33 -56.28,-4.29 -18.66,-2.89 -36.92,-7.24 -54.88,-13.04 -17.97,-5.79 -35.36,-12.92 -52.22,-21.51 -16.81,-8.52 -32.86,-18.31 -48.16,-29.44 -15.3,-11.07 -29.61,-23.24 -42.95,-36.63 -13.33,-13.33 -25.56,-27.65 -36.68,-42.89 -11.07,-15.3 -20.92,-31.29 -29.44,-48.16 -8.58,-16.81 -15.76,-34.2 -21.56,-52.16l-149.71 -461.11c-18.54,-57.84 -45.67,-111.33 -81.37,-160.48 -35.64,-49.15 -78.13,-91.46 -127.39,-126.99l-389.3 -284.92c-15.24,-11.07 -29.62,-23.24 -42.94,-36.57 -13.39,-13.33 -25.62,-27.65 -36.75,-42.89 -11.07,-15.3 -20.92,-31.29 -29.5,-48.16 -8.58,-16.81 -15.82,-34.14 -21.68,-52.11 -5.79,-17.96 -10.2,-36.28 -13.16,-54.88 -2.96,-18.66 -4.47,-37.44 -4.47,-56.27 0,-18.9 1.45,-37.68 4.4,-56.28 2.96,-18.66 7.36,-36.98 13.22,-54.95l149.7 -461.11c18.84,-57.66 28.23,-116.84 28.23,-177.52 0,-60.68 -9.39,-119.86 -28.23,-177.52l-149.7 -461.11c-5.86,-17.97 -10.26,-36.28 -13.22,-54.95 -2.96,-18.6 -4.4,-37.38 -4.4,-56.28 0,-18.83 1.51,-37.61 4.47,-56.27 2.96,-18.61 7.36,-36.92 13.16,-54.89 5.85,-17.91 13.09,-35.3 21.68,-52.11 8.58,-16.86 18.43,-32.86 29.5,-48.16 11.13,-15.25 23.36,-29.56 36.75,-42.89 13.33,-13.33 27.7,-25.5 42.94,-36.57l391.85 -284.92c49.27,-35.53 91.75,-77.84 127.45,-126.98 35.64,-49.15 62.76,-102.64 81.31,-160.48l147.16 -461.11c5.85,-17.97 13.04,-35.29 21.62,-52.11 8.58,-16.81 18.43,-32.86 29.5,-48.1 11.13,-15.25 23.35,-29.56 36.68,-42.89 13.39,-13.33 27.7,-25.56 42.94,-36.63 15.3,-11.07 31.35,-20.87 48.17,-29.39 16.81,-8.58 34.19,-15.76 52.16,-21.56 17.91,-5.79 36.23,-10.15 54.89,-13.1 18.61,-2.89 37.38,-4.35 56.22,-4.35l484.23 0c60.74,0.23 119.97,-9.05 177.76,-27.76 57.73,-18.72 111.16,-45.96 160.19,-81.72l392.72 -284.91c15.19,-11.19 31.12,-21.1 47.87,-29.67 16.75,-8.64 34.14,-15.94 52.05,-21.79 17.9,-5.85 36.16,-10.31 54.76,-13.27 18.61,-3.02 37.33,-4.47 56.16,-4.47 18.9,0 37.62,1.45 56.22,4.47 18.61,2.96 36.87,7.42 54.78,13.27 17.9,5.86 35.23,13.16 51.98,21.79 16.81,8.58 32.75,18.49 47.93,29.67l392.72 284.91c49.61,36.23 103.69,63.7 162.22,82.42 58.54,18.72 118.52,27.76 179.96,27.06l485.1 0c18.89,-0.06 37.62,1.33 56.28,4.29 18.66,2.89 36.97,7.24 54.94,13.04 17.97,5.79 35.36,12.92 52.16,21.5 16.86,8.52 32.92,18.32 48.16,29.44 15.3,11.08 29.61,23.24 42.95,36.63 13.39,13.33 25.62,27.65 36.68,42.89 11.07,15.3 20.92,31.3 29.5,48.16 8.52,16.81 15.71,34.2 21.56,52.16l149.71 461.11c18.66,57.78 45.84,111.22 81.54,160.31 35.64,49.15 78.07,91.51 127.22,127.16l392.66 284.92c15.25,11.07 29.56,23.3 42.89,36.69 13.27,13.33 25.5,27.65 36.57,42.94 11.07,15.24 20.86,31.3 29.39,48.1 8.58,16.81 15.76,34.2 21.56,52.16 5.79,17.97 10.14,36.22 13.1,54.88 2.89,18.61 4.35,37.38 4.35,56.22 -0.06,18.89 -1.57,37.62 -4.52,56.22 -3.01,18.66 -7.42,36.92 -13.27,54.88l-152.31 460.24c-18.77,57.67 -28.23,116.84 -28.23,177.52 0,60.68 9.45,119.86 28.23,177.53l149.76 461.17c5.86,17.9 10.32,36.16 13.33,54.83 3.01,18.61 4.52,37.38 4.58,56.22 0.06,18.89 -1.39,37.67 -4.29,56.27 -2.95,18.66 -7.3,36.98 -13.09,54.89 -5.79,17.97 -12.99,35.35 -21.56,52.16 -8.52,16.86 -18.37,32.92 -29.44,48.16 -11.07,15.3 -23.3,29.56 -36.63,42.94 -13.39,13.33 -27.7,25.5 -42.94,36.63l-392.72 284.86c-49.09,35.64 -91.52,78.01 -127.22,127.16 -35.64,49.09 -62.83,102.53 -81.49,160.31l-149.76 461.1c-5.79,18.03 -12.92,35.41 -21.44,52.23 -8.58,16.86 -18.38,32.92 -29.45,48.22 -11.13,15.3 -23.3,29.62 -36.68,42.94 -13.33,13.39 -27.65,25.56 -42.94,36.69 -15.3,11.07 -31.36,20.86 -48.17,29.39 -16.86,8.58 -34.25,15.71 -52.22,21.5 -18.02,5.79 -36.33,10.09 -55,12.98 -18.67,2.9 -37.44,4.29 -56.28,4.17l-484.23 0c-60.8,-0.06 -120.03,9.28 -177.82,28.17 -57.78,18.84 -111.16,46.25 -160.14,82.18zm0 0z"/>
  <path class="fil0" d="M4813.41 3002.08c-0.17,-102.99 -8.51,-205.34 -25.03,-307 -16.58,-101.65 -41.09,-201.34 -73.55,-299.12 -32.51,-97.71 -72.56,-192.3 -120.15,-283.64 -47.58,-91.34 -102.18,-178.27 -163.67,-260.92l19.65 -33.33c10.2,-17.1 19.18,-34.77 27.06,-52.97 7.83,-18.26 14.49,-36.98 19.88,-56.11 5.39,-19.12 9.5,-38.48 12.34,-58.18 2.84,-19.65 4.35,-39.41 4.58,-59.29 0.23,-19.88 -0.81,-39.65 -3.18,-59.41 -2.38,-19.71 -6.03,-39.18 -11.01,-58.42 -4.93,-19.24 -11.07,-38.08 -18.55,-56.51 -7.42,-18.43 -15.99,-36.34 -25.79,-53.61 -9.74,-17.33 -20.63,-33.9 -32.57,-49.78 -11.94,-15.82 -24.92,-30.83 -38.83,-45.03 -13.97,-14.14 -28.75,-27.36 -44.4,-39.53 -15.71,-12.22 -32.11,-23.35 -49.26,-33.44 -17.1,-10.02 -34.83,-18.89 -53.15,-26.66 -18.31,-7.71 -37.04,-14.2 -56.22,-19.42 -19.19,-5.27 -38.6,-9.21 -58.25,-11.94 -19.71,-2.66 -39.47,-4.05 -59.35,-4.17 -37.38,-0.06 -74.18,4.52 -110.35,13.74 -28.4,7.13 -55.82,16.98 -82.3,29.44 -26.43,12.52 -51.46,27.47 -75,44.86 -23.53,17.38 -45.2,36.86 -64.96,58.48 -19.71,21.62 -37.22,44.92 -52.4,69.96l-1103.62 1830.87 -422.63 -427.78c-10.37,-11.19 -21.21,-21.79 -32.63,-31.82 -11.42,-10.08 -23.3,-19.53 -35.64,-28.4 -12.34,-8.86 -25.16,-17.04 -38.31,-24.63 -13.21,-7.59 -26.71,-14.49 -40.63,-20.69 -13.85,-6.2 -28.05,-11.71 -42.49,-16.52 -14.43,-4.81 -29.04,-8.86 -43.87,-12.17 -14.83,-3.3 -29.84,-5.85 -44.92,-7.71 -15.13,-1.8 -30.26,-2.84 -45.44,-3.13 -15.24,-0.29 -30.43,0.17 -45.56,1.45 -15.19,1.22 -30.26,3.25 -45.21,5.96 -14.95,2.79 -29.73,6.26 -44.33,10.49 -14.61,4.29 -28.92,9.22 -43.06,14.9 -14.09,5.68 -27.88,12.11 -41.33,19.19 -13.44,7.07 -26.54,14.78 -39.23,23.18 -12.7,8.41 -24.92,17.39 -36.69,27.01 -11.76,9.62 -23.07,19.82 -33.79,30.55 -10.78,10.78 -20.92,22.03 -30.54,33.79 -9.62,11.82 -18.66,24.05 -27.06,36.74 -8.35,12.64 -16.11,25.73 -23.19,39.18 -7.07,13.44 -13.44,27.24 -19.12,41.38 -5.68,14.09 -10.67,28.46 -14.9,43.06 -4.23,14.61 -7.77,29.39 -10.49,44.34 -2.78,14.95 -4.75,30.02 -6.03,45.15 -1.22,15.19 -1.68,30.37 -1.39,45.56 0.29,15.19 1.33,30.37 3.13,45.44 1.8,15.13 4.41,30.08 7.71,44.92 3.31,14.83 7.36,29.5 12.17,43.93 4.75,14.43 10.26,28.57 16.46,42.49 6.26,13.85 13.16,27.41 20.69,40.57 7.6,13.22 15.82,25.97 24.69,38.31 8.86,12.35 18.31,24.23 28.4,35.64 10.02,11.42 20.63,22.31 31.76,32.63l831.63 832.44c20.58,21.27 43.01,40.28 67.35,57.15 24.34,16.8 50.13,31.06 77.26,42.82 27.18,11.77 55.23,20.75 84.15,26.95 28.92,6.21 58.19,9.51 87.75,9.97 17.97,0 35.93,0 54.78,0 34.13,-4.06 67.34,-11.88 99.68,-23.53 32.34,-11.71 62.94,-26.89 91.81,-45.56 28.87,-18.72 55.18,-40.39 79.05,-65.14 23.88,-24.75 44.63,-51.87 62.25,-81.37l1261.91 -2094.35c24.69,36.63 47.87,74.18 69.6,112.61 21.74,38.42 41.96,77.66 60.68,117.65 18.72,39.99 35.88,80.67 51.41,122 15.59,41.32 29.5,83.22 41.85,125.59 12.28,42.42 22.95,85.26 31.93,128.49 9.04,43.24 16.34,86.76 21.97,130.52 5.62,43.81 9.56,87.75 11.82,131.85 2.2,44.11 2.72,88.27 1.57,132.37 -1.22,44.16 -4.12,88.21 -8.69,132.14 -4.58,43.93 -10.89,87.58 -18.89,131.05 -7.94,43.41 -17.62,86.47 -28.92,129.13 -11.3,42.71 -24.22,84.9 -38.83,126.57 -14.55,41.67 -30.72,82.76 -48.51,123.16 -17.73,40.46 -37.04,80.16 -57.9,119.11 -20.8,38.95 -43.12,77.02 -66.88,114.23 -23.76,37.21 -48.98,73.43 -75.52,108.67 -26.6,35.3 -54.54,69.49 -83.75,102.59 -29.21,33.09 -59.7,65.03 -91.4,95.75 -31.7,30.77 -64.57,60.21 -98.53,88.44 -34.02,28.17 -69.03,55 -105.07,80.5 -36.05,25.5 -73.09,49.55 -110.99,72.15 -37.91,22.66 -76.68,43.76 -116.21,63.4 -39.59,19.59 -79.87,37.67 -120.79,54.19 -40.98,16.51 -82.53,31.41 -124.61,44.68 -42.14,13.27 -84.68,24.92 -127.74,34.95 -43.01,9.97 -86.36,18.31 -130,24.91 -43.64,6.67 -87.51,11.6 -131.56,14.84 -44.05,3.25 -88.15,4.81 -132.26,4.64 -44.16,-0.18 -88.27,-2.09 -132.31,-5.63 -43.99,-3.59 -87.81,-8.87 -131.4,-15.88 -43.64,-6.96 -86.87,-15.59 -129.82,-25.97 -42.94,-10.31 -85.42,-22.25 -127.44,-35.88 -10.84,-3.42 -21.96,-5.1 -33.32,-5.16 -6.38,0.06 -12.7,0.64 -18.96,1.74 -6.26,1.16 -12.4,2.84 -18.37,5.04 -5.97,2.26 -11.71,4.99 -17.15,8.23 -5.51,3.25 -10.67,6.9 -15.47,11.07 -4.81,4.17 -9.28,8.69 -13.27,13.62 -4.06,4.98 -7.59,10.2 -10.67,15.76 -3.13,5.56 -5.68,11.36 -7.76,17.38 -2.03,6.03 -3.6,12.23 -4.52,18.49 -0.98,6.31 -1.39,12.64 -1.27,19.01 0.17,6.38 0.86,12.7 2.14,18.89 1.28,6.26 3.07,12.35 5.45,18.26 2.31,5.91 5.16,11.59 8.52,16.98 3.36,5.44 7.13,10.54 11.41,15.24 4.23,4.75 8.87,9.1 13.85,13.04 5.04,3.88 10.38,7.37 16,10.32 5.62,3.01 11.48,5.45 17.56,7.42 35.99,11.42 72.33,21.79 108.96,31.12 36.63,9.33 73.49,17.57 110.59,24.69 37.15,7.19 74.42,13.21 111.91,18.2 37.44,4.98 75.05,8.81 112.73,11.59 37.67,2.72 75.46,4.4 113.25,4.92 37.78,0.58 75.57,0 113.31,-1.67 37.79,-1.68 75.46,-4.47 113.02,-8.35 37.61,-3.88 75.05,-8.86 112.38,-14.95 37.27,-6.08 74.36,-13.27 111.28,-21.51 36.87,-8.28 73.49,-17.62 109.83,-27.99 36.34,-10.43 72.33,-21.91 107.97,-34.42 35.64,-12.52 70.94,-26.08 105.78,-40.69 34.89,-14.61 69.32,-30.19 103.22,-46.78 33.96,-16.63 67.41,-34.25 100.33,-52.8 32.92,-18.6 65.26,-38.08 97.02,-58.6 31.76,-20.45 62.95,-41.84 93.43,-64.15 30.55,-22.26 60.34,-45.44 89.49,-69.49 29.15,-24.05 57.61,-48.98 85.32,-74.65 27.7,-25.73 54.59,-52.28 80.73,-79.58 26.14,-27.29 51.47,-55.35 75.93,-84.09 24.51,-28.8 48.16,-58.3 70.88,-88.44 22.78,-30.2 44.63,-60.97 65.61,-92.44 20.92,-31.47 40.98,-63.52 60.04,-96.15 19.06,-32.64 37.15,-65.78 54.31,-99.45 17.1,-33.73 33.21,-67.87 48.34,-102.53 15.12,-34.66 29.21,-69.67 42.3,-105.14 13.04,-35.47 25.04,-71.28 36,-107.45 11.01,-36.16 20.87,-72.68 29.67,-109.43 8.86,-36.74 16.58,-73.72 23.24,-110.93 6.67,-37.21 12.17,-74.6 16.64,-112.1 4.46,-37.55 7.82,-75.17 10.09,-112.9 2.26,-37.73 3.36,-75.46 3.41,-113.31zm-547.52 -1291l-1403.09 2321.95c-9.16,15.19 -19.83,29.21 -32.11,42.02 -12.29,12.87 -25.79,24.11 -40.63,33.9 -14.78,9.79 -30.48,17.79 -47.12,24.05 -16.58,6.21 -33.68,10.55 -51.29,12.93l-29.91 0c-31.41,0.11 -61.61,-5.91 -90.53,-18.09 -28.99,-12.17 -54.43,-29.56 -76.33,-52.05l-834.99 -829.89c-5.51,-5.45 -10.72,-11.24 -15.71,-17.21 -4.92,-6.03 -9.56,-12.23 -13.91,-18.72 -4.34,-6.43 -8.34,-13.1 -12.05,-20 -3.71,-6.84 -7.02,-13.85 -10.02,-21.04 -3.02,-7.19 -5.63,-14.49 -7.89,-21.97 -2.32,-7.42 -4.17,-14.95 -5.74,-22.6 -1.57,-7.65 -2.72,-15.3 -3.48,-23.07 -0.75,-7.77 -1.16,-15.54 -1.22,-23.3 0,-7.77 0.34,-15.54 1.1,-23.3 0.75,-7.76 1.85,-15.41 3.36,-23.06 1.51,-7.65 3.36,-15.19 5.63,-22.66 2.26,-7.42 4.87,-14.78 7.82,-21.96 2.96,-7.19 6.26,-14.26 9.92,-21.1 3.65,-6.9 7.65,-13.56 11.94,-20.05 4.29,-6.5 8.93,-12.75 13.85,-18.78 4.92,-6.03 10.14,-11.82 15.59,-17.33 5.51,-5.51 11.24,-10.72 17.28,-15.71 6.03,-4.92 12.22,-9.62 18.72,-13.91 6.43,-4.35 13.1,-8.41 19.93,-12.05 6.9,-3.71 13.91,-7.07 21.1,-10.03 7.19,-3.01 14.49,-5.68 21.91,-7.94 7.48,-2.26 15.01,-4.17 22.6,-5.73 7.65,-1.51 15.36,-2.67 23.07,-3.48 7.77,-0.76 15.53,-1.16 23.3,-1.22 7.82,0 15.59,0.34 23.3,1.1 7.77,0.76 15.47,1.86 23.13,3.36 7.59,1.5 15.18,3.36 22.6,5.62 7.47,2.2 14.78,4.81 22.03,7.77 7.18,2.96 14.2,6.26 21.09,9.91 6.9,3.65 13.56,7.65 20.05,11.94 6.49,4.29 12.75,8.93 18.78,13.85 6.03,4.92 11.76,10.14 17.33,15.59l520.98 520.16c10.03,10.32 21.62,18.2 34.83,23.7 13.22,5.51 27.01,8.17 41.33,8l12.86 0c16.41,-2.14 31.59,-7.71 45.56,-16.75 13.91,-8.98 25.27,-20.52 33.96,-34.6l1174.68 -1948.06c16.23,-26.95 37.04,-49.78 62.42,-68.51 25.33,-18.66 53.32,-31.76 83.87,-39.29 18.83,-4.41 37.96,-6.67 57.31,-6.85 43.93,0.24 84.68,11.65 122.35,34.2 6.78,4.06 13.39,8.34 19.76,13.04 6.37,4.7 12.52,9.68 18.37,14.95 5.91,5.27 11.48,10.84 16.81,16.69 5.33,5.79 10.37,11.93 15.07,18.25 4.69,6.38 9.1,12.93 13.16,19.71 4.05,6.78 7.77,13.73 11.07,20.92 3.36,7.13 6.38,14.43 8.98,21.91 2.67,7.42 4.87,15.02 6.78,22.66 1.85,7.71 3.36,15.42 4.4,23.24 1.1,7.89 1.79,15.71 2.14,23.59 0.29,7.94 0.23,15.82 -0.29,23.7 -0.46,7.88 -1.33,15.71 -2.61,23.53 -1.27,7.82 -2.89,15.54 -4.98,23.13 -2.03,7.65 -4.4,15.19 -7.25,22.55 -2.78,7.42 -5.91,14.66 -9.45,21.73 -3.48,7.07 -7.36,13.97 -11.53,20.63zm0 0z"/>
 </g>
</svg>
