<?xml version="1.0" encoding="UTF-8"?>
<!DOCTYPE svg PUBLIC "-//W3C//DTD SVG 1.1//EN" "http://www.w3.org/Graphics/SVG/1.1/DTD/svg11.dtd">
<!-- Creator: CorelDRAW -->
<svg xmlns="http://www.w3.org/2000/svg" xml:space="preserve" width="46.2279mm" height="43.5295mm" version="1.1" style="shape-rendering:geometricPrecision; text-rendering:geometricPrecision; image-rendering:optimizeQuality; fill-rule:evenodd; clip-rule:evenodd"
viewBox="0 0 14909.78 14039.47"
 xmlns:xlink="http://www.w3.org/1999/xlink"
 xmlns:xodm="http://www.corel.com/coreldraw/odm/2003">
 <defs>
  <style type="text/css">
   <![CDATA[
    .fil0 {fill:black;fill-rule:nonzero}
   ]]>
  </style>
 </defs>
 <g id="Camada_x0020_1">
  <metadata id="CorelCorpID_0Corel-Layer"/>
  <g>
   <path class="fil0" d="M12292.69 6509.67l256.28 256.25 -256.28 -256.25zm-4448.17 1880.88l-274.6 295.6 274.6 -295.6zm7065.26 -3081.82l0 14.51 0 136.62 -1.74 15.26c-28.22,236.48 -122.85,434.93 -283.92,595.68 -345.69,345.1 -684.37,683.79 -1015.45,1015.74 -363.75,364.91 -963.04,414.67 -1346.55,45.44 -93.24,-89.76 -202.1,-196.9 -326.49,-321.43l-101.92 -102.4 -30.22 -30.48c-100.5,-101.31 -115.3,-239.06 -10.48,-347.68 65.51,-67.83 132.17,-134.53 200.35,-200.35 8.74,-8.45 11.06,-18.64 7.26,-30 -111.82,-339.85 -191,-682.02 -446.12,-946.72 -4.39,-4.64 -11.93,-5.22 -17.19,-1.16 -115.63,88.82 -239.06,211.42 -370.13,268.76 -263.54,115.05 -511.05,75.18 -742.88,-119.66 -2,-1.74 -5.22,-1.45 -6.68,0.55l-1068.15 1334.91c-4.68,6.16 -4.1,14.58 1.16,19.8l806.74 806.74 101.14 101.14 339.36 339.36c231.8,231.8 -96.08,562.91 -337.2,320.62 -151.91,-152.46 -303.63,-304.6 -455.22,-456.44l-100.76 -100.89c-217.25,-217.51 -434.25,-434.38 -651.12,-650.6 -3.74,-3.77 -10.45,-3.45 -14.22,0.87l-268.5 320.92c-3.48,4.06 -3.23,10.19 0.58,13.97l506.53 506.98 100.5 100.56c1009.09,1009.83 2012.32,2013.12 3009.73,3009.54 128.14,128.14 89.44,316.85 -69.28,393.42 -229.48,110.95 -401,298.21 -515.14,522.14 -81.57,159.88 -270.83,164.26 -389.65,45.44 -1139.2,-1138.1 -2262.56,-2261.69 -3370.64,-3370.77l-99.63 -99.73 -69.38 -69.44c-10.16,-10.19 -20.38,-9.9 -29.96,0.58l-181.39 195.26 -93.21 100.34c-4.97,5.52 -4.68,13.97 0.58,19.22l45.7 45.73c1451.89,1453.02 2920.39,2921.2 4405.37,4404.76 709.98,709.37 1923.39,203.55 1915.59,-803.45 -2.06,-283.34 -120.27,-571.91 -315.98,-767.91 -837.22,-838.38 -1702.37,-1704.14 -2595.51,-2596.99 -226.29,-226 105.69,-550.36 321.21,-335.2 872.15,872.21 1730.94,1730.68 2575.71,2575.48 635.7,635.41 646.22,1665.4 -13.38,2285.98 -311.92,293.24 -680.82,438.25 -1107.46,434.77 -461.02,-3.77 -839.25,-191.03 -1156.97,-509.34 -1502.04,-1504.66 -2967.13,-2970.61 -4394.89,-4398.08 -4.39,-4.39 -11.9,-4.39 -16.29,0 -197.16,201.23 -391.1,397.81 -582.16,589.42 -1389.61,1393.42 -2781,2785.38 -4174.15,4175.9 -305.47,305.18 -758.29,313.34 -1064.92,8.16 -405.39,-403.35 -798.22,-795 -1178.81,-1175.61 -131.33,-131.33 -209.09,-286.57 -233.54,-466.21l0 -136.88c22.71,-182.58 108.92,-348.88 258.86,-498.82 480.21,-480.21 956.04,-956.04 1426.93,-1426.96 53.86,-53.86 124.04,-71.02 210.26,-50.93 191.03,43.93 232.38,267.6 96.95,402.74 -414,413.74 -825.8,824.61 -1235.15,1232.77l-179.81 179.29c-21.32,21.25 -39.61,42.54 -54.96,63.8 -94.05,130.62 -74.92,261.54 57.28,392.52 356.75,353.81 745.78,741.72 1166.58,1163.68 107.76,108.01 277.5,106.27 389.65,-5.55 1361.87,-1360.23 2738.87,-2737.42 4131.29,-4131.58l236.22 -236.51 23 -23.06c784.48,-787.23 1527.62,-1612.03 2207.93,-2444.92 447.89,-548.36 896.92,-1108.04 1347.13,-1679.11 4.35,-5.22 4.1,-13.09 -0.9,-18.03l-994.74 -994.74c-6.71,-6.74 -17.19,-7.32 -24.45,-1.48 -524.49,418.45 -1063.5,850.6 -1616.48,1296.76 -789.48,636.57 -1653.76,1411.77 -2483.43,2237.31 -697.43,694.27 -1422.54,1419.64 -2174.74,2176.51 -69.28,69.57 -126.66,109.21 -172.39,118.21 -221.32,44.57 -385.84,-217.84 -216.64,-388.19 884.95,-891.08 1751.29,-1755.68 2599.28,-2593.74 4.1,-4.1 4.1,-11.09 0,-15.16 -236.45,-237.93 -469.7,-470.89 -699.76,-699.18 -175.87,-174.75 -412.06,-241.7 -660.47,-221.06 -1530.88,128.46 -2866.92,-926.62 -3137.45,-2417.28 -103.37,-570.2 -37.86,-1135.46 197.16,-1695.72 39.9,-95.21 86.79,-157.81 140.36,-187.52 93.18,-51.25 204.42,-29.45 277.83,43.35 663.05,660.5 1319.14,1316.3 1968.84,1967.42 5.81,5.81 14.26,8.16 22.13,6.13l723.66 -193.94c7.26,-2.06 12.22,-7 14.26,-14.26l192.19 -718.46c3.48,-13.06 0.58,-24.13 -9,-33.74 -621.48,-619.41 -1274.92,-1272.6 -1960.71,-1958.97 -84.73,-84.44 -100.47,-216.96 -23.9,-312.17 31.48,-39.28 83.6,-74.28 156.68,-105.4 2051.82,-871.31 4269.11,675.28 4124.07,2902.17 -18.32,282.76 30.58,504.92 231.8,707.05 278.08,279.53 555.33,557.36 832.28,833.15 3.48,3.45 9,3.77 12.8,0.55l1343.33 -1074.82c8.74,-7 10.48,-15.42 5.55,-25.64 -141.56,-279.24 -115.01,-540.17 79.79,-782.77 269.63,-336.3 521.53,-651.41 755.94,-944.94 78.08,-97.56 57.38,-210.84 -29.7,-296.44 -65.22,-64.38 -123.46,-122.01 -174.71,-173.26 -67.25,-67.31 -143.27,-84.18 -227.99,-50.67 -148.85,58.51 -295.02,120.24 -438.57,185.16 -179.68,81.28 -326.14,130.17 -439.15,146.49 -338.4,48.93 -620.25,-82.7 -852.92,-323.82 -74.54,-77.18 -148.52,-151.14 -222.16,-222.19 -146.81,-141.23 -94.08,-332.85 83.86,-408.87 453.96,-193.9 912.91,-390.48 1376.48,-589.68 593.48,-255.12 1251.92,-133.4 1709.4,320.04 312.5,309.53 615.93,612.09 910.3,907.95 128.43,129.33 80.99,342.49 -96.66,392 -149.39,41.93 -227.74,-58.54 -320.62,-150.56 -235.83,-234.74 -464.73,-465.05 -686.34,-690.73 -153.46,-156.43 -277.54,-260.09 -372.46,-311.05 -211.45,-114.14 -433.35,-155.81 -666.02,-124.91 -106.56,13.97 -263.54,66.67 -470.6,158.43 -311.85,138.04 -611.54,266.44 -898.66,385.26 -9.9,4.06 -11.32,10.16 -4.06,18.06 168.91,186.07 371.87,230.32 608.93,132.49 119.95,-49.51 241.7,-101.92 364.84,-156.97 166.84,-74.83 283.66,-119.11 350.91,-132.78 241.7,-50.09 451.96,24.74 628.45,194.52 87.95,84.18 160.75,159.62 218.13,226 162.78,187.55 203.26,408.26 122.01,662.5 -21.87,68.41 -72.25,151.1 -151.14,248.64 -251.02,309.59 -496.24,615.61 -735.91,918.2 -90.53,114.47 -40.44,217.51 54.18,312.17 497.95,498.82 1002.32,1002.03 1513.11,1510.2 126.98,126.4 232.09,58.8 354.68,-39.32 381.2,-304.89 762.07,-609.48 1143.01,-914.37 179.36,-143.56 287.66,-221.32 317.11,-426.67 27.09,-186.9 -44.83,-329.33 -177.62,-460.34 -222.22,-218.74 -448.22,-444.41 -678.24,-677.37 -216.64,-219.87 105.98,-553.88 351.46,-306.37 239.7,241.44 467.12,469.15 681.73,682.92 365.75,364.3 388.48,905.37 69.92,1306.62 -7.29,9.06 -6.13,16.9 3.19,23.61 100.47,73.67 202.97,128.69 306.92,164.52 170.36,58.83 341.59,116.46 513.4,172.97 10.77,3.48 20.09,1.16 27.96,-6.68 61.73,-61.47 126.66,-126.4 194.81,-195.13 67.28,-67.86 144.75,-91.44 231.83,-70.47 44.54,10.77 101.92,51.83 172.68,123.21 116.21,117.34 235.25,236.45 357.88,357.3 172.68,170.33 273.15,378.26 301.11,623.48zm-1409.48 7057.1c0,377.39 -305.76,683.18 -683.15,683.18 -377.39,0 -683.15,-305.79 -683.15,-683.18 0,-377.42 305.76,-683.18 683.15,-683.18 377.39,0 683.15,305.76 683.15,683.18zm-464.73 0c0,-120.59 -97.56,-218.13 -218.09,-218.13 -120.59,0 -218.16,97.53 -218.16,218.13 0,120.56 97.56,218.09 218.16,218.09 120.53,0 218.09,-97.53 218.09,-218.09zm-10384.14 -11788.65c-5.84,1.74 -7.58,9.06 -3.19,13.42 628.7,628.7 1230.35,1230.64 1805.45,1805.77 70.76,70.73 92.92,155.23 67.02,253.35 -86.82,325.85 -174.16,651.73 -262.41,977.87 -25.35,94.02 -87.92,154.91 -188.13,182 -296.14,80.08 -605.13,163.04 -926.91,248.38 -109.18,29.16 -202.06,36.7 -283.02,-44.25 -601.35,-601.35 -1207.06,-1207.06 -1817.12,-1817.12 -4.68,-4.68 -12.84,-2.64 -14.61,3.77 -150.23,510.5 -148.49,1005.54 4.97,1485.76 324.98,1014.54 1237.35,1704.11 2306.94,1728.59 100.76,2.35 203.55,-0.55 308.11,-8.45 365.46,-27.93 719.88,102.5 979.03,358.49 235.61,232.67 470.86,467.41 705.88,704.43 5.52,5.52 14.55,5.52 20.06,0.29l299.37 -276.66c8.48,-7.84 8.48,-15.71 0.32,-23.54 -162.2,-161.62 -324.4,-323.56 -486.92,-486.34 -121.43,-122.01 -192.48,-252.76 -212.55,-392.26 -77.76,-539.01 445.22,-968.87 957.49,-736.46 83.57,38.16 177,110.05 280.41,216.06 182,187.26 348.01,353.26 497.4,497.95 3.74,3.55 9.29,3.81 13.09,0.61l318.27 -265.89c7.26,-6.13 7.58,-12.22 0.9,-18.9 -243.19,-243.19 -506.72,-507.01 -791.19,-792.1 -253.67,-253.93 -392.9,-595.22 -375.13,-955.2 7.58,-152.81 18.06,-308.08 7.32,-461.83 -72.21,-1027.96 -754.23,-1885.88 -1735.01,-2195.7 -477.31,-150.56 -969.16,-151.39 -1475.85,-2.03zm9714.95 5157.57c2.03,7.29 11.35,9.58 16.58,4.39l877.98 -878.28c5.81,-5.84 3.23,-15.74 -4.64,-18.09 -304.01,-86.76 -575.74,-194.81 -813.93,-397.48 -6.42,-5.55 -16,-5.81 -22.71,-0.29l-491.6 394c-10.74,9.03 -11.64,18.64 -2.29,29.12 229.45,256.25 347.39,534.4 440.61,866.63zm1643.54 -966.23l-1717.23 1717.23c-4.84,4.87 -6.16,11.64 -4.03,17.58 0.84,2.29 2.16,4.45 4.03,6.32l96.92 96.92 159.36 159.33c200.06,200.06 525.95,198.9 727.43,-2.9l1007.38 -1007.42 3.39 -3.39c59.89,-59.8 102.08,-130.49 126.62,-205.64 58.15,-178.1 16.96,-381.07 -123.72,-521.75l-256.25 -256.28c-6.68,-6.71 -17.16,-6.71 -23.9,0zm-7679.68 819.48c5.52,-4.97 5.84,-13.45 0.58,-18.64l-0.58 -0.58c-186.45,-186.52 -366.55,-366.26 -539.88,-539.91 -215.51,-216.06 -526.85,96.08 -309.01,311.27 172.68,170.68 344.81,342.78 516.04,516.3 8.74,8.81 17.77,9.06 27.09,0.9l305.76 -269.34zm2136.84 2117.36c-3.19,-3.23 -8.71,-3.23 -11.64,0.26l-275.47 312.76c-4.93,5.84 -4.93,14.26 0.58,19.8l217 217 99.95 99.95 3040.95 3040.95c9.64,9.61 18.64,9.03 26.8,-1.71 83.31,-108.63 177.07,-202.13 281.31,-280.76 10.77,-8.45 11.35,-17.45 1.74,-27.06l-2923.42 -2923.39 -100.27 -100.27 -357.52 -357.52z"/>
  </g>
 </g>
</svg>
