<?xml version="1.0" encoding="UTF-8"?>
<!DOCTYPE svg PUBLIC "-//W3C//DTD SVG 1.1//EN" "http://www.w3.org/Graphics/SVG/1.1/DTD/svg11.dtd">
<!-- Creator: CorelDRAW -->
<svg xmlns="http://www.w3.org/2000/svg" xml:space="preserve" width="38.5176mm" height="46.228mm" version="1.1" style="shape-rendering:geometricPrecision; text-rendering:geometricPrecision; image-rendering:optimizeQuality; fill-rule:evenodd; clip-rule:evenodd"
viewBox="0 0 3052.26 3663.26"
 xmlns:xlink="http://www.w3.org/1999/xlink"
 xmlns:xodm="http://www.corel.com/coreldraw/odm/2003">
 <defs>
  <style type="text/css">
   <![CDATA[
    .fil0 {fill:black;fill-rule:nonzero}
   ]]>
  </style>
 </defs>
 <g id="Camada_x0020_1">
  <metadata id="CorelCorpID_0Corel-Layer"/>
  <path class="fil0" d="M609.02 3109.98c-89.14,-276.48 -78.83,-545.18 30.9,-806.17 15.11,-35.94 37.01,-82.18 65.78,-138.59 55.26,-108.44 106.84,-210.55 154.76,-306.24 40.68,-81.5 134.01,-124.01 223.68,-110.81 23.43,3.44 63.11,19.61 118.98,48.54 72.34,37.47 151.71,77.53 238.17,120.28 2.6,1.29 4.5,0.68 5.79,-1.92 26.32,-52.5 52.13,-103.86 77.39,-154.06 17.16,-34.11 44.26,-45.72 81.35,-34.73 2.59,0.84 4.49,0 5.71,-2.43l392.33 -780.24c1.13,-2.21 1.06,-4.49 -0.16,-6.71 -47.08,-83.03 -91.42,-161.02 -133.01,-233.89 -39.61,-69.38 -51.52,-142.95 -35.64,-220.55 5.64,-27.78 24.8,-73.34 57.39,-136.76 44.65,-86.84 84.62,-165.52 119.81,-236.04 16.02,-32.2 48.69,-63.26 80.67,-81.19 67.14,-37.55 137.35,-37.93 210.54,-1.14 209.18,105.16 406.14,204.22 590.74,297.16 31.59,15.87 62.27,41.9 81.12,71.5 46.33,72.73 49.15,148.59 8.47,227.5 -38.92,75.55 -78.52,154.61 -118.82,237.25 -24.5,50.29 -47.93,87.75 -70.44,112.49 -49.3,54.26 -112.79,86.45 -190.48,96.76 -90.58,11.99 -179.03,22.74 -265.41,32.28 -3.21,0.37 -5.49,1.98 -6.95,4.81l-393.93 783.35c-0.77,1.46 -0.24,3.29 1.22,4.11 30.75,18.79 38.69,52.59 22.73,84.18 -29.53,58.38 -55.55,110.43 -78.21,156.07 -1.22,2.51 -0.61,4.34 1.83,5.56 93.86,47.24 190.1,95.54 288.62,145.08 90.27,45.32 139.73,136.13 121.18,235.72 -4.27,22.82 -19.61,59.45 -45.95,109.82 -20.67,39.46 -40.21,78.14 -58.6,116.08 -1.37,2.9 -0.46,4.57 2.67,5.03 9.84,1.37 19.54,2.66 29,3.89 230,30.15 482.6,175.83 520.83,424.15 0.38,2.52 1.98,4.66 4.35,5.73 164.6,76.23 298.53,219.78 304.72,403.77 1.37,41.52 -18.85,73.57 -64.48,73.57 -974.3,0.08 -1948.51,0.08 -2922.81,0.08 -39.07,0 -66.09,-27.85 -64.87,-66.55 5.8,-186.51 131.95,-326.47 292.74,-404.84 96.15,-46.94 200.4,-72.5 312.65,-76.77 3.43,-0.08 4.66,-1.84 3.59,-5.12zm1861.58 -2315.27l-300.6 -151.18c-67.6,-34.03 -94.78,-116.38 -60.74,-183.92l41.67 -82.56c34.03,-67.4 116.23,-94.56 183.69,-60.6l300.6 151.16c67.62,34.04 94.78,116.38 60.74,183.93l-41.67 82.56c-34.03,67.4 -116.22,94.55 -183.69,60.6zm115.89 -197.09c4,-7.89 0.79,-17.44 -7.08,-21.42l-298.75 -150.25c-7.87,-3.96 -17.48,-0.75 -21.41,7.08l-40.52 80.58c-4,7.88 -0.8,17.43 7.08,21.41l298.75 150.26c7.86,3.96 17.47,0.74 21.4,-7.09l40.53 -80.57zm144.72 254.78c47.02,-92.2 93.33,-185.52 140.88,-278.25 12.27,-23.88 18.15,-44.27 17.7,-60.97 -1.13,-38.69 -23.96,-66.7 -57.61,-83.57 -194.98,-97.6 -387.9,-194.59 -578.77,-291.13 -62.27,-31.52 -112.79,-14.57 -143.69,47.46 -55.1,110.73 -101.27,202.7 -138.43,275.96 -18.55,36.4 -24.72,74.64 -18.7,114.86 3.44,22.97 16.41,53.88 38.92,92.57 43.19,74.4 84.4,146.74 123.55,217.03 1.53,2.66 3.73,4.8 6.49,6.18l177.58 89.36c3.36,1.68 6.95,2.29 10.68,1.75 80.58,-10.99 157.74,-20.37 231.53,-28.16 49.08,-5.25 84.55,-12.88 106.38,-23.04 37.32,-17.39 65.18,-44.1 83.49,-80.04zm-521.33 225.18c0.86,-1.66 0.18,-3.65 -1.49,-4.51l-103.09 -51.85c-1.62,-0.86 -3.68,-0.17 -4.5,1.5l-380.95 757.44c-0.86,1.66 -0.18,3.64 1.49,4.5l103.08 51.85c1.62,0.86 3.69,0.17 4.52,-1.49l380.95 -757.44zm-385.36 895.63l-212.69 -106.99c-1.67,-0.83 -3.58,-0.15 -4.42,1.45l-271.9 540.53c-30.75,61.29 -7.24,135.31 52.58,165.37l1.91 1c59.84,30.06 133.32,4.8 164.07,-56.41l271.9 -540.61c0.84,-1.59 0.16,-3.58 -1.45,-4.34zm5.5 276.02c-2.06,-1.06 -3.66,-0.54 -4.74,1.53 -47.31,92.11 -92.64,182.39 -136.07,270.84 -24.64,50.22 -44.79,84.48 -60.51,102.79 -88.82,103.48 -246.87,113.71 -348.67,21.67 -83.33,-75.4 -103.17,-193.53 -52.21,-294.95 53.04,-105.54 106.76,-212.31 161.11,-320.29 0.76,-1.67 0.14,-3.66 -1.53,-4.42 -91.57,-45.49 -184.53,-92.26 -278.77,-140.33 -40.22,-20.46 -78.62,-28.46 -117.45,2.66 -11.31,9.08 -22.06,24.04 -32.36,44.88 -51.21,103.86 -105.08,210.93 -161.55,321.36 -25.64,50.14 -46.48,96.68 -62.51,139.65 -114.93,308.45 -70.13,649.88 114.32,922.4 1.07,1.68 3.42,1.91 4.8,0.46 124.24,-130.27 303.81,-206.81 483.14,-241.15 169.87,-32.58 342.73,-31.29 518.47,3.74 2.07,0.38 3.67,-0.23 4.97,-1.83 47.16,-58.38 87.91,-121.8 122.18,-190.25 56.55,-112.72 115.77,-230.16 177.66,-352.41 18.92,-37.32 24.8,-74.64 -2.53,-110.89 -9.22,-12.29 -28.61,-25.72 -57.99,-40.3 -92.41,-45.86 -182.31,-90.88 -269.77,-135.15zm295.34 625.32c-40.3,88.37 -85.93,167.89 -137,238.48 -0.91,1.22 -0.3,2.97 1.16,3.43 42.81,14.5 82.87,31.06 120.26,49.76 3.2,1.6 6.49,1.76 9.85,0.46 152.17,-57.32 311.96,-67.93 479.33,-31.82 4.34,0.99 5.71,-0.61 3.97,-4.81 -28.92,-68.61 -86.69,-126.76 -151.49,-167.12 -91.11,-56.86 -197.5,-87.68 -319.07,-92.64 -2.97,-0.15 -5.78,1.52 -7.01,4.27zm-348.61 661.79c21.14,-119.51 97.37,-222.08 196.75,-290.98 3.42,-2.37 3.12,-4.2 -0.77,-5.65 -170.49,-60.59 -352.88,-78.6 -547.17,-53.96 -156.9,19.91 -316.16,74.03 -437.8,173.53 -62.8,51.44 -104.32,110.81 -124.47,178.12 -0.54,1.9 0.83,3.73 2.82,3.73l904.92 0c2.83,0 5.27,-2.06 5.73,-4.8zm-1112.27 -293.96c-1.91,-3.89 -5.88,-6.41 -10.31,-6.49 -205.51,-1.45 -462.46,85.01 -523.96,301.36 -0.53,1.99 0.92,3.89 2.98,3.89l601.42 0c2.37,0 3.66,-1.14 4.05,-3.43 5.95,-36.1 17.93,-72.04 36.02,-107.83 1.45,-2.97 1.22,-5.72 -0.77,-8.31 -41.81,-55.79 -78.29,-115.54 -109.43,-179.18zm1517.64 31.67c-124.54,42.28 -246.34,131.78 -281.59,264.58 -0.32,1.22 0.61,2.44 1.9,2.44l1016.72 0.07c2.06,0 3.58,-1.98 3.05,-3.96 -40.83,-147.82 -186.67,-241.15 -326.55,-277.18 -141.18,-36.32 -278.99,-31.67 -413.54,14.05z"/>
 </g>
</svg>
