<?xml version="1.0" encoding="UTF-8"?>
<!DOCTYPE svg PUBLIC "-//W3C//DTD SVG 1.1//EN" "http://www.w3.org/Graphics/SVG/1.1/DTD/svg11.dtd">
<!-- Creator: CorelDRAW -->
<svg xmlns="http://www.w3.org/2000/svg" xml:space="preserve" width="22px" height="22px" version="1.1" style="shape-rendering:geometricPrecision; text-rendering:geometricPrecision; image-rendering:optimizeQuality; fill-rule:evenodd; clip-rule:evenodd"
viewBox="0 0 7.15 7.15"
 xmlns:xlink="http://www.w3.org/1999/xlink"
 xmlns:xodm="http://www.corel.com/coreldraw/odm/2003">
 <defs>
  <style type="text/css">
   <![CDATA[
    .fil0 {fill:none}
    .fil1 {fill:black;fill-rule:nonzero}
   ]]>
  </style>
 </defs>
 <g id="Camada_x0020_1">
  <metadata id="CorelCorpID_0Corel-Layer"/>
  <rect class="fil0" width="7.15" height="7.15"/>
  <path class="fil1" d="M2.72 2.58c0,0 0,0 0,-0.01 0,-0.27 0,-0.54 0,-0.81 0,-0.77 0.36,-1.43 1.13,-1.67 0.18,-0.06 0.37,-0.09 0.57,-0.09 0.31,0 0.62,0 0.92,0 0.15,0 0.16,0.11 0.16,0.24 0,0.33 0,0.65 0,0.97 0,0.11 -0.06,0.17 -0.17,0.17 -0.27,0 -0.53,0 -0.76,0.01 -0.15,0 -0.25,0.06 -0.31,0.18 -0.02,0.04 -0.03,0.14 -0.03,0.3 0,0.24 0,0.47 0,0.68 0,0.01 0.01,0.01 0.01,0.01 0.34,0 0.68,0 1.01,0 0.13,0 0.22,0.03 0.22,0.18 0,0.38 0,0.75 0,1.11 0,0.14 -0.07,0.18 -0.2,0.18 -0.33,0 -0.68,0 -1.03,0 0,0 -0.01,0 -0.01,0 0,0.01 0,0.99 0,2.95 0,0.13 -0.08,0.17 -0.2,0.17 -0.41,0 -0.79,0 -1.13,0 -0.09,0 -0.14,-0.03 -0.16,-0.09 -0.01,-0.03 -0.02,-0.08 -0.02,-0.15 0,-0.96 0,-1.92 0,-2.87 0,0 0,0 -0.01,0 -0.3,0 -0.6,0 -0.9,-0.01 -0.11,0 -0.16,-0.05 -0.16,-0.17 0,-0.46 0,-0.83 0,-1.12 0,-0.11 0.06,-0.16 0.17,-0.16 0.3,0 0.6,0 0.9,0z"/>
 </g>
</svg>
