<?xml version="1.0" encoding="UTF-8"?>
<!DOCTYPE svg PUBLIC "-//W3C//DTD SVG 1.1//EN" "http://www.w3.org/Graphics/SVG/1.1/DTD/svg11.dtd">
<!-- Creator: CorelDRAW -->
<svg xmlns="http://www.w3.org/2000/svg" xml:space="preserve" width="171.651mm" height="214.002mm" version="1.1" style="shape-rendering:geometricPrecision; text-rendering:geometricPrecision; image-rendering:optimizeQuality; fill-rule:evenodd; clip-rule:evenodd"
viewBox="0 0 17150.85 21382.48"
 xmlns:xlink="http://www.w3.org/1999/xlink"
 xmlns:xodm="http://www.corel.com/coreldraw/odm/2003">
 <defs>
  <style type="text/css">
   <![CDATA[
    .fil0 {fill:#16A34A}
   ]]>
  </style>
 </defs>
 <g id="Camada_x0020_1">
  <metadata id="CorelCorpID_0Corel-Layer"/>
  <path class="fil0" d="M2256.18 19064.22c-462.23,-2298.46 -13.05,-14937.47 24.22,-16805.45 891.98,-157.47 1063.18,-206.55 2235.01,1079.23 3210.69,3523.02 2867.39,6481.37 4839.23,5719.86 405.98,-1058.66 -899.77,-2872.08 -1406.89,-3695.09l-2254.17 -3286.88 8637.78 -41.1c897.03,318.95 1015.14,16011.95 61.22,16893.9 -892.03,905.07 -2917.98,-2321.13 -3384.18,-3052.36 -1902.6,-2984.16 -1625.66,-4071.74 -3187.51,-3680.62 -483.31,1106.51 688.62,2679.07 1348.68,3700.06 413.88,640.18 706.41,1138.81 1112.54,1707.96 387.01,542.47 959.17,1177.4 1175.52,1664.63 -3463.12,113.95 -5770.12,71.16 -9201.46,-204.13zm14418.94 -19064.22l-16199.38 0c-261.65,0 -475.73,214.03 -475.73,475.73l0 20431.01c0,261.7 214.08,475.73 475.73,475.73l16199.38 0c261.65,0 475.73,-214.03 475.73,-475.73l0 -20431.01c0,-261.7 -214.08,-475.73 -475.73,-475.73z"/>
 </g>
</svg>
