<?xml version="1.0" encoding="UTF-8"?>
<!DOCTYPE svg PUBLIC "-//W3C//DTD SVG 1.1//EN" "http://www.w3.org/Graphics/SVG/1.1/DTD/svg11.dtd">
<!-- Creator: CorelDRAW -->
<svg xmlns="http://www.w3.org/2000/svg" xml:space="preserve" width="22px" height="22px" version="1.1" style="shape-rendering:geometricPrecision; text-rendering:geometricPrecision; image-rendering:optimizeQuality; fill-rule:evenodd; clip-rule:evenodd"
viewBox="0 0 4.33 4.33"
 xmlns:xlink="http://www.w3.org/1999/xlink"
 xmlns:xodm="http://www.corel.com/coreldraw/odm/2003">
 <defs>
  <style type="text/css">
   <![CDATA[
    .fil0 {fill:none}
    .fil1 {fill:#141414}
   ]]>
  </style>
 </defs>
 <g id="Camada_x0020_1">
  <metadata id="CorelCorpID_0Corel-Layer"/>
  <rect class="fil0" width="4.33" height="4.33"/>
  <path class="fil1" d="M3.25 0l-2.17 0c-0.59,0 -1.08,0.49 -1.08,1.08l0 2.17c0,0.6 0.49,1.08 1.08,1.08l2.17 0c0.6,0 1.08,-0.48 1.08,-1.08l0 -2.17c0,-0.59 -0.48,-1.08 -1.08,-1.08zm-1.08 3.07c-0.5,0 -0.91,-0.4 -0.91,-0.9 0,-0.5 0.41,-0.91 0.91,-0.91 0.5,0 0.9,0.41 0.9,0.91 0,0.5 -0.4,0.9 -0.9,0.9zm0.9 -2.08c0,0.15 0.12,0.27 0.27,0.27 0.15,0 0.27,-0.12 0.27,-0.27 0,-0.15 -0.12,-0.27 -0.27,-0.27 -0.15,0 -0.27,0.12 -0.27,0.27z"/>
 </g>
</svg>
