<?xml version="1.0" encoding="UTF-8"?>
<!DOCTYPE svg PUBLIC "-//W3C//DTD SVG 1.1//EN" "http://www.w3.org/Graphics/SVG/1.1/DTD/svg11.dtd">
<!-- Creator: CorelDRAW -->
<svg xmlns="http://www.w3.org/2000/svg" xml:space="preserve" width="118.118mm" height="106.829mm" version="1.1" style="shape-rendering:geometricPrecision; text-rendering:geometricPrecision; image-rendering:optimizeQuality; fill-rule:evenodd; clip-rule:evenodd"
viewBox="0 0 4580.47 4142.71"
 xmlns:xlink="http://www.w3.org/1999/xlink"
 xmlns:xodm="http://www.corel.com/coreldraw/odm/2003">
 <defs>
  <style type="text/css">
   <![CDATA[
    .fil1 {fill:none}
    .fil0 {fill:white;fill-rule:nonzero}
   ]]>
  </style>
   <clipPath id="id0">
    <path d="M2426.19 0l2154.28 0 0 3928.43 -2154.28 0 0 -3928.43zm0 0z"/>
   </clipPath>
 </defs>
 <g id="Camada_x0020_1">
  <metadata id="CorelCorpID_0Corel-Layer"/>
  <g>
  </g>
  <g style="clip-path:url(#id0)">
   <g id="_2740234388352">
    <path class="fil0" d="M3921.89 502.9l-437.66 252.8c-83.21,-60.39 -172.46,-111.95 -266.48,-153.93l0 -505.49c0,-52.91 -42.82,-95.73 -95.73,-95.73l-598.83 0c-52.87,0 -95.73,42.82 -95.73,95.73 0,52.87 42.85,95.73 95.73,95.73l503.06 0 0 473.33c0,39.35 24.01,74.66 60.55,89.13 119.23,46.99 230.38,111.19 330.56,190.9 30.77,24.57 73.51,27.83 107.5,7.99l409.84 -236.74 415.99 719.73 -410.51 237.22c-33.99,19.52 -52.51,57.92 -46.83,96.73 10.73,73.51 15.7,134.17 15.7,191.14 0,63.13 -5.68,128.49 -18.05,205.53 -6.2,38.76 11.97,77.44 45.8,97.44l407.73 241.47 -423.75 715.11 -407.8 -241.79c-33.91,-19.96 -76.68,-17.41 -107.89,7.07 -96.05,75.22 -203.19,136.52 -318.44,182.16 -36.49,14.55 -60.39,49.77 -60.39,89.01l0 473.12 -503.06 0c-52.87,0 -95.73,42.82 -95.73,95.73 0,52.91 42.85,95.73 95.73,95.73l598.79 0c52.91,0 95.73,-42.82 95.73,-95.73l0 -505.41c89.17,-39.88 173.77,-88.22 252.52,-144.35l435.28 257.93c21.87,13.04 48.02,16.81 72.51,10.33 24.57,-6.28 45.68,-22.1 58.68,-43.93l521.39 -879.82c12.92,-21.86 16.69,-47.94 10.33,-72.51 -6.28,-24.69 -22.1,-45.76 -43.97,-58.68l-435.2 -257.69c7.56,-60.71 11.21,-117 11.21,-170.83 0,-48.3 -3.02,-98.39 -9.3,-153.93l438.14 -253.12c22.02,-12.72 38.04,-33.67 44.6,-58.24 6.56,-24.45 3.1,-50.65 -9.58,-72.64l-511.84 -885.5c-26.32,-45.72 -84.84,-61.42 -130.6,-35.02zm0 0z"/>
   </g>
  </g>
  <path class="fil1" d="M2426.19 0l2154.28 0 0 3928.43 -2154.28 0 0 -3928.43zm0 0z"/>
  <path class="fil0" d="M2610.57 2487.39l-86.27 0c-52.91,0 -95.73,42.82 -95.73,95.73 0,52.91 42.82,95.73 95.73,95.73l86.27 0c395.6,0 717.5,-321.86 717.5,-717.42 0,-395.64 -321.9,-717.62 -717.5,-717.62l-87.38 0c-52.87,0 -95.73,42.85 -95.73,95.73 0,52.91 42.85,95.77 95.73,95.77l87.38 0c290.05,0 526,235.99 526,526.12 0,290.01 -235.95,525.96 -526,525.96zm0 0z"/>
  <path class="fil0" d="M1520.89 3914.28c0.08,0 0.08,0 0.12,0 164.83,0 324.52,-30.06 475.47,-88.69l293.19 289.46c18.64,18.49 42.94,27.67 67.23,27.67 24.65,0 49.38,-9.5 68.1,-28.51 37.21,-37.61 36.77,-98.19 -0.88,-135.4l-227.24 -224.38c4.73,-11.33 7.43,-23.85 7.43,-37.01l0 -2971.21c0,-52.91 -42.85,-95.73 -95.73,-95.73 -52.91,0 -95.77,42.82 -95.77,95.73l0 965.37 -517.61 -435.87c-40.43,-34.07 -100.78,-28.7 -134.93,11.68 -34.03,40.36 -28.82,100.74 11.61,134.85l626.66 527.63c4.37,3.62 9.54,5.49 14.27,8.23l0 583.57c-57.96,-98.63 -128.01,-191.26 -211.1,-274.43 -236.94,-236.78 -589.93,-420.33 -935.59,-498.92 12.64,-662.08 500.36,-1263.53 1223.02,-1502.35 50.21,-16.66 77.48,-70.72 60.91,-120.94 -16.66,-50.21 -70.84,-77.36 -120.97,-60.9 -789.85,260.95 -1326.94,919.81 -1354.34,1651.5 -53.79,-5.96 -106.9,-9.26 -158.66,-9.26 -148.08,0 -280.91,25.09 -394.76,74.86 -22.1,9.66 -39.84,27.35 -49.46,49.45 -213.56,490.18 78.64,1254.83 485.53,1661.36 259.48,259.4 601.61,402.24 963.5,402.24zm-1287.47 -1951.7c81.9,-29.73 176.79,-44.76 282.78,-44.76 385.34,0 869.09,203.82 1150.15,484.93 299.6,299.32 412.9,736.62 305.08,1129l-638.27 -630.24 -4.13 -457.42c-0.48,-52.79 -42.94,-93.94 -96.61,-94.86 -52.91,0.56 -95.33,43.73 -94.85,96.61l2.38 265.01 -307.42 -303.57c-37.61,-37.21 -98.28,-36.86 -135.41,0.87 -37.21,37.65 -36.77,98.2 0.87,135.41l466.49 460.64c3.97,4.81 8.43,9.18 13.36,13.12l167.13 165.02 -461.32 -45.2c-53.71,-5.25 -99.43,33.31 -104.59,85.87 -5.21,52.6 33.27,99.47 85.91,104.63l696.31 68.14 283.17 279.52c-104,31.29 -212.21,47.43 -323.4,47.43 -0.04,0 -0.04,0 -0.08,0 -310.81,0 -604.87,-122.88 -828.06,-346.19 -344.99,-344.56 -609.88,-998.92 -459.49,-1413.97zm0 0z"/>
 </g>
</svg>
