<?xml version="1.0" encoding="UTF-8"?>
<!DOCTYPE svg PUBLIC "-//W3C//DTD SVG 1.1//EN" "http://www.w3.org/Graphics/SVG/1.1/DTD/svg11.dtd">
<!-- Creator: CorelDRAW -->
<svg xmlns="http://www.w3.org/2000/svg" xml:space="preserve" width="22px" height="22px" version="1.1" style="shape-rendering:geometricPrecision; text-rendering:geometricPrecision; image-rendering:optimizeQuality; fill-rule:evenodd; clip-rule:evenodd"
viewBox="0 0 3.11 3.11"
 xmlns:xlink="http://www.w3.org/1999/xlink"
 xmlns:xodm="http://www.corel.com/coreldraw/odm/2003">
 <defs>
  <style type="text/css">
   <![CDATA[
    .fil0 {fill:none}
    .fil1 {fill:black;fill-rule:nonzero}
   ]]>
  </style>
 </defs>
 <g id="Camada_x0020_1">
  <metadata id="CorelCorpID_0Corel-Layer"/>
  <rect class="fil0" width="3.11" height="3.11"/>
  <path class="fil1" d="M1.72 1.32c0,0 0.01,0 0.01,0 0.11,-0.21 0.32,-0.32 0.55,-0.34 0.11,0 0.21,0.01 0.32,0.03 0.46,0.11 0.51,0.57 0.51,0.96 0,0.37 0,0.75 0,1.13 0,0 0,0 0,0l-0.64 0c0,0 -0.01,0 -0.01,0 0,-0.34 0,-0.67 0,-1 0,-0.25 0,-0.56 -0.34,-0.55 -0.33,0 -0.37,0.27 -0.37,0.53 0,0.33 0,0.68 0,1.03 0,0 -0.01,0 -0.01,0l-0.64 0c0,0 0,0 0,0l0 -2.07c0,-0.01 0,-0.01 0,-0.01l0.62 0c0,0 0,0 0,0.01 0,0.09 0,0.18 0,0.27 0,0.01 0,0.01 0,0.01zm-0.97 -0.95c0,0.21 -0.17,0.38 -0.38,0.38 -0.2,0 -0.37,-0.17 -0.37,-0.38 0,-0.2 0.17,-0.37 0.37,-0.37 0.21,0 0.38,0.17 0.38,0.37zm-0.05 0.67l0 2.07c0,0 -0.01,0 -0.01,0l-0.64 0c0,0 0,0 0,0l0 -2.07c0,-0.01 0,-0.01 0,-0.01l0.64 0c0,0 0.01,0 0.01,0.01z"/>
 </g>
</svg>
