<?xml version="1.0" encoding="UTF-8"?>
<!DOCTYPE svg PUBLIC "-//W3C//DTD SVG 1.1//EN" "http://www.w3.org/Graphics/SVG/1.1/DTD/svg11.dtd">
<!-- Creator: CorelDRAW -->
<svg xmlns="http://www.w3.org/2000/svg" xml:space="preserve" width="87.9632mm" height="107.445mm" version="1.1" style="shape-rendering:geometricPrecision; text-rendering:geometricPrecision; image-rendering:optimizeQuality; fill-rule:evenodd; clip-rule:evenodd"
viewBox="0 0 3982.61 4864.64"
 xmlns:xlink="http://www.w3.org/1999/xlink"
 xmlns:xodm="http://www.corel.com/coreldraw/odm/2003">
 <defs>
  <style type="text/css">
   <![CDATA[
    .fil1 {fill:none;fill-rule:nonzero}
    .fil0 {fill:white;fill-rule:nonzero}
   ]]>
  </style>
   <clipPath id="id0" style="clip-rule:nonzero">
    <path d="M-0 0l3982.61 0 0 4864.64 -3982.61 0 0 -4864.64zm0 0z"/>
   </clipPath>
 </defs>
 <g id="Camada_x0020_1">
  <metadata id="CorelCorpID_0Corel-Layer"/>
  <g>
  </g>
  <g style="clip-path:url(#id0)">
   <g id="_2740230615808">
    <path class="fil0" d="M3523.32 3740.64c-237.88,-95.06 -560.51,-166.4 -919.31,-204.18 464.16,-626.15 978.02,-1424.36 978.02,-1946.35 0,-876.79 -713.32,-1590.1 -1590.15,-1590.1 -876.79,0 -1590.1,713.32 -1590.1,1590.1 0,321.62 202.23,793.85 601.08,1403.66 122.35,187.01 252.73,371.28 379.08,542.46 -359.39,37.69 -682.55,109.03 -920.84,204.14 -379.63,151.5 -459.28,325.37 -459.28,444.57 0,441.51 1025.33,679.71 1990.07,679.71 964.8,0 1990.12,-238.21 1990.12,-679.71 0,-119.1 -79.56,-292.88 -458.68,-444.29zm-2969.54 -2150.53c0,-792.97 645.13,-1438.1 1438.1,-1438.1 793.01,0 1438.15,645.13 1438.15,1438.1 0,294.74 -191.23,736.71 -568.41,1313.65 -298.92,457.29 -646.06,894.34 -869.69,1173.25 -445.96,-557.26 -1438.15,-1823.76 -1438.15,-2486.91zm1378.82 2655.95c14.44,18.01 36.25,28.46 59.28,28.46 23.07,0 44.89,-10.45 59.32,-28.46l22.42 -27.94c48.64,-60.62 104.35,-130.05 165.01,-206.5 377.73,32.12 529.09,124.49 541.39,156 -6.22,14.99 -56.67,61.78 -219.27,104.11 -154.24,40.1 -356.24,62.24 -568.87,62.24 -212.58,0 -414.58,-22.14 -568.82,-62.24 -162.59,-42.33 -213.05,-89.12 -219.27,-104.11 12.3,-31.52 163.75,-123.93 541.86,-156.05 71.11,90.04 134.65,169.28 186.96,234.49zm1389.92 293.26c-354.34,111.77 -826.9,173.32 -1330.65,173.32 -503.7,0 -976.26,-61.55 -1330.6,-173.32 -317.76,-100.21 -507.46,-232.68 -507.46,-354.39 0,-193.74 498.18,-433.52 1334.5,-506.21 50.5,66.84 99.75,131.03 146.91,191.79 -228.65,28.55 -583.77,104.07 -583.77,297.11 0,251.29 591.15,318.37 940.47,318.37 349.28,0 940.42,-67.07 940.42,-318.37 0,-192.81 -354.38,-268.38 -582.84,-297.01 47.53,-60.9 97.01,-125.05 147.69,-191.74 835.25,72.87 1332.78,312.56 1332.78,506.07 0,121.71 -189.7,254.18 -507.46,354.39zm-521.02 -2951.01c0,-446.43 -363.2,-809.63 -809.63,-809.63 -446.38,0 -809.58,363.2 -809.58,809.63 0,446.37 363.2,809.58 809.58,809.58 446.43,0 809.63,-363.21 809.63,-809.58zm-809.63 657.57c-362.6,0 -657.57,-295.02 -657.57,-657.57 0,-362.6 295.02,-657.62 657.57,-657.62 362.6,0 657.57,295.02 657.57,657.62 0,362.55 -294.97,657.57 -657.57,657.57zm0 0z"/>
   </g>
  </g>
  <path class="fil1" d="M-0 0l3982.61 0 0 4864.64 -3982.61 0 0 -4864.64zm0 0z"/>
 </g>
</svg>
