<?xml version="1.0" encoding="UTF-8"?>
<!DOCTYPE svg PUBLIC "-//W3C//DTD SVG 1.1//EN" "http://www.w3.org/Graphics/SVG/1.1/DTD/svg11.dtd">
<!-- Creator: CorelDRAW -->
<svg xmlns="http://www.w3.org/2000/svg" xml:space="preserve" width="144.156mm" height="27.2314mm" version="1.1" style="shape-rendering:geometricPrecision; text-rendering:geometricPrecision; image-rendering:optimizeQuality; fill-rule:evenodd; clip-rule:evenodd"
viewBox="0 0 27499.53 5194.72"
 xmlns:xlink="http://www.w3.org/1999/xlink"
 xmlns:xodm="http://www.corel.com/coreldraw/odm/2003">
 <defs>
  <style type="text/css">
   <![CDATA[
    .fil1 {fill:#70AE6E}
    .fil0 {fill:#0A2E36;fill-rule:nonzero}
   ]]>
  </style>
 </defs>
 <g id="Camada_x0020_1">
  <metadata id="CorelCorpID_0Corel-Layer"/>
  <path class="fil0" d="M5790.99 618.07l609.01 0 2131.54 3006.99 0 -3006.99 685.12 0 0 4085.42 -609.01 0 -2125.17 -3000.63 0 3000.63 -691.48 0 0 -4085.42 -0.02 0zm5753.89 4148.89c-532.89,0 -938.89,-133.23 -1224.37,-393.33 -285.48,-260.09 -425.04,-653.42 -425.04,-1179.96 0,-494.82 126.88,-881.78 374.28,-1154.57 247.42,-272.79 621.71,-406.02 1110.18,-406.02 444.08,0 786.65,114.19 1021.36,348.92 234.73,234.71 355.26,545.56 355.26,932.54l0 558.27 -2201.3 0c31.72,285.48 139.56,488.47 310.85,596.32 171.29,114.19 444.08,171.29 818.37,171.29 152.25,0 310.85,-12.69 469.45,-44.41 158.58,-31.72 298.16,-69.78 418.69,-114.19l0 507.5c-266.44,120.54 -609.01,177.64 -1027.69,177.64l-0.02 0zm602.66 -1744.58l0 -209.34c0,-215.69 -57.1,-380.63 -177.62,-494.82 -120.54,-107.84 -310.85,-164.93 -570.95,-164.93 -310.85,0 -532.89,69.78 -653.42,202.99 -126.88,133.23 -190.32,355.26 -190.32,666.1l1592.29 0 0.02 0zm1154.57 -1325.84l691.46 0 520.19 2188.63 589.99 -1820.67 0 -367.94 526.54 0 653.42 2188.63 520.19 -2188.63 685.14 0 -786.65 3006.99 -653.42 0 -640.73 -1966.59 -653.42 1966.59 -659.75 0 -792.96 -3006.99 0 -0.02z"/>
  <path class="fil0" d="M19620.47 4766.96c-564.6,0 -1002.32,-133.23 -1313.19,-406.02 -310.85,-272.79 -463.09,-659.75 -463.09,-1173.59l0 -2569.26 691.48 0 0 2543.87c0,336.22 95.17,589.97 279.14,761.26 183.97,171.29 456.76,260.1 805.67,260.1 348.9,0 615.36,-88.82 799.33,-260.1 183.97,-171.29 279.12,-425.04 279.12,-761.26l0 -2543.87 685.14 0 0 2569.26c0,513.86 -152.27,900.82 -456.76,1173.59 -310.85,272.79 -742.24,406.02 -1306.82,406.02l-0.02 0zm2531.21 -3070.43l634.38 0 38.06 348.9c145.91,-95.15 317.2,-177.62 513.86,-253.75 196.66,-76.11 393.33,-126.88 589.99,-158.6l0 526.54c-183.97,31.72 -380.63,82.47 -589.99,152.27 -209.34,69.78 -374.28,145.89 -494.82,222.03l0 2169.6 -691.48 0 0 -3006.99zm3977.58 3070.43c-215.69,0 -406.02,-25.39 -564.62,-88.82 -158.58,-57.1 -310.85,-145.91 -450.41,-272.79l-38.06 298.16 -596.32 0 0 -4275.75 691.48 0 0 1465.44c260.1,-171.29 570.95,-260.1 945.25,-260.1 444.06,0 786.63,126.88 1027.69,374.29 234.73,253.75 355.26,640.73 355.26,1167.27 0,532.88 -120.52,932.54 -355.26,1192.63 -241.07,266.44 -577.28,399.67 -1015.01,399.67zm-183.95 -520.23c304.49,0 526.52,-88.82 659.75,-260.09 133.23,-171.29 196.66,-444.08 196.66,-812.02 0,-367.94 -69.78,-628.05 -202.99,-786.65 -139.58,-152.25 -361.61,-228.38 -666.12,-228.38 -310.85,0 -564.6,88.82 -761.26,260.1l0 1509.85c196.66,209.34 456.76,317.18 773.96,317.18z"/>
  <path class="fil1" d="M548.12 4631.54c-112.28,-558.4 -3.17,-3628.95 5.89,-4082.77 216.71,-38.27 258.29,-50.19 542.95,262.18 780.03,855.89 696.63,1574.61 1175.67,1389.61 98.62,-257.17 -218.59,-697.75 -341.79,-897.69l-547.64 -798.53 2098.5 -10c217.93,77.49 246.62,3890.01 14.86,4104.25 -216.71,219.87 -708.89,-563.91 -822.17,-741.55 -462.22,-724.99 -394.94,-989.22 -774.38,-894.18 -117.41,268.82 167.3,650.86 327.65,898.89 100.55,155.53 171.63,276.66 270.29,414.95 94.03,131.78 233.02,286.05 285.59,404.4 -841.36,27.7 -1401.8,17.3 -2235.45,-49.58l0.02 0.02zm3502.97 -4631.54l-3935.5 0c-63.58,0 -115.58,52 -115.58,115.58l0 4963.56c0,63.58 52,115.58 115.58,115.58l3935.5 0c63.58,0 115.58,-52 115.58,-115.58l0 -4963.56c0,-63.58 -52,-115.58 -115.58,-115.58z"/>
 </g>
</svg>
