<?xml version="1.0" encoding="UTF-8"?>
<!DOCTYPE svg PUBLIC "-//W3C//DTD SVG 1.1//EN" "http://www.w3.org/Graphics/SVG/1.1/DTD/svg11.dtd">
<!-- Creator: CorelDRAW -->
<svg xmlns="http://www.w3.org/2000/svg" xml:space="preserve" width="125.93mm" height="125.931mm" version="1.1" style="shape-rendering:geometricPrecision; text-rendering:geometricPrecision; image-rendering:optimizeQuality; fill-rule:evenodd; clip-rule:evenodd"
viewBox="0 0 48605.12 48605.16"
 xmlns:xlink="http://www.w3.org/1999/xlink"
 xmlns:xodm="http://www.corel.com/coreldraw/odm/2003">
 <defs>
  <style type="text/css">
   <![CDATA[
    .fil0 {fill:#212121}
   ]]>
  </style>
 </defs>
 <g id="Camada_x0020_1">
  <metadata id="CorelCorpID_0Corel-Layer"/>
  <path class="fil0" d="M26062.56 42712.59c-382.15,0 -711.88,-290.33 -751.33,-685.44 -39.41,-422.06 263.46,-791.2 685.48,-830.6 8028.21,-791.16 14422.07,-7184.64 15212.81,-15213.31 39.91,-421.52 409.05,-724.81 830.6,-685.4 422.02,39.41 725.31,408.55 685.44,830.56 -883.02,8753.56 -7843.64,15714.18 -16597.16,16584.19 -13.01,0 -39.41,0 -65.85,0zm-3519.99 0c-26.4,0 -52.38,0 -78.81,0 -8740.55,-857.04 -15714.18,-7830.63 -16571.18,-16571.18 -39.41,-421.55 263.89,-790.69 685.9,-830.14 421.55,-39.91 790.73,263.42 830.14,685.44 791.2,8028.21 7185.1,14422.11 15213.27,15212.85 422.02,39.87 724.89,408.55 685.44,830.56 -39.41,382.15 -369.14,672.47 -764.76,672.47zm-15885.24 -19405.27c-26.48,0 -52.88,0 -78.85,0 -422.02,-39.41 -725.31,-408.55 -685.9,-830.56 857,-8740.09 7830.63,-15714.18 16571.18,-16570.72 421.55,-39.87 790.69,263.38 830.56,685.44 39.45,421.55 -263.85,790.69 -685.86,830.6 -8028.21,790.73 -14421.65,7184.6 -15212.85,15212.81 -26.4,382.15 -356.17,672.43 -738.28,672.43zm35290.51 0c-382.15,0 -711.88,-290.29 -751.29,-685.4 -791.2,-8028.67 -7184.64,-14422.11 -15212.85,-15213.31 -422.02,-39.41 -725.35,-408.55 -685.9,-830.56 39.91,-421.59 409.05,-724.89 830.6,-685.48 8740.55,857.04 15714.14,7830.63 16571.18,16571.18 39.41,421.55 -263.89,790.69 -685.9,830.14 -12.97,13.43 -39.45,13.43 -65.85,13.43zm0 0z"/>
  <path class="fil0" d="M10994.41 26813.88l-8476.66 0c-1383.85,0 -2517.75,-1133.9 -2517.75,-2517.78 0,-1384.31 1133.9,-2518.25 2517.75,-2518.25l8476.66 0c1384.35,0 2518.25,1133.93 2518.25,2518.25 0,1384.35 -1133.9,2517.78 -2518.25,2517.78zm-8476.66 -3506.56c-553.71,0 -1001.7,447.99 -1001.7,1001.74 0,553.75 447.99,1002.2 1001.7,1002.2l8476.66 0c553.75,0 1002.2,-448.46 1002.2,-1002.2 0,-553.75 -448.46,-1001.74 -1002.2,-1001.74l-8476.66 0zm0 0z"/>
  <path class="fil0" d="M24309.07 13512.19c-1383.89,0 -2517.78,-1133.39 -2517.78,-2517.75l0 -8476.7c0,-1384.31 1133.9,-2517.75 2517.78,-2517.75 1384.31,0 2518.21,1133.43 2518.21,2517.75l0 8476.7c-13.43,1384.35 -1133.9,2517.75 -2518.21,2517.75zm0 -11983.14c-553.28,0 -1001.74,448.42 -1001.74,1002.17l0 8476.2c0,553.75 448.46,1002.2 1001.74,1002.2 553.75,0 1002.17,-448.46 1002.17,-1002.2l0 -8489.67c-13.43,-540.28 -461.42,-988.7 -1002.17,-988.7zm0 0z"/>
  <path class="fil0" d="M46087.38 26813.88l-8476.66 0c-1384.35,0 -2517.78,-1133.9 -2517.78,-2517.78 0,-1384.31 1133.43,-2518.25 2517.78,-2518.25l8476.66 0c1384.31,0 2517.75,1133.93 2517.75,2518.25 0,1384.35 -1133.43,2517.78 -2517.75,2517.78zm-8476.66 -3506.56c-553.75,0 -1001.74,447.99 -1001.74,1001.74 0,553.75 447.99,1002.2 1001.74,1002.2l8476.66 0c553.71,0 1001.7,-448.46 1001.7,-1002.2 0,-553.75 -447.99,-1001.74 -1001.7,-1001.74l-8476.66 0zm0 0z"/>
  <path class="fil0" d="M24309.07 48605.16c-1383.89,0 -2517.78,-1133.43 -2517.78,-2517.75l0 -8476.7c0,-1384.31 1133.9,-2517.75 2517.78,-2517.75 1384.31,0 2518.21,1133.43 2518.21,2517.75l0 8476.7c-13.43,1384.31 -1133.9,2517.75 -2518.21,2517.75zm0 -11996.19c-553.28,0 -1001.74,448.03 -1001.74,1001.74l0 8476.7c0,553.71 448.46,1001.7 1001.74,1001.7 553.75,0 1002.17,-447.99 1002.17,-1001.7l0 -8476.7c-13.43,-553.71 -461.42,-1001.74 -1002.17,-1001.74zm0 0z"/>
  <path class="fil0" d="M26062.56 38678.3c-382.15,0 -698.91,-276.39 -751.33,-659 -52.88,-421.55 236.98,-790.69 659.04,-843.57 5853.13,-751.29 10454.13,-5352.29 11205.42,-11205.46 52.88,-422.02 435.02,-711.84 843.57,-659 422.02,52.41 711.88,434.99 659.5,843.57 -830.6,6538.64 -5985.36,11679.89 -12510.92,12523.46 -39.45,0 -78.85,0 -105.29,0zm-3519.99 0c-26.4,0 -65.81,0 -92.28,0 -6538.57,-830.1 -11679.85,-5984.82 -12510.45,-12523.46 -52.88,-422.02 237.45,-791.16 659,-843.57 422.06,-52.84 791.2,236.98 844.07,659 751.29,5853.16 5352.25,10454.17 11205.42,11205.46 421.55,52.88 711.88,434.99 659,843.57 -52.88,382.61 -382.15,659 -764.76,659zm15371.44 -15370.98c-382.15,0 -698.87,-276.82 -751.29,-658.96 -751.75,-5853.63 -5352.29,-10454.17 -11205.46,-11205.92 -422.02,-52.41 -711.88,-435.02 -659.46,-843.57 52.88,-421.59 435.02,-711.88 844.03,-659 6538.64,830.56 11679.89,5984.86 12523.46,12510.45 52.88,422.02 -236.95,791.2 -659,843.57 -26.44,13.43 -52.88,13.43 -92.28,13.43zm-27222.89 0c-25.98,0 -65.85,0 -92.28,0 -421.55,-52.88 -711.88,-434.99 -659,-843.57 830.6,-6539.03 5985.32,-11680.31 12510.45,-12523.88 422.02,-52.88 791.2,237.41 844.03,659 52.45,422.02 -237.41,791.16 -659.43,843.57 -5853.2,751.75 -10453.71,5352.29 -11205.46,11205.92 -39.41,382.15 -369.14,658.96 -738.32,658.96zm0 0z"/>
  <path class="fil0" d="M29318.66 32785.73c-144.74,0 -276.89,-39.41 -408.62,-118.72l-4613.98 -2913.32 -4613.98 2913.32c-263.89,171.6 -606.59,158.13 -857,-26.4 -250.45,-184.61 -369.18,-500.87 -289.86,-804.2l1344.44 -5285.95 -4191.96 -3493.55c-237.45,-198 -329.73,-527.27 -237.45,-817.6 92.28,-289.86 356.17,-500.87 672.47,-527.31l5444.54 -355.71 2016.91 -5062.43c118.76,-289.86 395.62,-474.43 711.88,-474.43 316.3,0 593.16,184.57 711.88,474.43l2016.91 5062.43 5444.58 355.71c316.3,26.44 580.19,224.48 672.47,527.31 92.28,290.33 0,619.59 -237.49,817.6l-4191.92 3493.55 1344.44 5285.95c79.28,303.33 -39.41,619.59 -289.86,804.2 -132.16,92.28 -290.29,145.12 -448.42,145.12zm-11179.06 -9676.41l3097.93 2571.12c224.02,184.07 316.34,487.4 250.45,764.25l-988.73 3902.1 3414.7 -2148.61c250.42,-158.13 566.72,-158.13 804.13,0l3414.23 2148.61 -988.73 -3902.1c-65.85,-289.86 26.44,-580.19 250.45,-764.25l3097.93 -2571.12 -4020.82 -263.42c-289.86,-12.97 -553.75,-211.01 -659.04,-474.39l-1489.57 -3743.97 -1489.64 3743.97c-105.72,276.85 -369.14,461.42 -659.46,474.39l-4033.83 263.42zm0 0z"/>
 </g>
</svg>
