<?xml version="1.0" encoding="UTF-8"?>
<!DOCTYPE svg PUBLIC "-//W3C//DTD SVG 1.1//EN" "http://www.w3.org/Graphics/SVG/1.1/DTD/svg11.dtd">
<!-- Creator: CorelDRAW -->
<svg xmlns="http://www.w3.org/2000/svg" xml:space="preserve" width="133.099mm" height="121.09mm" version="1.1" style="shape-rendering:geometricPrecision; text-rendering:geometricPrecision; image-rendering:optimizeQuality; fill-rule:evenodd; clip-rule:evenodd"
viewBox="0 0 4577.92 4164.85"
 xmlns:xlink="http://www.w3.org/1999/xlink"
 xmlns:xodm="http://www.corel.com/coreldraw/odm/2003">
 <defs>
  <style type="text/css">
   <![CDATA[
    .fil0 {fill:black;fill-rule:nonzero}
   ]]>
  </style>
 </defs>
 <g id="Camada_x0020_1">
  <metadata id="CorelCorpID_0Corel-Layer"/>
  <path class="fil0" d="M3992.12 1016.32c-113.93,0 -220.04,33.19 -310.08,89.68l-285.11 -394.97c84.85,-74.59 139.58,-182.61 139.58,-304.21 0,-224.31 -182.6,-406.83 -407.07,-406.83 -224.43,0 -407.03,182.52 -407.03,406.83 0,162.79 96.75,302.49 235.26,367.48l-113.26 318.63 -504.75 -216.28c22.01,-62.28 33.8,-127.35 33.8,-194.31 0,-322.86 -262.78,-585.52 -585.8,-585.52 -323.02,0 -585.81,262.66 -585.81,585.52 0,80.1 16.26,156.44 45.5,226.03l-496.16 247.4c-72.03,-114.81 -198.82,-191.91 -344.11,-191.91 -224.47,0 -407.08,182.52 -407.08,406.84 0,224.35 182.61,406.83 407.08,406.83 14.1,0 27.44,-2.76 41.14,-4.15l95.12 474.67c-248.96,67.43 -432.92,294.66 -432.92,564.55 0,322.86 262.78,585.52 585.72,585.52 165.59,0 315.03,-69.35 421.66,-180.09l367.6 309.24c-45.46,65.64 -72.47,145.01 -72.47,230.74 0,224.31 182.65,406.84 407.08,406.84 224.43,0 406.99,-182.52 406.99,-406.84 0,-152.76 -85.65,-284.51 -210.49,-354.06l160.47 -368.24c88.72,33.76 184.52,53.09 284.95,53.09 443.67,0 804.64,-360.81 804.64,-804.32 0,-99.07 -18.86,-193.59 -51.77,-281.31l267.1 -114.77c85.61,151.68 236.81,261.14 414.86,290.46l-44.18 452.89c-0.2,0 -0.4,-0.08 -0.64,-0.08 -224.43,0 -407.03,182.48 -407.03,406.84 0,224.31 182.61,406.87 407.03,406.87 224.43,0 406.99,-182.56 406.99,-406.87 0,-197.67 -141.86,-362.49 -329.1,-398.96l44.22 -453.13c6.07,0.2 11.98,0.92 18.06,0.92 323.02,0 585.8,-262.66 585.8,-585.52 0,-322.82 -262.78,-585.48 -585.8,-585.48zm-331.17 2289.44c33.24,-38.11 82.41,-73.14 115.05,-79.78 31.4,-6.23 55.33,-28.6 62.32,-57.68 2.31,-9.23 2.8,-21.49 3.56,-45.38 0.36,-12.34 -5.15,-24.17 -14.94,-31.76 -20.45,-15.98 -38.35,-41.67 -47.9,-68.83 -3.32,-9.43 -9.99,-16.94 -18.34,-21.41 -0.2,-1.2 -0.44,-2.47 -0.68,-3.67 6.75,-7.27 10.78,-17.1 10.78,-27.45 -0.16,-44.58 -0.24,-83.13 16.14,-99.59 10.74,-10.79 32.4,-16.26 65.51,-16.3 32,0.04 53.65,5.51 64.44,16.3 16.34,16.45 16.26,55.01 16.14,100.51 0,10.35 4,19.85 10.67,26.89 -0.16,1.08 -0.36,2.24 -0.52,3.31 -8.43,4.44 -15.1,11.95 -18.42,21.41 -9.55,27.16 -27.44,52.85 -47.9,68.83 -9.79,7.59 -15.14,22.41 -14.86,34.76 0.68,20.89 1.16,33.16 3.43,41.91 7.19,29.64 31.12,51.97 62.28,58.16 32.72,6.63 81.85,41.67 115.21,79.78 -54.01,38.67 -119.64,62.04 -190.99,62.04 -71.35,0 -136.98,-23.33 -190.99,-62.04zm520.37 -267.25c0,82.01 -31.24,156.24 -81.05,213.93 -40.1,-44.78 -103.03,-91.45 -159.35,-102.27 -0.4,-2.64 -0.68,-6.47 -0.84,-11.26 21.13,-20.42 39.11,-46.38 51.45,-74.63 14.3,-10.38 25.09,-28.72 29.32,-52.29 3.71,-22.77 -0.36,-43.42 -10.23,-58.01 -0.16,-53.29 -3.27,-102.86 -38.79,-138.5 -26.16,-26.25 -65.15,-39.07 -120.64,-39.15 -54.01,0.08 -93.04,12.9 -119.21,39.15 -35.35,35.51 -38.63,84.81 -38.79,138.46 -9.91,14.7 -13.94,35.47 -10.07,58.68 4.15,23.21 14.86,41.43 29.16,51.81 12.34,28.04 30.16,53.85 51.25,74.18 -0.48,4.71 -1.24,8.71 -2.76,11.35 -54.45,11.02 -117.13,57.65 -157.19,102.47 -49.86,-57.73 -81.1,-131.91 -81.1,-213.93 0,-181.56 147.81,-329.3 329.46,-329.3 181.65,0 329.37,147.73 329.37,329.3zm-1076.8 -2578.94c-20.45,-15.98 -38.35,-41.79 -47.94,-68.95 -3.36,-9.43 -10.03,-16.86 -18.34,-21.34 -0.24,-1.2 -0.48,-2.51 -0.72,-3.71 6.75,-7.27 10.79,-17.06 10.79,-27.4 -0.16,-44.62 -0.24,-83.17 16.14,-99.59 10.74,-10.79 32.43,-16.3 65.55,-16.34 32.04,0.04 53.69,5.55 64.48,16.34 16.34,16.42 16.26,54.97 16.14,100.51 0,10.27 4,19.77 10.67,26.8 -0.24,1.08 -0.36,2.32 -0.6,3.36 -8.43,4.47 -15.06,11.98 -18.41,21.45 -9.55,27.12 -27.44,52.89 -47.9,68.87 -9.63,7.55 -15.14,19.21 -14.82,31.52 0.6,24.65 1.2,36.35 3.39,45.1 7.19,29.52 31.08,51.82 62.28,58.17 32.72,6.55 81.89,41.62 115.17,79.73 -53.97,38.67 -119.6,62.04 -190.95,62.04 -71.31,0 -136.94,-23.37 -190.95,-62.04 33.28,-38.11 82.49,-73.19 115.25,-79.73 31.16,-6.35 55.01,-28.65 62.24,-58.13 2.2,-8.79 2.8,-20.49 3.4,-45.14 0.32,-12.3 -5.23,-23.97 -14.86,-31.52zm-304.53 -52.73c0,-181.56 147.85,-329.29 329.45,-329.29 181.65,0 329.45,147.73 329.45,329.29 0,82.05 -31.24,156.24 -81.09,213.96 -40.19,-44.86 -103.15,-91.52 -159.31,-102.03 -0.44,-2.76 -0.68,-6.79 -0.92,-11.54 21.14,-20.41 39.11,-46.38 51.45,-74.59 14.34,-10.43 25.09,-28.72 29.32,-52.09 3.8,-22.97 -0.24,-43.62 -10.15,-58.29 -0.16,-53.25 -3.27,-102.75 -38.79,-138.42 -26.16,-26.28 -65.15,-39.07 -120.64,-39.15 -54.09,0.08 -93.12,12.86 -119.24,39.15 -35.4,35.51 -38.67,84.77 -38.83,138.46 -9.91,14.66 -13.94,35.52 -10.07,58.69 4.19,23.21 14.94,41.47 29.24,51.81 12.38,28 30.16,53.85 51.17,74.14 -0.48,4.76 -1.24,8.83 -2.68,11.35 -54.37,10.95 -117.09,57.6 -157.24,102.51 -49.86,-57.72 -81.13,-131.91 -81.13,-213.96zm230.74 393.33c31.8,7.99 64.51,13.5 98.71,13.5 74.94,0 144.29,-21.73 204.66,-57.21l284.79 394.53c-67.11,55.61 -121.12,126.12 -158.15,206.06l-544.94 -233.5 114.93 -323.38zm-568.79 680.08c-443.62,0 -804.6,360.77 -804.6,804.24 0,66.59 9.03,130.99 24.37,192.91l-437.35 130.79c-46.74,-124.84 -134.71,-229.3 -247.56,-297.14l559.07 -1091.23c71.15,30.76 149.45,48.02 231.78,48.02 221.51,0 420.93,-125.04 520.56,-320.26l510.14 218.6 -123.92 348.59c-73.67,-22.25 -151.65,-34.52 -232.5,-34.52zm-723.02 -704.81c-33.04,-25.89 -61.96,-67.35 -77.26,-110.9 -4.28,-12.1 -14.02,-20.97 -25.77,-24.37 -1.36,-2.8 -2.96,-7.03 -4.04,-12.58 -0.96,-6.15 -0.92,-10.91 -0.52,-14.06 10.39,-7.47 16.98,-20.17 16.98,-33.39 -0.16,-59.84 -0.32,-111.5 17.26,-144.3 11.55,-21.57 35.72,-46.38 122.92,-46.54 85.53,0.16 109.7,24.97 121.25,46.54 17.58,32.8 17.42,84.45 17.26,145.93 0,13.22 6.59,25.09 16.97,32.16 0.4,3.08 0.44,7.51 -0.44,12.99 -1.08,5.99 -2.76,10.42 -4.12,13.26 -11.74,3.39 -21.49,12.27 -25.77,24.37 -15.3,43.54 -44.22,85.01 -77.26,110.9 -9.71,7.59 -15.26,20.42 -14.86,32.68 0.76,30.64 1.44,49.98 4.47,61.84 8.95,36.83 38.87,64.6 77.98,72.39 56.41,11.38 144.21,74.62 195.31,139.74 -87.45,68.07 -195.91,108.18 -311.64,108.18 -117.61,0 -225.75,-40.51 -311.96,-107.78 51.05,-65.28 139.1,-128.75 195.59,-140.14 39.15,-7.79 69.07,-35.56 78.02,-72.15 3.03,-12.1 3.71,-31.44 4.55,-63.16 0.32,-12.3 -5.23,-24.01 -14.94,-31.6zm48.74 -601.02c280.19,0 508.22,227.87 508.22,507.94 0,69.47 -13.78,136.86 -40.99,200.18 -24.01,55.81 -58,104.78 -98.15,147.37 -63.76,-79.3 -163.39,-148.65 -237.53,-163.59 -3.48,-0.72 -15.22,-3.87 -17.82,-14.58 -1.11,-5.6 -1.6,-16.02 -1.87,-28.17 33.56,-30.56 61.88,-71.23 80.46,-115.49 19.33,-11.86 34.23,-36.07 40.03,-67.99 5.27,-32.16 -0.84,-60 -15.38,-77.58 0,-60.72 -2.08,-117.61 -26.41,-163.19 -31.44,-58.76 -93.4,-87.41 -191.55,-87.57 -96.15,0.16 -158.12,28.81 -189.56,87.57 -24.17,45.26 -26.32,101.75 -26.36,163.23 -14.58,17.62 -20.61,45.66 -15.34,78.22 5.79,31.48 20.61,55.53 39.95,67.36 18.58,44.22 46.9,84.93 80.46,115.45 -0.28,11.9 -0.76,22.49 -1.8,28.04 -2.68,10.83 -14.42,13.98 -17.98,14.7 -74.14,14.98 -173.93,84.45 -237.69,163.87 -85.85,-91 -138.9,-213.2 -138.9,-347.83 0,-280.08 228.02,-507.94 508.22,-507.94zm-1710.07 1196.3c0,-181.57 147.85,-329.3 329.5,-329.3 181.6,0 329.37,147.73 329.37,329.3 0,82.01 -31.24,156.2 -81.06,213.92 -40.15,-44.82 -103.06,-91.44 -159.31,-102.03 -0.44,-2.76 -0.68,-6.75 -0.88,-11.55 21.21,-20.37 39.07,-46.38 51.49,-74.58 14.26,-10.47 25.01,-28.76 29.28,-52.25 3.75,-23.33 -0.24,-44.03 -10.19,-58.53 -0.52,-79.3 -9.98,-176.93 -159.47,-177.17 -69.87,0.12 -115.25,21.61 -138.75,65.72 -17.21,32.16 -19.09,70.51 -19.25,111.97 -9.86,14.66 -13.94,35.47 -10.06,58.65 4.15,23.17 14.82,41.34 29.16,51.77 12.34,27.96 30.16,53.85 51.22,74.18 -0.44,4.76 -1.2,8.83 -2.72,11.31 -54.41,10.99 -117.09,57.69 -157.24,102.51 -49.81,-57.68 -81.09,-131.87 -81.09,-213.92zm138.5 267.29c33.28,-38.15 82.41,-73.23 115.05,-79.82 31.28,-6.27 55.25,-28.52 62.44,-58.13 2.19,-9.03 2.63,-21.17 3.39,-44.98 0.4,-12.34 -5.16,-24.09 -14.9,-31.72 -20.45,-15.98 -38.35,-41.71 -47.9,-68.79 -3.35,-9.47 -9.98,-16.94 -18.34,-21.41 -0.24,-1.2 -0.44,-2.51 -0.68,-3.75 6.75,-7.27 10.74,-17.06 10.74,-27.41 -0.08,-36.99 -0.24,-71.95 10.07,-91.28 3.67,-6.67 13.14,-24.53 71.63,-24.64 77.9,0.16 80.78,22.25 80.61,116.89 0,10.23 4.03,19.69 10.71,26.77 -0.24,1.12 -0.48,2.31 -0.64,3.43 -8.39,4.44 -15.06,11.95 -18.41,21.41 -9.55,27.12 -27.41,52.85 -47.86,68.75 -9.71,7.63 -15.26,20.22 -14.86,32.6 0.6,21.97 1.12,34.84 3.4,44.1 7.19,29.6 31.08,51.89 62.28,58.17 32.72,6.59 81.9,41.67 115.21,79.78 -54.01,38.67 -119.64,62.04 -190.95,62.04 -71.35,0 -136.98,-23.37 -190.99,-62zm308.24 120.29c167.02,-50.69 289.7,-204.26 289.7,-387.58 0,-51.42 -10.59,-100.23 -28.08,-145.57l496.63 -247.64c49.78,84.81 120.21,155.8 204.46,206.45l-559.07 1091.18c-71.15,-30.76 -149.49,-48.02 -231.82,-48.02 -26.08,0 -51.53,2.32 -76.74,5.63l-95.08 -474.46zm-336.32 1054.31c0,-280.08 227.94,-507.9 508.14,-507.9 280.2,0 508.22,227.82 508.22,507.9 0,134.63 -53.05,256.87 -138.9,347.87 -63.75,-79.46 -163.55,-148.88 -237.69,-163.87 -3.6,-0.72 -15.34,-3.84 -17.9,-14.62 -1.16,-5.59 -1.6,-15.98 -1.88,-28.16 33.56,-30.56 61.96,-71.19 80.46,-115.45 19.34,-11.91 34.24,-36.11 39.99,-68.03 5.23,-32.08 -0.8,-59.92 -15.38,-77.5 0,-60.76 -2.04,-117.65 -26.36,-163.27 -31.44,-58.73 -93.4,-87.37 -191.55,-87.53 -96.16,0.16 -158.12,28.8 -189.59,87.53 -24.17,45.3 -26.28,101.79 -26.37,163.31 -14.54,17.66 -20.61,45.62 -15.3,78.14 5.75,31.48 20.61,55.53 39.95,67.39 18.57,44.22 46.9,84.89 80.45,115.41 -0.28,11.95 -0.76,22.49 -1.8,28.08 -2.68,10.87 -14.42,13.98 -17.98,14.7 -74.14,14.98 -173.93,84.37 -237.69,163.83 -85.81,-91 -138.82,-213.2 -138.82,-347.83zm196.18 400.12c51.06,-65.24 139.1,-128.68 195.63,-140.06 39.19,-7.87 69.03,-35.64 77.98,-72.19 3.04,-12.11 3.72,-31.48 4.56,-63.16 0.28,-12.3 -5.23,-24.01 -14.94,-31.64 -33.04,-25.84 -61.96,-67.27 -77.26,-110.86 -4.27,-12.1 -14.02,-20.93 -25.77,-24.37 -1.4,-2.75 -2.96,-7.03 -4.03,-12.58 -1,-6.16 -0.92,-10.91 -0.52,-14.06 10.39,-7.51 16.97,-20.17 16.97,-33.4 -0.16,-59.84 -0.32,-111.5 17.26,-144.29 11.5,-21.57 35.71,-46.38 122.92,-46.54 85.53,0.16 109.7,24.97 121.24,46.54 17.58,32.8 17.42,84.45 17.26,145.93 0,13.18 6.59,25.09 16.98,32.12 0.36,3.08 0.44,7.51 -0.44,13.02 -1.08,6 -2.76,10.43 -4.2,13.26 -11.66,3.44 -21.45,12.27 -25.68,24.37 -15.3,43.59 -44.27,85.01 -77.3,110.86 -9.67,7.63 -15.22,20.42 -14.82,32.68 0.76,30.64 1.44,50.01 4.47,61.84 8.91,36.83 38.79,64.6 77.94,72.47 56.52,11.38 144.61,74.82 195.67,140.06 -86.21,67.31 -194.35,107.82 -311.96,107.82 -117.65,0 -225.75,-40.51 -311.95,-107.82zm1244.83 812.55c33.28,-38.15 82.41,-73.19 115.05,-79.78 31.4,-6.23 55.33,-28.6 62.32,-57.68 2.32,-9.23 2.8,-21.49 3.55,-45.38 0.36,-12.34 -5.15,-24.17 -14.94,-31.76 -20.45,-15.94 -38.35,-41.67 -47.89,-68.83 -3.32,-9.47 -9.99,-16.94 -18.34,-21.41 -0.2,-1.2 -0.44,-2.48 -0.68,-3.68 6.75,-7.27 10.74,-17.1 10.74,-27.44 -0.12,-44.58 -0.2,-83.13 16.18,-99.59 10.75,-10.79 32.4,-16.3 65.52,-16.3 32,0 53.65,5.51 64.4,16.3 16.38,16.46 16.3,55.01 16.18,100.51 0,10.31 4,19.81 10.67,26.85 -0.16,1.12 -0.4,2.28 -0.6,3.36 -8.35,4.47 -15.02,11.95 -18.34,21.41 -9.55,27.17 -27.45,52.89 -47.9,68.83 -9.79,7.59 -15.14,22.41 -14.86,34.75 0.68,20.89 1.16,33.16 3.35,41.74 7.11,29.72 31.04,52.09 62.36,58.33 32.68,6.59 81.86,41.63 115.21,79.78 -54.01,38.67 -119.64,62.04 -190.99,62.04 -71.35,0 -136.98,-23.37 -190.99,-62.04zm520.37 -267.25c0,82.01 -31.24,156.24 -81.05,213.96 -40.15,-44.86 -103.11,-91.52 -159.35,-102.31 -0.4,-2.63 -0.68,-6.47 -0.84,-11.26 21.13,-20.42 39.11,-46.38 51.45,-74.5 14.3,-10.43 25.09,-28.76 29.24,-52.21 3.79,-22.97 -0.24,-43.62 -10.15,-58.29 -0.16,-53.25 -3.27,-102.79 -38.79,-138.42 -26.16,-26.28 -65.2,-39.07 -120.64,-39.15 -54.01,0.08 -93.04,12.86 -119.21,39.15 -35.35,35.51 -38.63,84.81 -38.79,138.46 -9.91,14.7 -13.94,35.47 -10.07,58.68 4.15,23.21 14.86,41.43 29.24,51.82 12.27,28.04 30.08,53.85 51.13,74.18 -0.44,4.71 -1.2,8.67 -2.72,11.34 -54.45,10.94 -117.09,57.65 -157.2,102.47 -49.86,-57.69 -81.1,-131.91 -81.1,-213.93 0,-181.56 147.81,-329.3 329.46,-329.3 181.64,0 329.37,147.73 329.37,329.3zm-203.94 -385.02c-39.75,-12.99 -81.41,-21.81 -125.43,-21.81 -110.78,0 -211.13,44.74 -284.63,116.73l-367.72 -309.32c71.51,-97.08 114.29,-216.48 114.29,-345.99 0,-44.78 -5.51,-88.24 -15.1,-130.19l437.11 -130.71c70.11,198.14 215.48,360.45 401.96,452.98l-160.47 368.32zm56.45 -526.32c1.56,-1.44 3.52,-2.2 4.83,-3.95 73.46,-98.08 203.3,-192.03 289.23,-209.37 48.86,-9.74 86.13,-44.18 97.28,-89.68 3.71,-14.94 4.63,-40.47 5.91,-84.93 0.32,-12.34 -5.23,-24.13 -14.94,-31.72 -48.54,-37.91 -90.92,-98.59 -113.25,-162.31 -4.96,-13.94 -17.22,-23.65 -31.4,-25.57 -3.31,-4.52 -8.39,-14.54 -11.02,-28.84 -2.44,-15.02 -0.92,-26.32 0.72,-31.68 13.22,-6.83 22.05,-21.65 22.05,-36.91 -0.2,-85.97 -0.36,-160.16 26.01,-209.61 16.74,-31.4 53.97,-73.19 185.88,-73.38 129.36,0.2 166.63,41.94 183.36,73.31 26.45,49.37 26.21,123.52 26.09,211.69 0,15.26 8.83,28.76 22.09,35.11 1.6,5.39 3.12,16.5 0.68,30.88 -2.63,14.82 -7.79,24.89 -11.02,29.44 -14.18,1.92 -26.45,11.63 -31.4,25.57 -22.33,63.71 -64.72,124.4 -113.26,162.31 -9.71,7.59 -15.26,19.3 -14.94,31.6 1.12,42.7 2.12,69.71 5.91,84.89 11.15,45.66 48.42,80.1 97.15,89.84 85.89,17.34 215.8,111.29 289.35,209.37 1.32,1.72 3.12,2.68 4.63,4.11 -125.4,102.63 -285.51,164.39 -459.89,164.39 -174.41,0 -334.61,-61.8 -460.04,-164.55zm976.62 -51.49c-85.01,-112.61 -232.02,-217 -335.45,-237.89 -19.18,-3.79 -33.04,-15.86 -37.07,-32.28 -1.52,-6.71 -2.48,-29.32 -3.08,-49.62 48.94,-42.82 90.09,-101.59 115.97,-165.67 25.33,-13.1 45.43,-44.54 52.97,-86.85 7.15,-42.95 -1.52,-79.46 -21.65,-100.11 0.08,-85.33 -2.04,-165.27 -35.15,-227.3 -41.06,-76.7 -123.36,-114.09 -254.55,-114.34 -128.35,0.24 -210.73,37.63 -251.71,114.45 -32.88,61.64 -35.16,140.94 -35.16,227.23 -20.01,20.69 -28.64,57.33 -21.57,100.71 7.63,41.87 27.64,73.1 52.93,86.21 25.93,64.08 67.08,122.84 116.01,165.63 -0.68,20.29 -1.56,43.06 -3.07,49.77 -4.03,16.3 -17.9,28.37 -37.24,32.16 -103.38,20.89 -250.35,125.28 -335.29,237.89 -129.99,-131.35 -210.48,-311.76 -210.48,-510.7 0,-400.68 326.14,-726.7 727.02,-726.7 400.92,0 727.06,326.02 727.06,726.7 0,198.94 -80.5,379.35 -210.49,510.7zm205.53 -863.2c-86.32,-175.93 -234.41,-316.11 -416.58,-391.13l122.32 -344.08 542.62 232.54c-16.86,54.53 -26.01,112.45 -26.01,172.5 0,76.54 15.18,149.49 42.03,216.56l-264.38 113.61zm496.16 69.95c50.98,-65.23 139.06,-128.67 195.67,-140.1 39.19,-7.87 69.03,-35.64 77.98,-72.43 2.95,-12.07 3.71,-31.8 4.55,-62.92 0.32,-12.31 -5.23,-24.01 -14.94,-31.6 -33.04,-25.89 -61.96,-67.31 -77.26,-110.9 -4.28,-12.07 -14.02,-20.97 -25.77,-24.37 -1.36,-2.76 -3.03,-7.03 -4.03,-12.7 -0.96,-6.03 -0.92,-10.79 -0.52,-13.91 10.31,-7.47 16.9,-20.05 16.9,-33.24 -0.16,-59.88 -0.32,-111.61 17.26,-144.41 11.55,-21.65 35.71,-46.46 123,-46.58 85.53,0.12 109.7,24.93 121.24,46.58 17.58,32.8 17.42,84.53 17.26,145.85 0,13.18 6.59,25.09 16.98,32.12 0.32,3.08 0.4,7.55 -0.52,13.14 -1.08,5.96 -2.72,10.35 -4.12,13.15 -11.74,3.44 -21.49,12.3 -25.77,24.37 -15.3,43.58 -44.22,85.01 -77.26,110.9 -9.71,7.59 -15.26,19.3 -14.94,31.6 0.84,31.12 1.6,50.85 4.55,62.92 8.95,36.79 38.79,64.56 77.98,72.43 56.61,11.43 144.7,74.86 195.67,140.06 -86.21,67.35 -194.35,107.86 -312,107.86 -117.61,0 -225.75,-40.51 -311.92,-107.82zm681.28 -52.29c-63.76,-79.46 -163.51,-148.89 -237.73,-163.83 -3.56,-0.72 -15.3,-3.87 -17.9,-14.38 -1.04,-5.67 -1.52,-16.34 -1.87,-28.4 33.56,-30.52 61.88,-71.19 80.45,-115.41 19.42,-11.87 34.32,-36.11 40.03,-67.95 5.36,-32.2 -0.68,-60.08 -15.3,-77.7 0,-60.68 -2.08,-117.57 -26.4,-163.11 -31.44,-58.8 -93.4,-87.49 -191.63,-87.65 -96.15,0.16 -158.12,28.84 -189.55,87.65 -24.17,45.26 -26.28,101.79 -26.37,163.15 -14.58,17.66 -20.62,45.66 -15.26,78.1 5.71,31.6 20.53,55.69 39.95,67.55 18.57,44.18 46.9,84.85 80.46,115.37 -0.36,12.02 -0.76,22.65 -1.8,28.05 -2.68,10.87 -14.42,14.02 -17.97,14.74 -74.22,14.94 -173.98,84.41 -237.73,163.83 -85.81,-91.01 -138.86,-213.21 -138.86,-347.83 0,-280.08 227.94,-507.94 508.15,-507.94 280.19,0 508.22,227.87 508.22,507.94 0,134.59 -53.05,256.83 -138.86,347.83zm0 0z"/>
 </g>
</svg>
