<?xml version="1.0" encoding="UTF-8"?>
<!DOCTYPE svg PUBLIC "-//W3C//DTD SVG 1.1//EN" "http://www.w3.org/Graphics/SVG/1.1/DTD/svg11.dtd">
<!-- Creator: CorelDRAW -->
<svg xmlns="http://www.w3.org/2000/svg" xml:space="preserve" width="107.431mm" height="121.455mm" version="1.1" style="shape-rendering:geometricPrecision; text-rendering:geometricPrecision; image-rendering:optimizeQuality; fill-rule:evenodd; clip-rule:evenodd"
viewBox="0 0 13276.37 15009.42"
 xmlns:xlink="http://www.w3.org/1999/xlink"
 xmlns:xodm="http://www.corel.com/coreldraw/odm/2003">
 <defs>
  <style type="text/css">
   <![CDATA[
    .fil1 {fill:none}
    .fil0 {fill:black;fill-rule:nonzero}
    .fil2 {fill:black;fill-rule:nonzero}
   ]]>
  </style>
   <clipPath id="id0">
    <path d="M4597.73 13192.43l1433.05 0 0 1816.99 -1433.05 0 0 -1816.99zm0 0z"/>
   </clipPath>
   <clipPath id="id1">
    <path d="M7316.84 11649.15l1433.04 0 0 3360.27 -1433.04 0 0 -3360.27zm0 0z"/>
   </clipPath>
   <clipPath id="id2">
    <path d="M10035.94 9297.48l1433.05 0 0 5711.94 -1433.05 0 0 -5711.94zm0 0z"/>
   </clipPath>
 </defs>
 <g id="Camada_x0020_1">
  <metadata id="CorelCorpID_0Corel-Layer"/>
  <g>
  </g>
  <g style="clip-path:url(#id0)">
   <g id="_2740728586256">
    <path class="fil0" d="M5841.73 15009.85c94.3,0 170.81,-76.79 170.81,-170.66l0 -1466.06c0,-94.16 -76.51,-170.52 -170.81,-170.52l-1045.35 0c-94.3,0 -170.8,76.36 -170.8,170.52l0 1466.06c0,93.87 76.5,170.66 170.8,170.66l1045.35 0zm-874.4 -1466.2l704.04 0 0 1125.02 -704.04 0 0 -1125.02zm0 0z"/>
   </g>
  </g>
  <path class="fil1" d="M4597.73 13192.43l1433.05 0 0 1816.99 -1433.05 0 0 -1816.99zm0 0z"/>
  <g>
  </g>
  <g style="clip-path:url(#id1)">
   <g id="_2740728586736">
    <path class="fil0" d="M8558.12 15009.85c93.86,0 170.8,-76.79 170.8,-170.66l0 -2986.8c0,-94.16 -76.94,-170.52 -170.8,-170.52l-1045.8 0c-93.86,0 -170.66,76.36 -170.66,170.52l0 2986.8c0,93.87 76.81,170.66 170.66,170.66l1045.8 0zm-874.7 -2986.94l704.32 0 0 2645.76 -704.32 0 0 -2645.76zm0 0z"/>
   </g>
  </g>
  <path class="fil1" d="M7316.84 11649.15l1433.04 0 0 3360.27 -1433.04 0 0 -3360.27zm0 0z"/>
  <g>
  </g>
  <g style="clip-path:url(#id2)">
   <g id="_2740728590192">
    <path class="fil0" d="M11274.22 15009.85c93.86,0 170.65,-76.79 170.65,-170.66l0 -5347.65c0,-94.16 -76.79,-170.52 -170.65,-170.52l-1045.8 0c-93.87,0 -170.81,76.36 -170.81,170.52l0 5347.65c0,93.87 76.94,170.66 170.81,170.66l1045.8 0zm-874.7 -5347.8l704.32 0 0 5006.62 -704.32 0 0 -5006.62zm0 0z"/>
   </g>
  </g>
  <path class="fil1" d="M10035.94 9297.48l1433.05 0 0 5711.94 -1433.05 0 0 -5711.94zm0 0z"/>
  <path class="fil2" d="M1833.13 10564.03c28.99,20.11 62.14,28.99 94.87,28.99 44.34,0 88.84,-17.36 121.86,-50.8 246.88,-251.47 576.43,-395.73 928.37,-405.91 1005.88,-30.72 1801.07,-842.27 1810.25,-1847.14 0.72,-93.87 -74.78,-171.25 -169.08,-172.38 -104.77,1.43 -171.37,74.77 -172.38,168.93 -7.46,821.44 -657.53,1484.57 -1478.97,1509.41 -267.42,7.45 -524.19,77.79 -753.99,201.23 27.42,-259.21 -6.45,-522.6 -100.62,-772.92 -289.94,-768.5 76.08,-1621.37 833.35,-1941.02 86.7,-36.73 127.32,-136.78 90.86,-223.33 -36.59,-86.98 -137.21,-126.6 -223.62,-91.14 -926.65,391.55 -1374.62,1435.48 -1019.81,2376.63 124.16,329.13 115.98,688.68 -22.96,1011.34 -32.44,74.35 -6.46,162.33 61.86,208.12zm0 0z"/>
  <path class="fil0" d="M300.76 6849.22c622.07,-710.49 1656.67,-864.79 2454.14,-371.46l2503.66 1675.18c765.47,553.03 1016.08,1567.84 595.82,2412.37 -36.47,73.36 -15.36,162.77 49.94,211.58 30.29,23.1 66.46,35.16 102.77,35.16 41.2,0 82.25,-15.36 114.69,-44.79 883.6,-802.64 1494.75,-1840.24 1767.47,-3001.43 134.21,-571.41 27.42,-1165.93 -289.51,-1655.52 773.08,-1024.27 1324.4,-2209.43 1611.18,-3489.17 187.46,-839.96 96.02,-1734.32 -258.79,-2518.59 -25.98,-59 -84.69,-97.89 -149.57,-100.2 -860.62,-29.99 -1723.84,227.08 -2429.17,720.41 -1075.78,751.82 -1962.26,1712.78 -2616.33,2816.28 -573.57,-106.08 -1164.64,22.1 -1641.6,363.57 -970.72,693.84 -1698.58,1653.79 -2105.21,2775.66 -28,77.23 3.02,163.48 73.78,205.11 72.06,42.19 162.47,28.28 216.73,-34.17zm7256.36 838.53c-203.52,866.8 -606.72,1660.11 -1179.99,2328.41 101.48,-733.74 -167.93,-1481.12 -740.49,-1990.81 654.52,-470.37 1237.99,-1017.08 1739.49,-1629.12 218.17,391.29 285.06,849.72 181,1291.52zm-986.8 -6684.95c612.61,-428.02 1354.1,-660.68 2102.48,-660.68 4.18,0 7.9,0 12.06,0 288.79,692.84 357.41,1471.51 193.19,2204.97 -477.96,2140.52 -1730.73,4001.3 -3525.19,5258.94l-2307.74 -1543.86c481.12,-2136.35 1726.56,-4001.58 3525.19,-5259.36zm-4254.78 3177.84c369.04,-263.67 819.45,-376.92 1264.25,-324.67 -375.49,695.84 -659.53,1443.23 -845.28,2227.08 -688.38,-334.87 -1482.55,-300.13 -2124.44,74.06 400.46,-783.56 981.34,-1458.59 1705.47,-1976.47zm0 0z"/>
  <path class="fil0" d="M12587.26 1985.29c-12.63,-56.7 -53.25,-103.05 -107.79,-122.86 -54.7,-20.38 -115.41,-10.62 -162.2,24.54l-2465.49 1876.56c-49.52,37.46 -74.78,99.61 -65.16,161.33 9.19,61.72 51.82,113.24 110.67,134.78l1155.02 420.84c-1500.65,3968.28 -4642.03,7060.86 -8641.89,8501.38 -88.71,32.01 -134.79,129.9 -102.78,218.6l184.44 510.98c15.36,42.05 47.08,77.51 87.7,95.89 22.83,10.9 47.8,16.78 72.78,16.78 19.38,0 39.19,-3.44 57.69,-9.9 4247.33,-1529.64 7582.33,-4815.57 9172.7,-9030.72l1157.16 421.26c20.81,7.18 40.63,9.48 62.01,10.2 81.96,6.17 174.25,-75.36 174.25,-170.52 0,-29.71 -7.18,-57.7 -20.95,-81.96l-668.16 -2977.18zm-746.94 2419.12c-88.13,-32.43 -186.16,13.36 -218.89,102.05 -1511.85,4142.83 -4737.93,7387.84 -8866.81,8927.38l-68.33 -190.03c4071.92,-1519.02 7254.64,-4719.97 8745.67,-8806.67 32.72,-88.29 -13.35,-186.17 -101.47,-218.61l-1023.55 -372.89 2005.89 -1526.49 550.73 2457.45 -1023.24 -372.2zm0 0z"/>
 </g>
</svg>
