<?xml version="1.0" encoding="UTF-8"?>
<!DOCTYPE svg PUBLIC "-//W3C//DTD SVG 1.1//EN" "http://www.w3.org/Graphics/SVG/1.1/DTD/svg11.dtd">
<!-- Creator: CorelDRAW -->
<svg xmlns="http://www.w3.org/2000/svg" xml:space="preserve" width="133.064mm" height="77.8777mm" version="1.1" style="shape-rendering:geometricPrecision; text-rendering:geometricPrecision; image-rendering:optimizeQuality; fill-rule:evenodd; clip-rule:evenodd"
viewBox="0 0 2580.93 1510.52"
 xmlns:xlink="http://www.w3.org/1999/xlink"
 xmlns:xodm="http://www.corel.com/coreldraw/odm/2003">
 <defs>
  <style type="text/css">
   <![CDATA[
    .fil1 {fill:#A8518A;fill-rule:nonzero}
    .fil0 {fill:#100F0D;fill-rule:nonzero}
   ]]>
  </style>
 </defs>
 <g id="Camada_x0020_1">
  <metadata id="CorelCorpID_0Corel-Layer"/>
  <path class="fil0" d="M1164.06 1236.15c42.62,1.83 75.87,37.78 74.03,80.38 -0.9,21.54 -10.77,41.92 -27.51,55.89l-85.47 70.53c-33.25,26.81 -81.82,21.54 -108.65,-11.67 -26.36,-32.53 -21.76,-80.4 10.32,-107.41l85.49 -70.56c12.59,-10.07 27.96,-16.04 44,-16.94 2.75,-0.23 5.27,-0.23 7.8,-0.23zm-160.2 -133.32c42.62,-2.28 79.07,30.26 81.35,72.86 1.38,24.26 -8.92,47.85 -27.73,63.44l-129.02 106.49c-32.78,27.26 -81.59,22.46 -108.88,-10.3 -27.03,-32.98 -22.46,-81.78 10.54,-108.79l129.04 -106.51c12.59,-10.32 28.18,-16.49 44.7,-17.19zm-129.74 -152.54c42.64,-2.05 78.85,30.71 81.15,73.31 1.15,24.51 -9.39,47.87 -28.18,63.44l-164.79 136.05c-33.23,27.03 -81.82,21.99 -108.88,-11.22 -26.58,-32.76 -21.99,-80.63 10.32,-107.89l165.02 -136.05c12.84,-10.54 28.66,-16.72 45.37,-17.64zm-210.61 -86.35c2.52,0 5.27,0 7.79,0 42.62,1.85 75.85,37.8 74.03,80.4 -0.93,21.76 -10.99,42.15 -27.73,56.12l-91.22 75.13c-33.93,26.11 -82.52,19.91 -108.4,-13.99 -24.98,-32.06 -20.64,-78.1 10.07,-105.11l91.22 -75.36c12.62,-10.32 28.21,-16.26 44.47,-17.19l-0.22 0zm517.74 -531.14c23.16,0 46.29,1.6 69.45,4.82 -57.31,35.48 -118.05,65.04 -181.53,87.72 -40.1,14.42 -60.96,58.84 -46.29,98.94 8.49,23.36 27.51,41.23 51.56,48.1 118.05,33.43 244.32,22.21 354.79,-31.16l500.77 406.31c30.95,25.88 35.08,72.16 9.17,103.07 -24.29,29.11 -66.91,34.83 -98.09,13.29l-374.5 -269.12c-10.54,-7.1 -24.73,-4.57 -32.08,5.72 -7.1,10.07 -4.82,24.06 5.27,31.61l361.66 259.5c33.93,25.88 40.57,74.21 14.67,108.34 -24.98,32.53 -71.05,40.08 -104.96,17.19l-341.5 -245.08c-10.09,-7.32 -24.53,-5.05 -31.85,5.27 -7.34,10.3 -4.82,24.51 5.27,31.83l301.38 216.45c35.3,23.81 44.47,71.91 20.41,107.19 -23.84,35.28 -71.98,44.42 -107.28,20.61 -1.15,-0.93 -2.27,-1.6 -3.42,-2.52l-283.29 -203.38c-10.77,-6.87 -24.98,-3.67 -31.63,7.1 -6.42,9.85 -4.35,22.69 4.82,30.01l216.81 155.76c30.03,23.11 35.53,66.19 12.37,96.2 -21.99,28.38 -62.34,35.03 -92.36,15.12l-111.15 -79.7c32.55,-59.79 10.54,-134.45 -49.04,-166.98 -27.51,-15.12 -59.59,-19.01 -89.84,-11.22 7.8,-67.34 -40.57,-128.5 -108.18,-136.29 -8.24,-1.13 -16.74,-1.13 -24.98,-0.45 16.27,-65.96 -23.83,-132.62 -89.84,-149.11 -37.82,-9.37 -77.92,-0.22 -108.18,24.74l-8.24 6.87c-0.7,-68.01 -56.39,-122.53 -124.47,-121.61 -27.96,0.23 -55.21,10.07 -76.78,27.94l-78.82 65.06 -71.98 -52.69 299.78 -493.12c98.78,2.28 197.34,-0.92 295.66,-9.87 47.44,-14.64 96.96,-22.44 146.45,-22.44zm227.35 -9.4c15.36,0.7 30.73,3.67 45.39,8.95l224.15 79.93 170.96 -62.54 285.81 457.41 -148.75 136.27c-7.1,-12.14 -16.27,-22.66 -27.28,-31.61l-524.16 -425.33c-105.66,60.01 -231.03,74.9 -347.9,41.7 -16.74,-4.59 -26.36,-22.01 -21.78,-38.73 2.75,-9.85 10.09,-17.64 19.71,-21.06 81.15,-29.08 158.15,-68.71 229.43,-117.73 27.51,-19.01 60.74,-28.63 94.41,-27.26zm702.01 -249.88l407.28 651.62 -273.42 170.87 -407.51 -651.87 273.65 -170.63zm-1618.54 -10.77l275.49 167.2 -429.74 707.06 -275.49 -167.43 429.74 -706.84zm-15.37 -62.76l-476.71 784.94 353.87 214.83 62.11 -102.37 62.58 45.8c-40.35,54.74 -28.43,131.7 26.36,172 25.43,18.56 56.84,26.81 88.24,22.91 -14.21,66.43 28.41,131.7 94.86,145.66 22.94,5.05 46.99,3.22 69.01,-5.02 -4.12,67.79 47.67,125.98 115.5,129.85 29.11,1.85 57.54,-6.62 80.92,-24.04 0.67,68.01 56.36,122.53 124.22,121.85 28.18,-0.22 55.46,-10.32 77.23,-28.18l85.72 -70.53c0,-0.22 0,-0.22 0,-0.47l113.45 81.78c51.34,36.88 122.85,25.19 159.75,-26.11 14.44,-20.16 22.01,-44.67 21.31,-69.63 58.21,35.28 133.86,16.72 169.14,-41.22 14.69,-23.81 20.64,-52 16.96,-79.7 65.11,19.46 133.64,-17.87 153.1,-82.9 6.42,-21.54 6.65,-44.67 0.92,-66.44 65.56,4.82 122.62,-44.65 127.44,-110.16 0.45,-7.32 0.45,-14.67 -0.47,-21.99l157.22 -144.29 70.38 112.46 351.12 -219.2 -455.87 -729.27 -351.12 219.2 50.42 80.4 -146.68 53.59 -208.34 -74.46c-53.39,-19.24 -112.53,-14.64 -162.27,12.14 -92.81,-21.76 -189.75,-18.77 -281.21,8.72 -86.17,7.55 -172.57,10.75 -259.21,9.62l63.93 -104.91 -353.87 -214.85z"/>
  <g>
   <path class="fil1" d="M85.49 643.4l391.22 -643.4 -391.22 643.4zm0 0l0 0 0 0z"/>
  </g>
 </g>
</svg>
