<?xml version="1.0" encoding="UTF-8"?>
<!DOCTYPE svg PUBLIC "-//W3C//DTD SVG 1.1//EN" "http://www.w3.org/Graphics/SVG/1.1/DTD/svg11.dtd">
<!-- Creator: CorelDRAW -->
<svg xmlns="http://www.w3.org/2000/svg" xml:space="preserve" width="112.544mm" height="125.945mm" version="1.1" style="shape-rendering:geometricPrecision; text-rendering:geometricPrecision; image-rendering:optimizeQuality; fill-rule:evenodd; clip-rule:evenodd"
viewBox="0 0 4388.6 4911.18"
 xmlns:xlink="http://www.w3.org/1999/xlink"
 xmlns:xodm="http://www.corel.com/coreldraw/odm/2003">
 <defs>
  <style type="text/css">
   <![CDATA[
    .fil1 {fill:black}
    .fil0 {fill:#212121}
   ]]>
  </style>
 </defs>
 <g id="Camada_x0020_1">
  <metadata id="CorelCorpID_0Corel-Layer"/>
  <path class="fil0" d="M2194.3 4911.18c-293.73,0 -563.89,-264.35 -760.73,-744.37 -187.93,-458.33 -291.43,-1066.03 -291.43,-1711.21 0,-645.14 103.5,-1252.84 291.43,-1711.22 196.84,-479.98 467,-744.37 760.73,-744.37 293.73,0 563.89,264.4 760.73,744.37 187.93,458.37 291.38,1066.08 291.38,1711.22 0,645.18 -103.5,1252.88 -291.38,1711.21 -196.84,480.02 -467,744.37 -760.73,744.37zm0 -4757.69c-110.16,0 -219.33,55.06 -324.61,163.62 -109.31,112.78 -208.27,276.11 -294.15,485.51 -87.43,213.33 -156.22,462.36 -204.43,740.15 -50.08,288.95 -75.48,596.08 -75.48,912.82 0,316.78 25.39,623.91 75.48,912.86 48.21,277.8 117,526.78 204.43,740.11 85.88,209.39 184.84,372.73 294.15,485.51 105.24,108.56 214.45,163.61 324.61,163.61 110.11,0 219.33,-55.05 324.56,-163.61 109.36,-112.78 208.32,-276.11 294.16,-485.51 87.48,-213.33 156.26,-462.36 204.42,-740.11 50.14,-289 75.53,-596.13 75.53,-912.86 0,-316.74 -25.39,-623.87 -75.53,-912.82 -48.17,-277.8 -116.94,-526.83 -204.42,-740.15 -85.84,-209.39 -184.8,-372.73 -294.16,-485.51 -105.23,-108.56 -214.45,-163.62 -324.56,-163.62zm0 0z"/>
  <path class="fil0" d="M795.7 3991.33c-357.45,0.05 -611.26,-105.75 -727.98,-307.93 -146.89,-254.42 -53.04,-620.54 264.26,-1031.03 302.96,-391.89 777.5,-785.37 1336.24,-1107.96 558.74,-322.59 1136.78,-536.81 1627.68,-603.2 514.09,-69.58 878.14,32.24 1024.99,286.61 146.89,254.42 53.04,620.54 -264.26,1030.98 -302.96,391.94 -777.5,785.42 -1336.24,1108.01 -558.74,322.59 -1136.78,536.81 -1627.68,603.2 -105.52,14.29 -204.75,21.32 -297.01,21.32zm2797.95 -2918.14c-85.6,0 -178.14,6.65 -277.19,20.05 -228.46,30.92 -478.52,95.86 -743.21,193.04 -275.31,101.06 -554,232.63 -828.29,391 -274.33,158.41 -527.63,333.97 -752.81,521.86 -216.47,180.62 -397.75,364.67 -538.78,547.07 -138.41,179.08 -230.38,346.44 -273.4,497.5 -41.37,145.43 -34.44,267.54 20.62,362.89 55.06,95.39 157.34,162.44 303.99,199.31 152.32,38.28 343.25,42.31 567.54,11.99 228.46,-30.92 478.52,-95.86 743.2,-193.04 275.32,-101.06 553.96,-232.63 828.29,-391 274.34,-158.37 527.59,-333.93 752.81,-521.82 216.47,-180.63 397.75,-364.72 538.73,-547.12 138.41,-179.08 230.38,-346.44 273.39,-497.5 41.42,-145.43 34.49,-267.54 -20.57,-362.89 0,0 0,0 0,-0.05 -55.05,-95.35 -157.34,-162.4 -303.99,-199.27 -85.09,-21.37 -182.17,-32.05 -290.36,-32.05zm0 0z"/>
  <path class="fil0" d="M3592.9 3991.33c-92.3,0 -191.49,-7.03 -297.01,-21.32 -490.9,-66.39 -1068.93,-280.66 -1627.68,-603.2 -558.74,-322.59 -1033.28,-716.08 -1336.24,-1108.01 -317.3,-410.45 -411.15,-776.61 -264.26,-1030.98 146.84,-254.37 510.85,-356.19 1024.99,-286.66 490.89,66.44 1068.94,280.66 1627.68,603.25 558.69,322.59 1033.23,716.07 1336.24,1107.96 317.3,410.45 411.14,776.61 264.26,1030.99 -116.71,202.22 -370.62,307.97 -727.98,307.97zm-2797.96 -2918.14c-108.19,0 -205.32,10.68 -290.35,32.05 -146.66,36.87 -248.94,103.92 -303.99,199.32 -55.05,95.35 -61.99,217.45 -20.57,362.89 42.97,151.06 134.94,318.42 273.35,497.5 141.03,182.4 322.26,366.49 538.78,547.12 225.18,187.84 478.48,363.45 752.76,521.82 274.33,158.37 553.02,289.93 828.34,391 264.64,97.17 514.7,162.12 743.21,193.04 224.25,30.32 415.18,26.29 567.5,-11.99 146.65,-36.87 248.93,-103.92 303.99,-199.31 55.1,-95.35 61.99,-217.45 20.61,-362.89 -43.01,-151.06 -134.98,-318.42 -273.39,-497.5 -141.03,-182.41 -322.31,-366.45 -538.78,-547.07 -225.18,-187.89 -478.48,-363.45 -752.76,-521.86 -274.33,-158.37 -553.02,-289.94 -828.34,-391 -264.68,-97.18 -514.69,-162.12 -743.2,-193.04 -99,-13.35 -191.58,-20.05 -277.14,-20.05zm0 0z"/>
  <path class="fil1" d="M2194.26 2993.99c-19.17,0 -38.33,-7.17 -53.18,-21.45 -119.81,-115.36 -243.64,-234.65 -336.84,-354.36 -111.7,-143.42 -165.96,-272.13 -165.96,-393.39 0,-169.61 141.92,-307.6 316.36,-307.6 114.37,0 186.9,45.26 239.66,108.23 52.71,-62.97 125.29,-108.23 239.61,-108.23 174.49,0 316.41,137.99 316.41,307.6 0,121.26 -54.3,249.92 -165.96,393.34 -93.24,119.76 -217.08,239.05 -336.79,354.36 -14.9,14.34 -34.11,21.51 -53.32,21.51zm-239.61 -923.31c-89.82,0 -162.87,69.11 -162.87,154.11 0,182.49 196.46,386.17 402.53,585.82 206.06,-199.65 402.52,-403.33 402.52,-585.82 0,-85 -73.09,-154.11 -162.91,-154.11 -79.98,0 -118.49,29.57 -171.53,131.76 -13.22,25.39 -39.45,41.37 -68.12,41.37 -28.63,0 -54.92,-15.98 -68.08,-41.37 -53.04,-102.19 -91.51,-131.76 -171.53,-131.76zm0 0z"/>
 </g>
</svg>
