<?xml version="1.0" encoding="UTF-8"?>
<!DOCTYPE svg PUBLIC "-//W3C//DTD SVG 1.1//EN" "http://www.w3.org/Graphics/SVG/1.1/DTD/svg11.dtd">
<!-- Creator: CorelDRAW -->
<svg xmlns="http://www.w3.org/2000/svg" xml:space="preserve" width="1579px" height="1579px" version="1.1" style="shape-rendering:geometricPrecision; text-rendering:geometricPrecision; image-rendering:optimizeQuality; fill-rule:evenodd; clip-rule:evenodd"
viewBox="0 0 426.97 426.97"
 xmlns:xlink="http://www.w3.org/1999/xlink"
 xmlns:xodm="http://www.corel.com/coreldraw/odm/2003">
 <defs>
  <style type="text/css">
   <![CDATA[
    .fil3 {fill:#C42126}
    .fil1 {fill:#D0202D}
    .fil0 {fill:#FECF33}
    .fil2 {fill:#FFC40C}
   ]]>
  </style>
 </defs>
 <g id="Camada_x0020_1">
  <metadata id="CorelCorpID_0Corel-Layer"/>
  <g id="_2535475164416">
   <path class="fil0" d="M381.1 81.79c-0.78,0.66 -53.85,0.25 -59.32,0.25l-107.9 0.04 -126.81 -0.19c-5.36,0 -39.31,0.36 -41.64,-0.29 -0.9,0.44 -0.14,-0.07 -0.78,0.64 -0.3,0.32 -0.36,0.45 -0.56,0.79l-2.89 4.14c-0.04,0.04 -0.08,0.11 -0.11,0.16l-1.46 2.05c-1.91,2.78 -4.25,5.26 -5.81,8.25l-2.84 4.73c-0.05,0.07 -0.18,0.26 -0.22,0.32 -0.45,0.67 -0.65,1.08 -1,1.71 -0.03,0.06 -0.07,0.13 -0.1,0.18 -1.29,2.26 -2.88,4.45 -4,6.8 -0.33,0.69 -0.51,1 -0.9,1.81l-4.15 8.29c-0.16,0.35 -0.1,0.26 -0.25,0.56l-6.88 16.11c-0.26,0.56 -0.58,1.32 -0.81,1.89l-5.37 16.8c-0.27,1.33 -0.42,1.04 -0.69,2.02 -0.29,1.1 0.03,1.25 -0.39,2.31 -0.56,1.39 -0.62,2.79 -1.17,4.52 -0.29,0.92 -0.11,1.4 -0.29,2.41 -0.16,0.97 -0.49,1.43 -0.62,2.08 -0.21,0.97 -0.16,1.59 -0.43,2.55 -0.87,3.14 -1.29,6.09 -1.56,9.52l-1.42 9.66c-0.15,1.15 -0.01,4.1 -0.24,5.17l-0.49 2.11 0 29.2 0.01 0.1c0.23,1.54 0.09,0.27 0.34,1.01 0.74,2.19 0.04,5.42 0.73,7.66 0.41,1.31 0.37,3.39 0.54,4.87 0.14,1.31 0.39,1.47 0.51,2.46 0.18,1.51 0.1,3.62 0.43,4.98l2.11 8.98c0.16,0.64 0.1,1.53 0.27,2.43 0.15,0.76 0.58,1.23 0.7,2.27 0.26,2.29 0.56,2.34 0.89,4.52l4.67 15.07c0.02,0.07 0.05,0.14 0.07,0.21l5.29 13.63c0.17,0.48 0.21,0.48 0.42,0.94l4.33 9.46c0.22,0.45 0.18,0.43 0.44,0.91 1.65,2.97 2.85,6.24 4.66,9.13l1.53 2.52c0.03,0.05 0.08,0.12 0.11,0.17 0.2,0.3 0.41,0.6 0.54,0.81l8.07 13.02c0.04,0.04 0.08,0.11 0.12,0.15l3.51 4.87c0.03,0.05 0.08,0.11 0.12,0.16l0.23 0.3c0.12,0.17 0.45,0.64 0.56,0.8l3.32 4.78c0.8,0.96 0.02,0.36 0.91,0.78 2.33,-0.65 36.28,-0.28 41.64,-0.28l283.66 0.01c3,0 7.55,-0.27 10.37,0.08l0.29 0.13c1.39,-0.39 1.72,-1.97 2.55,-3.02l3.41 -4.7c0.4,-0.58 0.73,-1 1.15,-1.55l2.04 -2.82c0.04,-0.05 0.09,-0.11 0.12,-0.15 0.05,-0.07 0.2,-0.24 0.25,-0.3 1.69,-2.16 3.45,-5.26 4.75,-7.68l13.12 -24.48c0.02,-0.05 0.05,-0.13 0.08,-0.19l8.26 -21.75c0.12,-0.47 0.09,-0.7 0.21,-1.14l0.76 -2.49c0.16,-0.67 0.09,-0.35 0.2,-0.61l2.07 -6.31c0.29,-1.09 -0.03,-1.25 0.39,-2.31 0.56,-1.4 0.4,-0.46 0.56,-2.42 0.1,-1.19 0.32,-1.17 0.61,-2.09 0.29,-0.92 0.11,-1.41 0.29,-2.42 0.17,-0.97 0.49,-1.42 0.63,-2.07 0.48,-2.28 0.69,-4.56 1.44,-6.94 0.46,-1.48 0.4,-3.34 0.54,-5.14 0.09,-1.08 0.37,-1.25 0.49,-2.21 0.12,-0.88 0.21,-1.81 0.27,-2.44 0.09,-0.93 -0.06,-1.65 0.17,-2.53 0.7,-2.75 0.23,-5.32 0.74,-7.65l0.13 -0.41c0.02,-0.06 0.06,-0.12 0.08,-0.18 0.03,-0.07 0.06,-0.13 0.09,-0.19l0.18 -1.28 0 -29.24 -0.01 -0.11c-0.23,-1.54 -0.09,-0.26 -0.34,-1.01 -0.74,-2.19 -0.04,-5.41 -0.73,-7.65 -0.34,-1.12 -0.24,-1.02 -0.27,-2.44 -0.02,-1.09 -0.15,-1.41 -0.26,-2.44 -0.15,-1.31 -0.4,-1.47 -0.52,-2.46 -0.18,-1.5 -0.09,-3.62 -0.43,-4.98l-2.1 -8.98c-0.17,-0.63 -0.1,-1.53 -0.28,-2.43 -0.14,-0.76 -0.58,-1.23 -0.7,-2.27 -0.16,-1.45 0.15,-1.06 -0.39,-2.31 -0.6,-1.37 -0.26,-0.62 -0.5,-2.21 -0.15,-1.03 -0.47,-1.11 -0.69,-2.01 -0.12,-0.53 -0.04,-0.61 -0.21,-1.14 -0.25,-0.79 -0.34,-0.56 -0.52,-1.1 -0.37,-1.1 0.02,-0.96 -0.54,-2.17l-0.6 -2.1c-0.26,-0.87 -0.25,-0.53 -0.41,-0.94 -0.26,-0.7 -0.1,-0.27 -0.27,-1.09 -0.24,-1.23 -0.48,-1.24 -0.75,-2.23l-4.41 -12.07c-0.17,-0.47 -0.21,-0.48 -0.42,-0.94l-0.36 -0.99c-0.33,-0.98 0.02,-0.07 -0.39,-0.96l-2.09 -5.21c-0.03,-0.06 -0.06,-0.13 -0.09,-0.19l-5.84 -11.73c-0.21,-0.43 -0.25,-0.47 -0.46,-0.89l-3.36 -6.11c-0.03,-0.05 -0.07,-0.11 -0.1,-0.16l-2.12 -3.57c-0.03,-0.04 -0.07,-0.11 -0.11,-0.16l-1.51 -2.54c-0.03,-0.05 -0.08,-0.12 -0.11,-0.16 -0.03,-0.05 -0.07,-0.12 -0.1,-0.17 -0.04,-0.05 -0.08,-0.11 -0.11,-0.16 -0.03,-0.05 -0.07,-0.12 -0.11,-0.17l-4.22 -6.59c-0.03,-0.05 -0.08,-0.11 -0.11,-0.16l-6.37 -8.77c-1.1,-1.34 -1.21,-2.76 -2.67,-3.17l-0.29 0.13z"/>
   <path class="fil1" d="M45.43 81.6c2.33,0.65 36.28,0.29 41.64,0.29l283.66 -0.02c3,0 7.56,0.27 10.37,-0.08l0.29 -0.13c-0.17,-0.89 -0.01,-0.41 -0.56,-1.16l-3.45 -4.13c-0.34,-0.37 -0.56,-0.64 -0.86,-1.04l-2.98 -3.51c-0.04,-0.04 -0.09,-0.1 -0.13,-0.14l-13.97 -14.43c-0.45,-0.43 -0.56,-0.47 -1.02,-0.86 -0.29,-0.25 -0.26,-0.24 -0.42,-0.39l-1.3 -1.14c-0.05,-0.03 -0.1,-0.09 -0.14,-0.13 -0.04,-0.03 -0.1,-0.09 -0.14,-0.13 -0.4,-0.36 -0.73,-0.67 -1.13,-1.04l-24.15 -18.56 -9.01 -5.61c-0.06,-0.04 -0.26,-0.16 -0.33,-0.21l-1.69 -1.01c-0.05,-0.03 -0.12,-0.07 -0.17,-0.1l-1.02 -0.6c-0.27,-0.14 -0.29,-0.12 -0.55,-0.26l-9.51 -5.09c-1.67,-0.81 -3.46,-1.72 -5.22,-2.62 -0.66,-0.34 -0.57,-0.29 -1.32,-0.58l-13.81 -5.66c-0.75,-0.26 -0.87,-0.28 -1.56,-0.6l-4.92 -1.84c-0.51,-0.16 -0.47,-0.11 -0.88,-0.2 -1.25,-0.29 -0.54,-0.11 -1.41,-0.48l-12.08 -3.61c-1.84,-0.28 -1.86,-0.55 -3.01,-0.78 -0.68,-0.14 -0.99,-0.01 -1.69,-0.2 -1.53,-0.41 -1.02,-0.47 -3.03,-0.75 -1.39,-0.2 -1.54,-0.63 -3.3,-0.76 -1.85,-0.13 -6.88,-1.44 -9.82,-1.8 -0.63,-0.08 -1.2,-0.03 -1.78,-0.11 -2.01,-0.29 -1.91,-0.61 -5.18,-0.78 -2.01,-0.1 -4.5,-0.83 -7.02,-0.82 -1.16,0.01 -2.19,0.12 -3.25,-0.26 -0.07,-0.02 -0.13,-0.06 -0.19,-0.08 -0.23,-0.08 -0.62,-0.14 -1.14,-0.19l-22.2 0 -7.74 0 -0.09 0.01c-1.89,0.28 0.11,0.15 -1.42,0.48 -1.65,0.35 -5.52,0.06 -7.45,0.39 -0.44,0.07 -1.04,0.33 -1.48,0.41 -1.13,0.18 -2.66,0.2 -3.73,0.32l-6.83 1.02c-0.86,0.25 -0.31,0.2 -1.52,0.37l-11.42 2.37c-0.99,0.36 -2.08,0.35 -3.03,0.76 -0.96,0.42 -2.3,0.41 -3.24,0.81l-2.94 0.85c-0.88,0.41 -2.06,0.36 -3.02,0.77l-10.14 3.38c-2.11,0.89 -4.4,1.47 -6.46,2.45 -1.99,0.95 -4.03,1.41 -6.03,2.36l-2.77 1.29c-0.06,0.02 -0.13,0.05 -0.19,0.08 -0.06,0.02 -0.13,0.05 -0.19,0.08l-3.84 1.84c-0.53,0.26 -0.08,0.07 -0.53,0.27l-6.02 2.91c-0.65,0.32 -0.61,0.32 -1.25,0.64l-13.57 7.8c-0.84,0.5 -1.61,0.96 -2.54,1.51l-4.74 3.1c-0.76,0.57 -1.43,1.05 -2.22,1.57l-1.1 0.79c-0.05,0.04 -0.11,0.08 -0.16,0.12l-5.05 3.6c-2.55,2.12 -5.9,4.17 -8.17,6.43 -2.37,2.37 -5.07,4.52 -7.63,6.7l-1.37 1.33c-1.9,1.83 -6.98,6.22 -8.3,7.93l-3.19 3.56c-0.2,0.21 -0.34,0.38 -0.51,0.58l-10.74 12.72z"/>
   <path class="fil1" d="M45.43 345.37c1.34,2.2 4.91,6.28 6.8,8.55 0.03,0.04 0.37,0.41 0.38,0.43l2.4 2.47c0.19,0.2 0.38,0.38 0.54,0.54l16.41 16.31c1.62,1.51 3.39,2.66 4.95,4.25 2.24,2.28 5.09,3.9 7.56,5.95l21.18 14.24c0.05,0.04 0.12,0.08 0.17,0.11l18.9 9.76c0.34,0.13 0.25,0.07 0.59,0.23 0.67,0.31 0.18,0.12 0.69,0.39l12.46 5.11c0.78,0.3 0.84,0.41 1.49,0.68 0.6,0.25 0.92,0.25 1.47,0.42 0.93,0.3 0.44,0.25 1.33,0.56l9.02 2.88c1.55,0.56 2.05,0.44 3.02,0.76 0.56,0.19 0.53,0.4 1.31,0.59 1.02,0.23 0.85,-0.04 1.82,0.35 1.07,0.42 2.03,0.38 3.05,0.72 0.66,0.23 0.65,0.4 1.35,0.55l8.03 1.7c1.6,0.15 2.01,0.5 3.06,0.73 1.28,0.28 2.33,0.21 3.5,0.55 1.5,0.44 3.55,0.43 5.04,0.65 0.94,0.13 0.72,0.3 1.7,0.46l6.98 0.86c1.44,0.05 1.87,0.28 3.52,0.27 0.94,-0.01 1.98,-0.14 2.86,0.11 0.07,0.01 0.13,0.05 0.2,0.07l0.57 0.24c0.15,0.04 0.95,0.08 2.21,0.11l28.83 0 0.84 -0.18c0.06,-0.03 0.12,-0.06 0.19,-0.09 0.06,-0.02 0.12,-0.06 0.18,-0.08 1.65,-0.55 5.7,-0.22 7.62,-0.49 0.86,-0.12 0.77,-0.3 1.46,-0.43 0.92,-0.19 2.8,-0.24 3.72,-0.34l13.29 -2.4c0.72,-0.08 1.01,0.01 1.72,-0.17l3.09 -0.69c1.49,-0.18 1.79,-0.65 3.24,-0.82 1.17,-0.14 0.47,-0.01 1.46,-0.44 0.97,-0.42 2.3,-0.4 3.25,-0.81 1.22,-0.52 1.74,-0.23 3.01,-0.76l2.85 -0.94c0.83,-0.33 0.65,-0.13 1.54,-0.36 0.76,-0.19 0.71,-0.36 1.32,-0.57 0.6,-0.22 0.9,-0.14 1.56,-0.34 1.12,-0.32 0.47,-0.31 1.55,-0.61l18.42 -6.99c0.32,-0.14 0.48,-0.24 0.54,-0.27l13.32 -6.43c0.45,-0.22 0.33,-0.18 0.71,-0.37l15.64 -9.23c0.06,-0.03 0.13,-0.06 0.18,-0.09 2.24,-1.19 4.43,-2.86 6.44,-4.38l6.3 -4.52c0.79,-0.59 1.39,-1.01 2.17,-1.62l0.72 -0.62c2.15,-2.02 4.65,-3.63 6.82,-5.62l3.18 -2.77c0.04,-0.04 0.1,-0.09 0.14,-0.13l7.8 -7.35c0.69,-0.69 1.18,-1.22 1.89,-1.89l9.38 -9.82c0.03,-0.04 0.09,-0.1 0.13,-0.14l5.37 -6.53c0.66,-0.81 1.34,-1.39 1.53,-2.37l-0.29 -0.13c-2.82,-0.35 -7.37,-0.08 -10.37,-0.08l-283.66 -0.01c-5.36,0 -39.31,-0.37 -41.64,0.28z"/>
  </g>
  <path class="fil2" d="M45.43 345.37c2.33,-0.65 36.28,-0.28 41.64,-0.28l74.93 0c-36.53,-84.79 -38.76,-168.31 -6.69,-250.57 1.64,-4.2 3.36,-8.38 5.16,-12.52l-73.4 -0.11c-5.36,0 -39.31,0.36 -41.64,-0.29 -0.9,0.44 -0.14,-0.07 -0.78,0.64 -0.3,0.32 -0.36,0.45 -0.56,0.79l-2.89 4.14c-0.04,0.04 -0.08,0.11 -0.11,0.16l-1.46 2.05c-1.91,2.78 -4.25,5.26 -5.81,8.25l-2.84 4.73c-0.05,0.07 -0.18,0.26 -0.22,0.32 -0.45,0.67 -0.65,1.08 -1,1.71 -0.03,0.06 -0.07,0.13 -0.1,0.18 -1.29,2.26 -2.88,4.45 -4,6.8 -0.33,0.69 -0.51,1 -0.9,1.81l-4.15 8.29c-0.16,0.35 -0.1,0.26 -0.25,0.56l-6.88 16.11c-0.26,0.56 -0.58,1.32 -0.81,1.89l-5.37 16.8c-0.27,1.33 -0.42,1.04 -0.69,2.02 -0.29,1.1 0.03,1.25 -0.39,2.31 -0.56,1.39 -0.62,2.79 -1.17,4.52 -0.29,0.92 -0.11,1.4 -0.29,2.41 -0.16,0.97 -0.49,1.43 -0.62,2.08 -0.21,0.97 -0.16,1.59 -0.43,2.55 -0.87,3.14 -1.29,6.09 -1.56,9.52l-1.42 9.66c-0.15,1.15 -0.01,4.1 -0.24,5.17l-0.49 2.11 0 29.2 0.01 0.1c0.23,1.54 0.09,0.27 0.34,1.01 0.74,2.19 0.04,5.42 0.73,7.66 0.41,1.31 0.37,3.39 0.54,4.87 0.14,1.31 0.39,1.47 0.51,2.46 0.18,1.51 0.1,3.62 0.43,4.98l2.11 8.98c0.16,0.64 0.1,1.53 0.27,2.43 0.15,0.76 0.58,1.23 0.7,2.27 0.26,2.29 0.56,2.34 0.89,4.52l4.67 15.07c0.02,0.07 0.05,0.14 0.07,0.21l5.29 13.63c0.17,0.48 0.21,0.48 0.42,0.94l4.33 9.46c0.22,0.45 0.18,0.43 0.44,0.91 1.65,2.97 2.85,6.24 4.66,9.13l1.53 2.52c0.03,0.05 0.08,0.12 0.11,0.17 0.2,0.3 0.41,0.6 0.54,0.81l8.07 13.02c0.04,0.04 0.08,0.11 0.12,0.15l3.51 4.87c0.03,0.05 0.08,0.11 0.12,0.16l0.23 0.3c0.12,0.17 0.45,0.64 0.56,0.8l3.32 4.78c0.8,0.96 0.02,0.36 0.91,0.78z"/>
  <path class="fil3" d="M87.07 81.89l73.45 -0.01c1.74,-4.02 3.55,-8.01 5.43,-11.97 11.11,-23.4 25.02,-46.71 41.72,-69.91l-1.62 0 -7.74 0 -0.09 0.01c-1.89,0.28 0.11,0.15 -1.42,0.48 -1.65,0.35 -5.52,0.06 -7.45,0.39 -0.44,0.07 -1.04,0.33 -1.48,0.41 -1.13,0.18 -2.66,0.2 -3.73,0.32l-6.83 1.02c-0.86,0.25 -0.31,0.2 -1.52,0.37l-11.42 2.37c-0.99,0.36 -2.08,0.35 -3.03,0.76 -0.96,0.42 -2.3,0.41 -3.24,0.81l-2.94 0.85c-0.88,0.41 -2.06,0.36 -3.02,0.77l-10.14 3.38c-2.11,0.89 -4.4,1.47 -6.46,2.45 -1.99,0.95 -4.03,1.41 -6.03,2.36l-2.77 1.29c-0.06,0.02 -0.13,0.05 -0.19,0.08 -0.06,0.02 -0.13,0.05 -0.19,0.08l-3.84 1.84c-0.53,0.26 -0.08,0.07 -0.53,0.27l-6.02 2.91c-0.65,0.32 -0.61,0.32 -1.25,0.64l-13.57 7.8c-0.84,0.5 -1.61,0.96 -2.54,1.51l-4.74 3.1c-0.76,0.57 -1.43,1.05 -2.22,1.57l-1.1 0.79c-0.05,0.04 -0.11,0.08 -0.16,0.12l-5.05 3.6c-2.55,2.12 -5.9,4.17 -8.17,6.43 -2.37,2.37 -5.07,4.52 -7.63,6.7l-1.37 1.33c-1.9,1.83 -6.98,6.22 -8.3,7.93l-3.19 3.56c-0.2,0.21 -0.34,0.38 -0.51,0.58l-10.74 12.72c2.33,0.65 36.28,0.29 41.64,0.29z"/>
  <path class="fil3" d="M162 345.09l-74.93 0c-5.36,0 -39.31,-0.37 -41.64,0.28 1.34,2.2 4.91,6.28 6.8,8.55 0.03,0.04 0.37,0.41 0.38,0.43l2.4 2.47c0.19,0.2 0.38,0.38 0.54,0.54l16.41 16.31c1.62,1.51 3.39,2.66 4.95,4.25 2.24,2.28 5.09,3.9 7.56,5.95l21.18 14.24c0.05,0.04 0.12,0.08 0.17,0.11l18.9 9.76c0.34,0.13 0.25,0.07 0.59,0.23 0.67,0.31 0.18,0.12 0.69,0.39l12.46 5.11c0.78,0.3 0.84,0.41 1.49,0.68 0.6,0.25 0.92,0.25 1.47,0.42 0.93,0.3 0.44,0.25 1.33,0.56l9.02 2.88c1.55,0.56 2.05,0.44 3.02,0.76 0.56,0.19 0.53,0.4 1.31,0.59 1.02,0.23 0.85,-0.04 1.82,0.35 1.07,0.42 2.03,0.38 3.05,0.72 0.66,0.23 0.65,0.4 1.35,0.55l8.03 1.7c1.6,0.15 2.01,0.5 3.06,0.73 1.28,0.28 2.33,0.21 3.5,0.55 1.5,0.44 3.55,0.43 5.04,0.65 0.94,0.13 0.72,0.3 1.7,0.46l6.98 0.86c1.44,0.05 1.87,0.28 3.52,0.27 0.94,-0.01 1.98,-0.14 2.86,0.11 0.07,0.01 0.13,0.05 0.2,0.07l0.57 0.24c0.15,0.04 0.95,0.08 2.21,0.11l7.68 0c-18.75,-27.42 -33.97,-54.72 -45.67,-81.88z"/>
 </g>
</svg>
