<?xml version="1.0" encoding="UTF-8"?>
<!DOCTYPE svg PUBLIC "-//W3C//DTD SVG 1.1//EN" "http://www.w3.org/Graphics/SVG/1.1/DTD/svg11.dtd">
<!-- Creator: CorelDRAW -->
<svg xmlns="http://www.w3.org/2000/svg" xml:space="preserve" width="118.118mm" height="113.139mm" version="1.1" style="shape-rendering:geometricPrecision; text-rendering:geometricPrecision; image-rendering:optimizeQuality; fill-rule:evenodd; clip-rule:evenodd"
viewBox="0 0 11797.52 11300.22"
 xmlns:xlink="http://www.w3.org/1999/xlink"
 xmlns:xodm="http://www.corel.com/coreldraw/odm/2003">
 <defs>
  <style type="text/css">
   <![CDATA[
    .fil0 {fill:#FEFEFE;fill-rule:nonzero}
   ]]>
  </style>
 </defs>
 <g id="Camada_x0020_1">
  <metadata id="CorelCorpID_0Corel-Layer"/>
  <path class="fil0" d="M-0 8433.54l0 -246.75c53.47,-928.37 401.16,-1798.46 853.95,-2615.27 58.06,-104.84 114.97,-175.61 170.73,-212.44 211.97,-140.12 475.13,-63.38 594.71,160.83 370.97,694.93 909.71,1295.63 1534.14,1806.04 670.05,547.68 1002.33,1276.5 903.95,2142.64 -40.8,359.25 -161.53,733.43 -332.06,1056.03 -2.77,5.53 -0.68,12.22 4.6,15.22 320.53,173.49 654.41,307.15 1002.1,400.47 235.72,63.12 147.7,402.3 -96.53,333.41 -430.2,-121.19 -819.84,-283.18 -1169.38,-486.17 -7.13,-4.16 -14.99,-5.53 -23.05,-4.38 -755.78,111.53 -1577.45,44.7 -2247.74,-320.74 -150.93,-82.27 -302.99,-190.79 -455.78,-325.58 -53.68,-47.26 -84.79,-91.49 -93.56,-132.27 -26.03,-122.11 77.89,-232.72 201.4,-205.77 37.55,8.3 74.89,30.43 111.54,66.37 505.76,496.09 1314.76,646.09 2010.41,613.38 13.11,-0.7 14.51,-4.84 3.92,-12.89 -201.86,-148.64 -395.87,-316.85 -581.82,-504.86 -6.91,-6.91 -15.21,-10.15 -24.89,-9.92 -361.99,6.92 -702.77,-102.77 -1022.14,-328.79 -212.22,-150.48 -5.99,-447.48 218.9,-272.83 128.35,99.79 282.27,171.66 462.22,216.14 11.31,2.77 13.35,-0.47 6.22,-9.68 -249.77,-315.67 -457.15,-653.01 -622.38,-1011.77 -3.9,-8.75 -10.35,-15.21 -18.88,-19.6 -260.61,-129.5 -478.83,-325.6 -655.09,-588.03 -132.25,-197.01 149.78,-393.57 290.8,-186.88 42.61,62.23 85.02,117.54 127.65,165.94 14.75,16.81 18.9,14.49 12.45,-6.92 -76.52,-258.79 -129.74,-494.25 -159.47,-706.04 -32.71,-232.47 303.46,-288.44 343.79,-32.26 68.44,431.84 194.48,846.12 378.58,1242.91 7.6,16.36 12.9,15.64 16.12,-2.09 25.56,-140.53 70.73,-285.48 135.5,-435.01 97.92,-226.74 423.5,-86.19 309.68,159.22 -124.18,267.52 -159.68,580.43 -110.37,862.45 6.22,35.73 20.27,69.15 41.7,99.79 125.12,178.57 256,342.63 392.64,491.71 6.23,6.68 9.21,5.53 9.21,-3.69 1.17,-99.54 7.15,-292.63 85.97,-365.69 89.85,-83.64 236.4,-50.46 278.11,66.84 12.2,34.34 12.66,74.88 1.83,121.2 -43.54,183.65 -13.81,382.49 89.19,597.02 15.88,33.41 39.84,62.2 71.64,86.86 134.57,103.93 254.87,189.87 360.62,258.3 7.81,5.08 13.83,3.47 18.18,-5.06 352.32,-691.71 442.65,-1524.92 7.62,-2198.45 -111.74,-173.02 -238.04,-320.74 -379.04,-443.56 -103.46,-90.09 -201.38,-175.11 -294.02,-254.85 -585.73,-503.43 -1097.26,-1106.23 -1455.8,-1775.82 -23.72,-44.25 -80.63,-51.83 -107.38,-6.24 -199.99,340.79 -372.57,697.49 -517.74,1070.08 -295.16,757.4 -495.62,1697.26 -171.89,2469.88 105.07,250.69 -219.82,371.22 -309.23,163.83 -120.97,-280.88 -188.24,-593.1 -201.85,-936.21zm6854.99 1960.65c-793.79,186.18 -1574.91,142.85 -2343.84,-129.95 -69.35,-24.66 -114.73,-52.99 -136.15,-84.57 -94.95,-140.77 40.07,-320.28 204.82,-259.23 752.79,279.05 1518.92,316.15 2298.43,111.53 134.59,-35.25 248.41,106.22 198.42,230.44 -38.5,94.92 -120.99,108.28 -221.68,131.78zm4942.52 -1876.31l0 184.58c-60.85,1197.94 -929.06,1941.98 -2003.05,2292.68 -674.21,220.04 -1410.17,306.45 -2127.93,305.06 -197.95,-0.46 -333.42,-89.85 -406.9,-268.22 -53.7,-130.18 -18.45,-265.65 57.14,-387.55 401.39,-646.81 648.61,-1406.48 786.41,-2212.73 82.7,-483.41 261.04,-922.14 588.26,-1284.36 164.75,-182.27 422.61,47.94 251.62,237.8 -278.56,309.68 -427.9,688.27 -498.85,1100.94 -148.17,863.61 -412.92,1663.4 -853.7,2378.62 -23.75,38.24 0.89,87.55 47.69,88.02 603.22,6.7 1181.12,-58.51 1733.89,-195.16 981.58,-242.64 1950.06,-834.81 2070.33,-1936.67 68.65,-628.61 -182.72,-1280.47 -517.06,-1806.25 -7.83,-12.24 -12.43,-11.07 -14.04,3.22 -26.98,247.7 -75.82,500.48 -146.57,758.3 -2.09,7.82 -0.92,15.2 3.02,22.11 180.39,306.23 257.82,638.5 231.78,996.81 -2.53,34.33 -7.59,68.42 -14.72,102.77 -43.78,206.23 -367.55,154.38 -336.89,-68.66 24.9,-180.19 8.09,-371.9 -41.68,-537.58 -3.94,-12.67 -8.3,-12.88 -13.15,-0.69 -147.46,371.66 -335.47,719.58 -564.3,1043.8 -5.06,7.36 -7.36,15.44 -6.91,24.43 17.73,275.8 -38.95,557.15 -170.53,843.79 -20.94,45.39 -49.27,78.35 -85.24,98.39 -112.66,63.14 -253.23,-12.66 -255.75,-142.17 -0.72,-33.41 10.13,-72.82 32.26,-117.97 25.35,-52.08 49.06,-110.84 70.93,-176.52 5.53,-16.81 2.32,-18.66 -9.89,-5.99 -138.47,147.7 -301.15,300.7 -487.8,459.23 -50.46,43.1 -93.34,67.3 -128.35,73.06 -131.57,21.88 -237.79,-104.85 -188.71,-231.12 12.45,-32.48 42.63,-67.98 90.79,-106.67 328.79,-265.47 618.91,-577.68 870.28,-936.91 6.7,-9.45 4.61,-12.42 -6.2,-8.52 -127.42,44.47 -268.67,77.88 -424.22,100.01 -277.64,39.63 -310.6,-315.68 -67.04,-341.73 320.04,-34.33 613.36,-153.44 849.55,-362.67 10.6,-9.45 19.37,-20.73 25.36,-33.41 94.48,-195.84 175.1,-398.41 242.15,-607.62 4.85,-14.74 0.48,-18.22 -12.91,-10.6 -90.76,51.84 -266.11,142.38 -367.27,99.98 -161.98,-67.97 -133.19,-281.07 33.18,-330.17 183.65,-54.14 342.39,-179.98 476.51,-376.95 21.4,-31.58 35.03,-68.68 40.77,-110.84 20.73,-155.32 35.03,-301.17 42.86,-437.35 0.71,-8.98 -3.68,-13.33 -12.89,-12.91 -289.16,13.62 -574.43,73.53 -856.02,179.51 -85.72,32.26 -195.62,103.9 -282.5,85.26 -121.64,-26.26 -178.58,-167.98 -102.99,-269.37 19.59,-26.49 48.14,-48.15 85.73,-65.2 372.35,-167.97 756.91,-253.92 1160.63,-278.35 8.75,-0.68 13.11,-5.27 12.87,-14.04 -11.51,-366.59 -62.18,-717.3 -152.08,-1052.09 -67.49,-252.08 270.3,-337.8 333.2,-97.92 107.62,410.83 162.91,831.82 166.36,1262.47 0,7.34 2.54,14.72 7.15,20.5 467.3,593.33 801.38,1305.58 845.42,2063.64zm-2226.32 -2638.51c-119.12,-771.45 -467.53,-1465.5 -1012.72,-2028.16 -101.82,-105.07 -25.12,-286.87 119.59,-288.74 50.71,-0.68 89.42,12.24 116.16,39.18 586.41,588.26 958.29,1317.76 1115.91,2188.52 14.04,76.97 11.3,134.34 -8.28,172.37 -54.18,105.3 -197.01,129.48 -279.28,40.1 -26.03,-28.36 -43.08,-69.6 -51.38,-123.27zm-6044.6 -2290.87c-568,474.24 -960.62,1062.25 -1178.37,1764.35 -15.91,50.91 -36.88,88.49 -63.14,112.66 -75.59,70.28 -195.39,55.55 -255.55,-29.24 -38.91,-54.84 -35.95,-114.98 -16.58,-176.75 255.3,-811.3 712.93,-1478.36 1372.6,-2001.41 85.98,-67.97 165.68,-68.21 239.17,-0.7 61.06,56.21 72.37,123.73 33.9,202.32 -26.07,53.44 -85.28,89.38 -132.03,128.77zm3544.99 -2018.93c-14.72,3.69 -14.72,7.16 0.24,10.6 213.13,49.57 428.36,114.55 645.42,194.47 60.58,22.38 119.38,46.33 146.51,111.09 45.64,108.53 -21.19,233.88 -140.53,241.26 -35.48,2.07 -74.19,-4.85 -115.9,-21.19 -399.79,-156.25 -817.99,-252.54 -1255.1,-288.95 -12.2,-1.17 -13.58,2.3 -4.36,10.35 106.22,91.72 206.2,198.86 300.23,321.21 167.28,217.76 -125.58,425.38 -276.52,211.99 -171.2,-242.41 -415.2,-427.45 -689.19,-530.65 -38.47,-14.54 -77.4,-20.08 -116.37,-16.6 -213.35,19.58 -418.88,50.71 -616.58,93.55 -11.98,2.54 -12.68,6.9 -2.09,13.13 65.22,38.01 130.44,85.03 195.16,141.04 210.4,181.32 -41.22,444.45 -222.57,267.05 -132.5,-129.26 -320.76,-204.62 -564.75,-225.81 -36.2,-3.23 -72.36,2.52 -108.09,17.05 -149.09,60.59 -285.04,121.89 -407.84,184.12 -9.68,4.82 -11.54,11.96 -5.53,20.94 572.13,854.4 1436.46,1332.05 2477.25,995.67 134.8,-43.59 277.44,-92.39 427.64,-146.57 233.43,-84.09 529.97,-163.83 889.65,-239.17 220.07,-46.09 294.24,292.85 59.48,340.78 -377.2,76.98 -763.16,189.43 -1158.12,337.34 -612.44,229.5 -1267.06,220.95 -1849.11,-61.98 -468.21,-227.68 -871.67,-620.55 -1150.95,-1062.24 -2.98,-4.85 -9.43,-6.22 -14.49,-3.24 -311.29,191.5 -593.12,413.36 -845.89,666.16 -175.58,175.82 -426.05,-68.92 -237.57,-253 311.76,-304.4 645.62,-559.91 1001.67,-766.82 7.36,-4.4 12.64,-10.39 15.62,-18.24 464.77,-1177.21 1453.73,-2244.73 2821.73,-2099.59 966.15,102.58 1769.61,812.26 2350.53,1539.92 207.37,259.91 417.05,565.67 629.28,917.29 62.22,103.01 96.08,186.41 101.6,250 16.36,190.56 -98.84,377.44 -285.72,428.59 -56.44,15.44 -118.42,21.42 -185.97,18.19 -122.8,-5.72 -251.14,-4.14 -385.02,4.87 -50.21,3.45 -93.33,-6.93 -129.48,-31.13 -106.69,-71.66 -101.41,-233.4 14.28,-292.4 29.7,-15.2 63.82,-23.5 102.07,-24.67 161.09,-5.06 315.66,-5.98 463.4,-2.53 56.2,1.14 79.23,-57.6 48.82,-101.14 -4.61,-6.92 -8.98,-14.07 -13.34,-21.21 -205.56,-358.55 -438.52,-696.32 -699.11,-1013.6 -500.69,-609.93 -1187.11,-1209.94 -1991.3,-1320.55 -1093.11,-150.47 -1876.29,599.78 -2346.13,1495.87 -5.08,9.47 -2.77,12.22 7.11,7.83 243.13,-104.37 487.6,-188.71 733.9,-253.45 8.08,-2.06 15,-7.38 19.15,-14.51 179.01,-314.07 432.72,-549.58 761.3,-706.47 52.07,-24.91 97.93,-37.12 137.56,-36.4 103.92,2.05 177.88,97 161.51,199.74 -11.04,70.08 -57.37,111.56 -119.35,137.35 -162.44,67.76 -308.98,169.8 -439.63,306 -2.77,2.77 -0.25,7.38 3.45,6.67 393.78,-59.2 791.49,-70.73 1193.34,-34.56 9.46,0.7 17.97,-1.4 26.03,-6.66 228.57,-152.32 496.35,-243.13 803.26,-272.15 60.38,-5.75 108.05,2.09 142.87,23.96 109.21,67.97 113.12,231.13 -2.09,294.26 -30.62,16.8 -64.99,26.03 -102.75,27.87 -67.55,3.23 -133.87,12.91 -198.65,29.25z"/>
 </g>
</svg>
