<?xml version="1.0" encoding="UTF-8"?>
<!DOCTYPE svg PUBLIC "-//W3C//DTD SVG 1.1//EN" "http://www.w3.org/Graphics/SVG/1.1/DTD/svg11.dtd">
<!-- Creator: CorelDRAW -->
<svg xmlns="http://www.w3.org/2000/svg" xml:space="preserve" width="1600px" height="1600px" version="1.1" style="shape-rendering:geometricPrecision; text-rendering:geometricPrecision; image-rendering:optimizeQuality; fill-rule:evenodd; clip-rule:evenodd"
viewBox="0 0 1598.32 1598.32"
 xmlns:xlink="http://www.w3.org/1999/xlink"
 xmlns:xodm="http://www.corel.com/coreldraw/odm/2003">
 <defs>
  <style type="text/css">
   <![CDATA[
    .fil3 {fill:#32314B}
    .fil0 {fill:#3E436D}
    .fil5 {fill:#C11A1A}
    .fil4 {fill:#DADADA}
    .fil2 {fill:#DB1B1B}
    .fil6 {fill:#E54040}
    .fil1 {fill:#FDFDFD}
   ]]>
  </style>
 </defs>
 <g id="Camada_x0020_1">
  <metadata id="CorelCorpID_0Corel-Layer"/>
  <g id="_2535438423872">
   <path class="fil0" d="M621.6 89.85l-0.02 2.53c-5.89,14.53 -20.53,17.23 -33.33,29.73l10.69 43.22c-18,0.92 -24.18,-14.59 -40.15,-20.76 -14.64,5.29 -21.46,17.93 -37.46,21.74 -4.98,-7.7 -3.2,0.1 -2.67,-13.33 -9.02,4.1 -2.55,0.41 -10.27,4.97 -6.2,3.66 -3.13,2.01 -5.76,4.07 -3.02,2.37 -8.61,6.91 -12.04,9.67 -11.46,9.2 -4.43,9.84 -21.74,15.63l2.09 12.45 5.5 12.17c72.14,0.6 39.31,4.67 11.33,34.68 2.75,18.42 19.16,42.7 3.03,41.59l-13.11 -7.21c-7.88,-6.01 -10.72,-8.94 -18.8,-13.09 -18.05,5.38 -21.82,19.91 -40.01,21.66 -2.38,-15.59 6.31,-26.83 9.04,-43.3l-6.49 -5.99c-13.96,9.5 -20.03,23.27 -30.9,34.77 -11.39,12.04 -19.92,22.1 -28.58,35.08l12.3 39.72 43.75 2.9c-1.13,16.39 -19.33,17.61 -30.74,31.22 1.39,17.42 9.57,25.83 9.52,43.92 -18.92,-1.2 -22.14,-14.85 -40.9,-21.59 -12.58,6.31 -25.63,23.16 -38.85,19.64 -1.2,-27.46 26.95,-40.9 -6.02,-51.83 -9.89,13.17 -18.16,26.82 -24.6,41.51 -2.41,5.49 -14.54,33.65 -20.94,42.23l2.86 12.06c2.57,7.12 4.33,10.91 8.09,15.25l41.68 1.89c-2.31,15.83 -20.55,20.63 -31.13,31.15 0.02,17.74 8.31,25.68 9.31,43.9 -16.71,0.82 -25.2,-14.51 -40.3,-20.77 -7.65,3.07 -16.34,9.84 -24.2,15.13 -1.56,2.5 -1.32,3.3 -3.16,5.44l-13.58 49.78 -39.78 1.95 9.13 3.25c9.87,1.54 18.11,-1.8 33.22,2.08 -0.98,8.94 -2.24,8.87 -9.91,13.97 -3.8,23.24 -16.69,82.97 -13.88,105.88 0.23,1.83 2.22,10.63 2.58,15.04l40.85 -1.71c8.71,-14.49 7.44,-32.65 18.73,-39.86 11.38,7.7 9.72,25.35 18.7,40.63l43.61 2.23c-2.15,13.17 -21.2,23.12 -32.84,31.89l10.66 43.18c-17.91,0.89 -23.96,-14.6 -40.13,-20.77 -16.04,5.78 -21.6,21.2 -41.5,20.69l10.69 -43.46c-11.64,-9.66 -18.38,-14.53 -31.12,-23.12l1.98 93.33c-19.96,5.37 -179.88,5.28 -196.03,-1.52l0 5.58 195.51 0.01 663.01 -0.27 0.1 -123.35 -0.08 -122.66 0.31 -123.24 -0.2 -122.63 0.23 -123.13 0.01 -122.94 -0.77 -110.58c-38.66,3.87 -92.82,19.67 -127.2,32.02 -19.97,7.17 -38.21,13.99 -56.27,21.9 -14.69,6.44 -41.66,21.68 -53.05,23.78z"/>
   <path class="fil1" d="M214.05 983.22l0.33 0.03 1362.09 0.22 4.44 -11.29c8.55,-31.32 14.05,-98.56 16.45,-107.46l-5.57 -2.57c-22.47,-7.2 13.53,1.94 -5.86,-1.65l-359.1 -0.21c-119.19,0 -250.66,-5.25 -368.31,0.39l-663.01 0.27c3.3,44.56 10.94,80.12 18.54,122.27z"/>
   <path class="fil2" d="M253.33 1105.94l1285.68 0.61c9.08,-24.04 36.85,-96.38 37.46,-123.08l-1362.09 -0.22c5.46,22.28 11.19,42.39 18.24,64.06 6.26,19.24 15.8,39.94 20.71,58.63z"/>
   <path class="fil1" d="M1473.45 1226.45c7.01,-4.56 12.38,-16.59 17.75,-25.57 6.79,-11.37 10.89,-18.77 16.59,-30.23 10.12,-20.35 18.76,-37.75 28.09,-59.45l-1280.17 -0.95c17.29,33.05 39.21,90.22 60.29,113.48 15.26,9.19 1050.91,-4.47 1157.45,2.72z"/>
   <path class="fil2" d="M413.5 1351.81l963.18 0.91 96.77 -122.77 -1153.23 -0.55c7.84,18.31 32.13,49.35 44.16,63.85 9.48,11.45 14.27,17.61 24.23,28.77 8.11,9.09 16.72,18.96 24.89,29.79z"/>
   <path class="fil3" d="M417.21 96.77c-9.47,9.64 -20.65,15.29 -29.77,24.98l10.98 44.03c-20.73,-0.64 -23.85,-15.26 -42.54,-21.14 -15.7,8.77 -23.79,23.72 -43.71,19.35 -17.09,13.79 -26.57,19.9 -42.04,35.8 6.07,25.59 27.63,3.51 47.72,15.61 -2.09,11.42 -19.8,22.18 -31.52,27.17 0.61,19 11.37,32.64 8.44,46 -12.14,2.14 -23.89,-13.66 -38.79,-20.72 -13.82,6.67 -26.69,22.09 -39.09,20.97 -2.83,-17.52 9.15,-25.23 7.7,-45.33 -14.96,10.4 -21.05,22.17 -33.38,35.12 -11.63,12.21 -21.87,26.25 -32,39.07 10.17,10.7 6.17,19.97 15.61,31.95 15.51,1.55 31.92,-1.64 42.45,4.16 -2.7,12.48 -23.82,21.47 -32.67,29.2l11.54 42.47c-14.31,4.03 -26.94,-12.93 -40.05,-19.22 -18.11,6.67 -22.04,20.45 -40.9,21.58 -0.03,-20.5 17.3,-38.59 3.44,-48.36 -8.96,9.25 -17.64,27.5 -23.9,39.93 -4.74,9.42 -6.91,11.27 -11.48,19.71 -4.5,8.33 -5.64,13.64 -9.59,22.91l6.18 22.85 45.01 1.08c-2.46,17.03 -20.33,21.68 -31.21,32.26l10.6 43.93c-20.91,-0.21 -24.66,-15.16 -41.81,-20.91 -11.52,5.36 -15.72,11.49 -28.09,16.42 -1,13.82 -8.63,33.54 -11.88,45.46 -4.38,16.06 -6.99,32.52 -10.27,49.05 -5.59,28.17 -12.19,70.51 -12.19,103.64l43.72 -2.91c9.76,-14.77 7.32,-31.26 18.71,-40.42 9.52,5.33 13.28,24.85 17.34,40.72l45.2 0.99c-2.76,18.11 -19.42,19.37 -31.56,32.5l10.83 43.58c-17.87,-0.13 -26.46,-14.51 -41.81,-20.86 -13.95,6.33 -24.42,22.11 -39.97,20.68l10.96 -42.35c-10.75,-9.46 -23.44,-17.26 -33.42,-25.57l0 93.21c16.15,6.8 176.07,6.89 196.03,1.52l-1.98 -93.33c0.88,-5.43 1.51,-7.46 2.35,-9.7 -0.36,-4.41 -2.35,-13.21 -2.58,-15.04 -2.81,-22.91 10.08,-82.64 13.88,-105.88l-22.61 16.81c1.13,13.8 8.09,26.84 8.96,33.46 3.65,27.86 -22.23,-3.89 -40.64,-10.82 -10.14,5.58 -25.03,21.4 -36.17,22 -5.35,-14.86 6.48,-30.18 7.83,-46.09 -10,-5.55 -27.83,-16.1 -32.36,-27.07 4.08,-2.88 1.16,-1.83 7.59,-3.39 4.84,-1.18 7,-1.12 12.03,-1.25 8.42,-0.23 14.21,0.49 23.03,-0.48 10.12,-12.62 7.78,-29.14 18.02,-40.55 15.62,5.89 8.72,30.07 21.88,38.08l39.78 -1.95 13.58 -49.78 -10.74 2.3c-6.08,-16.41 5.17,-22.59 7.26,-47.32 -17.21,-9.03 -30.31,-16.37 -31.72,-30.42l44.84 -2.27c6.39,-19.36 7.52,-35.19 17.72,-40.75 9.39,5.58 4.45,1.28 9.49,14.41 6.4,-8.58 18.53,-36.74 20.94,-42.23 6.44,-14.69 14.71,-28.34 24.6,-41.51 -1.74,-3.59 0.96,-0.31 -3.37,-4.77 -12.49,-12.84 -10.45,-1.5 -13.43,-16.3 10.48,-4.94 27.92,-2.09 42.94,-3.51 16.08,-21.15 2.97,-39.9 24.8,-39.4 8.66,-12.98 17.19,-23.04 28.58,-35.08 10.87,-11.5 16.94,-25.27 30.9,-34.77 -11.73,-8.19 -38.71,-22.99 -18.23,-27.61 4.66,-1.05 7.12,-0.97 11.92,-1.07 25.42,-0.52 23.39,4.58 31.22,-21.32 3.25,-10.73 3.47,-15.04 12.55,-20.03 7.42,5.92 5.23,6.04 9.96,17.07 17.31,-5.79 10.28,-6.43 21.74,-15.63 3.43,-2.76 9.02,-7.3 12.04,-9.67 2.63,-2.06 -0.44,-0.41 5.76,-4.07 7.72,-4.56 1.25,-0.87 10.27,-4.97l1.45 -0.31 8.42 -30.53c-8.32,-7.31 -11.35,-8.27 -18.96,-13.64 -9.43,-6.66 -11.84,-6.55 -13.42,-18.95l44.63 -2.11c7.75,-21.66 7.24,-35.5 18.01,-40.63 10.88,5.77 9.64,17.79 17.83,40.77l44.98 2.27c11.39,-2.1 38.36,-17.34 53.05,-23.78 18.06,-7.91 36.3,-14.73 56.27,-21.9 34.38,-12.35 88.54,-28.15 127.2,-32.02l-1.03 -12.15c-149,0 -208.66,2.22 -348.68,52.64 -19.59,7.06 -75.21,33.07 -91.2,44.13z"/>
   <path class="fil1" d="M1226.83 1472.77c8.92,-1.43 12.42,-5.33 20.01,-10.52 7.46,-5.11 11.35,-7.4 18.73,-12.5 13.65,-9.43 24.33,-18.38 36.9,-28.65 22.26,-18.18 50.56,-40.44 68.55,-63.15 -5.76,-4.81 1.22,-1.17 -7.29,-3.62l-52.61 -0.9c-107.74,0 -865.32,-3.29 -891.75,1.33 34.44,40.69 77.06,72.72 125.82,107.41 17.82,12.67 21.98,8.19 47.92,8.17 99.3,-0.08 610.56,-3.98 633.72,2.43z"/>
   <path class="fil2" d="M858.52 860.68c117.65,-5.64 249.12,-0.39 368.31,-0.39l359.1 0.21c19.39,3.59 -16.61,-5.55 5.86,1.65l5.57 2.57 0.96 -128.05 -739.7 0.66 -0.1 123.35z"/>
   <path class="fil1" d="M858.62 737.33l739.7 -0.66c-3.33,-6.86 -6.74,-53.05 -8.42,-63.32 -2.02,-12.35 -2.99,-16.98 -5.36,-28.99l-8.07 -29.71 -717.93 0.02 0.08 122.66z"/>
   <path class="fil2" d="M858.54 614.67l717.93 -0.02c-0.35,-14.89 -25.07,-97.55 -35.67,-116.91 -4.21,-7.69 -1.72,-3.79 -4.92,-6.52l-677.03 0.21 -0.31 123.24z"/>
   <path class="fil1" d="M858.85 491.43l677.03 -0.21c-5.75,-28.91 -46.88,-99.9 -62.43,-122.79l-614.8 0.37 0.2 122.63z"/>
   <path class="fil2" d="M858.65 368.8l614.8 -0.37c-7.13,-10.79 -13.63,-20.62 -21.2,-31.94 -8.29,-12.39 -15.04,-20.16 -24.28,-31.91 -16.73,-21.29 -32.05,-40.35 -51.29,-59.54l-517.8 0.63 -0.23 123.13z"/>
   <path class="fil1" d="M858.88 245.67l517.8 -0.63 -52.29 -49.16c-20.91,-19.44 -77.25,-63.63 -100.68,-73.59l-364.82 0.44 -0.01 122.94z"/>
   <path class="fil2" d="M880.96 1595.2c26.14,0 75.04,-10.33 98.66,-16.21 31.95,-7.95 58.02,-16.01 89.2,-26.31 29.79,-9.84 54.59,-21.27 81.01,-34.49 13.38,-6.69 24.56,-11.57 37.42,-18.77l36.46 -23.83 -652.91 -0.48c0.55,0.69 1.43,0.8 1.73,1.99l12.96 10.36c4.67,2.77 11.45,6.67 17.77,10.16l111.33 51.05c40.6,14.9 83.64,27.18 127.11,35.46 26.73,5.1 41.56,2.09 39.26,11.07z"/>
   <path class="fil4" d="M124.87 1229.72l195.35 -0.32 1153.23 0.55 0 -3.5c-106.54,-7.19 -1142.19,6.47 -1157.45,-2.72 -21.08,-23.26 -43,-80.43 -60.29,-113.48l1280.17 0.95 3.13 -4.65 -1285.68 -0.61c-32.94,0.04 -173.16,-5.42 -191.42,2.27 3.34,21.71 50.65,104.03 62.96,121.51z"/>
   <path class="fil2" d="M858.12 12.15l0.77 110.58 364.82 -0.44c-0.55,-0.54 -1.41,-2.15 -1.67,-1.61l-14.97 -10.4c-54.36,-29.01 -83.78,-46.5 -147.63,-67.75 -31.66,-10.54 -61.34,-19.76 -95.05,-26.7 -31.74,-6.53 -72.76,-13.41 -107.3,-15.83l1.03 12.15z"/>
   <path class="fil4" d="M374.61 1475.24l196.19 -0.13 652.91 0.48c4.41,1.39 3.12,2.01 3.12,-2.82 -23.16,-6.41 -534.42,-2.51 -633.72,-2.43 -25.94,0.02 -30.1,4.5 -47.92,-8.17 -48.76,-34.69 -91.38,-66.72 -125.82,-107.41 26.43,-4.62 784.01,-1.33 891.75,-1.33l52.61 0.9c8.51,2.45 1.53,-1.19 7.29,3.62l5.66 -5.23 -963.18 -0.91 -191.86 0.81c23.78,28.73 123.34,114.44 152.97,122.62z"/>
   <path class="fil5" d="M880.96 1595.2c2.3,-8.98 -12.53,-5.97 -39.26,-11.07 -43.47,-8.28 -86.51,-20.56 -127.11,-35.46l-111.33 -51.05c-6.32,-3.49 -13.1,-7.39 -17.77,-10.16l-12.96 -10.36c-0.3,-1.19 -1.18,-1.3 -1.73,-1.99l-196.19 0.13 10.63 9.52c71.23,47.29 190.05,87 272.12,102.39 25.08,4.7 42.37,5.47 69.11,8.94 12.17,1.58 26.27,2.09 40.98,2.23l33.59 0 1.24 0 78.68 -3.12z"/>
   <path class="fil5" d="M221.64 1352.62l191.86 -0.81c-8.17,-10.83 -16.78,-20.7 -24.89,-29.79 -9.96,-11.16 -14.75,-17.32 -24.23,-28.77 -12.03,-14.5 -36.32,-45.54 -44.16,-63.85l-195.35 0.32c13.05,25.79 74.79,103.98 96.77,122.9z"/>
   <path class="fil4" d="M21.85 983.39l192.2 -0.17c-7.6,-42.15 -15.24,-77.71 -18.54,-122.27l-195.51 -0.01c6.02,28.44 7.6,70.51 16.8,108.72l5.05 13.73z"/>
   <path class="fil5" d="M61.91 1108.21c18.26,-7.69 158.48,-2.23 191.42,-2.27 -4.91,-18.69 -14.45,-39.39 -20.71,-58.63 -7.05,-21.67 -12.78,-41.78 -18.24,-64.06l-0.33 -0.03 -192.2 0.17c0.5,22.32 30.76,112.38 40.06,124.82z"/>
   <path class="fil6" d="M1486.04 751.34c-63.92,22.07 -29.94,115.76 32.3,95.96 57.89,-18.41 34.92,-119.18 -32.3,-95.96z"/>
   <path class="fil1" d="M196.4 753.85c-0.84,2.24 -1.47,4.27 -2.35,9.7 12.74,8.59 19.48,13.46 31.12,23.12l-10.69 43.46c19.9,0.51 25.46,-14.91 41.5,-20.69 16.17,6.17 22.22,21.66 40.13,20.77l-10.66 -43.18c11.64,-8.77 30.69,-18.72 32.84,-31.89l-43.61 -2.23c-8.98,-15.28 -7.32,-32.93 -18.7,-40.63 -11.29,7.21 -10.02,25.37 -18.73,39.86l-40.85 1.71z"/>
   <path class="fil4" d="M207.7 632.93c7.67,-5.1 8.93,-5.03 9.91,-13.97 -15.11,-3.88 -23.35,-0.54 -33.22,-2.08l-9.13 -3.25c-13.16,-8.01 -6.26,-32.19 -21.88,-38.08 -10.24,11.41 -7.9,27.93 -18.02,40.55 -8.82,0.97 -14.61,0.25 -23.03,0.48 -5.03,0.13 -7.19,0.07 -12.03,1.25 -6.43,1.56 -3.51,0.51 -7.59,3.39 4.53,10.97 22.36,21.52 32.36,27.07 -1.35,15.91 -13.18,31.23 -7.83,46.09 11.14,-0.6 26.03,-16.42 36.17,-22 18.41,6.93 44.29,38.68 40.64,10.82 -0.87,-6.62 -7.83,-19.66 -8.96,-33.46l22.61 -16.81z"/>
   <path class="fil1" d="M336.49 616.83c-7.15,0.16 -14.35,-0.2 -21.3,-0.06 -2.08,0.04 -7.38,0.17 -9.26,0.46l-10.77 3.46c-0.31,9.84 23.55,23.36 31.82,28.95 -0.87,8.02 -3.16,14.45 -5.54,21.6 -1.1,3.29 -3.21,8.88 -3.61,11.89 -4.14,31.25 28.58,-11.7 41.17,-10.05 11.02,6.14 25.25,21 35.69,21.29 5.24,-14.79 -6.22,-30.18 -7.87,-46.13 10.32,-5.33 27.91,-15.7 32.31,-27.02 -11.41,-7.91 -29.26,-3.43 -42.65,-5.01 -9.86,-12.77 -8.4,-29.66 -17.72,-40.8 -13.52,4.71 -12.4,29 -22.27,41.42z"/>
   <path class="fil1" d="M741.14 616.26l-42.18 1.18c1.18,14.08 14.97,21.78 31.88,30.7 -1.55,15.96 -13.01,31.44 -7.91,46.18 9.67,-0.11 27.29,-16.7 36.37,-21.81 10.78,3.82 31.5,22.25 36.83,21.53 11.26,-1.53 -3.08,-29.63 -5.49,-41.6 14,-20.32 32.49,-16.33 31.95,-32.11 -3.08,-1.59 -0.06,-1.22 -8.04,-2.61 -30.94,-5.4 -33.61,10.86 -42.98,-21.96 -2.41,-8.43 -3.44,-13.57 -9.87,-19.69 -16.07,8.86 -6.94,23.27 -20.56,40.19z"/>
   <path class="fil1" d="M311.01 374.11c32.97,10.93 4.82,24.37 6.02,51.83 13.22,3.52 26.27,-13.33 38.85,-19.64 18.76,6.74 21.98,20.39 40.9,21.59 0.05,-18.09 -8.13,-26.5 -9.52,-43.92 11.41,-13.61 29.61,-14.83 30.74,-31.22l-43.75 -2.9 -12.3 -39.72c-21.83,-0.5 -8.72,18.25 -24.8,39.4 -15.02,1.42 -32.46,-1.43 -42.94,3.51 2.98,14.8 0.94,3.46 13.43,16.3 4.33,4.46 1.63,1.18 3.37,4.77z"/>
   <path class="fil1" d="M598.8 215.54c-1.82,8.45 21.69,21.35 30.9,31.08 -1.97,12.5 -12.39,30.69 -8.86,40.43l3.94 1.07c10.31,-0.45 -1.88,2.28 5.74,-0.87l28.16 -19.33c18.78,5.34 21.23,20.08 39.9,21.58 2.57,-16.69 -7.93,-29.35 -8.53,-46.14 6.01,-3.47 11.42,-7.65 16.58,-11.17 12.24,-8.34 12.83,-4.96 14.86,-16.79 -10.88,-6.18 -29.4,-2.85 -43.33,-4.07 -11.58,-20.94 -5.51,-32.98 -19.48,-40.53 -4.85,4.64 -1.56,-0.3 -5.62,7.76 -0.79,1.57 -2.8,7.54 -3.32,9.24 -10.95,35.97 -7,21.51 -37.98,24.18 -8.13,0.7 1.89,-0.83 -5.68,0.81 -9.68,2.09 -3.63,0.47 -7.28,2.75z"/>
   <path class="fil1" d="M743.35 349.72l-45.09 1.15c3.93,19.51 19.63,18.31 32.01,33.1 -1.28,17.46 -9.49,25.75 -9.53,43.94 18.96,-1.25 22.82,-14.9 40.96,-21.63 13.12,6.29 25.69,23.21 38.81,19.62l-10.61 -42.26c9.56,-8.55 30.59,-16.88 33.27,-30.28 -10.76,-5.09 -27.51,-2.22 -42.74,-3.75 -10.18,-12.95 -7.57,-30.61 -18.73,-40.24 -12.04,5.78 -15.05,28.94 -18.35,40.35z"/>
   <path class="fil1" d="M440.24 752.61l-43.26 1.64c0.13,18.64 13.14,14.66 30.13,32.42l-10.91 44.01c21.29,-1.21 25.54,-16.53 42.69,-21.26 12.02,6.88 25.76,23.28 38.98,19.37l-11.18 -42.35c9.94,-6.97 31.69,-17.29 33.27,-29.72 -10.89,-5.45 -26.89,-2.51 -42.34,-3.9 -11.92,-15.12 -5.9,-35.49 -22.95,-40.73l-14.43 40.52z"/>
   <path class="fil1" d="M541.36 350.1l-45 1.04c2.73,21.24 7.01,7.39 32.03,32.83l-10.93 42.75c17.71,1.62 27.51,-14.8 41.33,-20.53 23.42,10.28 21.71,22.58 39.79,20.77l-10.34 -42.74c26.56,-23.94 30.4,-14.17 32.93,-32.15l-45.05 -2.06c-1.86,-5.93 -4.06,-13.26 -6.32,-20.7 -3.78,-12.39 -2.75,-14.99 -11.01,-20.25 -9.75,5.91 -11.82,22.47 -17.43,41.04z"/>
   <path class="fil1" d="M743.05 87.72l-43.21 1.62c-0.05,12.47 3.3,12.32 13.06,18.84 6.7,4.47 10.71,7.05 16.99,13.57l-10.89 44.1c21.23,-1.17 24.12,-16.08 42.7,-21.26 12.57,6.99 25.59,23.32 39.02,19.33l-11.24 -42.35c6.07,-4.24 12.22,-8.78 18.31,-13 10.25,-7.1 13.84,-7.03 14.93,-16.72 -28.55,-14.36 -40.04,15.73 -51.07,-23.76 -3.68,-13.19 -2.05,-17.13 -14.05,-20.85l-14.55 40.48z"/>
   <path class="fil4" d="M0 755.79l0 6.36c9.98,8.31 22.67,16.11 33.42,25.57l-10.96 42.35c15.55,1.43 26.02,-14.35 39.97,-20.68 15.35,6.35 23.94,20.73 41.81,20.86l-10.83 -43.58c12.14,-13.13 28.8,-14.39 31.56,-32.5l-45.2 -0.99c-4.06,-15.87 -7.82,-35.39 -17.34,-40.72 -11.39,9.16 -8.95,25.65 -18.71,40.42l-43.72 2.91z"/>
   <path class="fil1" d="M538.86 616.67l-41.94 0.97c1.45,19.22 26.31,22.5 30.56,31.68 4.71,10.14 -13.57,30.6 -6.11,44.48 10.15,1.7 23,-15.31 37.42,-21.03 14.25,5.89 27.53,23.26 37.25,20.79 3.63,-6.51 1.05,-13.83 -1.29,-20.65 -3.65,-10.65 -5.19,-12.09 -4.84,-23.59 10.88,-9.83 29.4,-16.85 30.66,-30.68l-41.81 -1.99c-9.93,-12.84 -8.58,-32.1 -19.97,-41 -11.57,8.1 -10.32,27.8 -19.93,41.02z"/>
   <path class="fil1" d="M597.8 488.51c0.48,9.44 4.73,10.04 12.64,15.46 6.69,4.58 13.22,9.61 19.44,14.27l-11.47 42.27c13.68,3.67 30.95,-13.39 40.27,-19.16 18.69,5.75 21.15,20.28 41.39,21.6l-11.56 -45.87c13.43,-6.76 31.17,-14.85 33.2,-30.75l-42.07 -1.2c-9.63,-12.15 -8.84,-30.24 -17.99,-40.84 -14.32,5.15 -10.29,22.66 -17.34,34.64 -8.06,13.7 -27.35,1.68 -46.51,9.58z"/>
   <path class="fil1" d="M642.79 752.2c-16.51,2.6 -33.55,-1.26 -45.18,4.5 1.53,12.29 23.62,22.67 32.34,29.71l-11.42 42.22c17.81,4.78 23.73,-14.35 44.1,-19.53 9.79,8.85 22.33,20.9 37.22,21.88l-10.78 -43.95c21.76,-19.23 31.34,-16.27 31.37,-31.58l-43.75 -2.43c-3.11,-12.52 -7.84,-31.6 -14.36,-40.64 -13.78,4.48 -15.27,26.74 -19.54,39.82z"/>
   <path class="fil1" d="M395.96 486.39c1.67,12.44 4.14,11.89 13.95,18.45 6.68,4.48 12.5,8.52 18.23,11.83l-11.9 45.84c20.67,-1.61 25.74,-15.39 42.65,-21.19 12.44,7.08 25.44,23 39.42,19.57l-11.35 -42.22c8.6,-5.88 31.68,-19.09 33.01,-30.39 -31.01,-11.51 -40.48,13.65 -51.42,-23.51 -2.86,-9.71 -2.01,-13.61 -9.66,-20.14 -13.49,5.33 -8.76,22.49 -16.72,34.97 -7.25,11.37 -33.6,5.58 -46.21,6.79z"/>
   <path class="fil4" d="M118.63 379.46c13.86,9.77 -3.47,27.86 -3.44,48.36 18.86,-1.13 22.79,-14.91 40.9,-21.58 13.11,6.29 25.74,23.25 40.05,19.22l-11.54 -42.47c8.85,-7.73 29.97,-16.72 32.67,-29.2 -10.53,-5.8 -26.94,-2.61 -42.45,-4.16 -9.44,-11.98 -5.44,-21.25 -15.61,-31.95 -9.82,16.91 -35.08,43.2 -40.58,61.78z"/>
   <path class="fil1" d="M421.43 240.28l6.49 5.99c-2.73,16.47 -11.42,27.71 -9.04,43.3 18.19,-1.75 21.96,-16.28 40.01,-21.66 8.08,4.15 10.92,7.08 18.8,13.09l13.11 7.21c16.13,1.11 -0.28,-23.17 -3.03,-41.59 27.98,-30.01 60.81,-34.08 -11.33,-34.68l-5.5 -12.17c-10.07,-1.82 -5.84,-1.83 -15.28,6 -4.69,3.9 -7.46,6.7 -11.13,10.89 -9.09,10.42 -12.51,15.39 -23.1,23.62z"/>
   <path class="fil4" d="M224.59 243.49c1.45,20.1 -10.53,27.81 -7.7,45.33 12.4,1.12 25.27,-14.3 39.09,-20.97 14.9,7.06 26.65,22.86 38.79,20.72 2.93,-13.36 -7.83,-27 -8.44,-46 11.72,-4.99 29.43,-15.75 31.52,-27.17 -20.09,-12.1 -41.65,9.98 -47.72,-15.61 -10.48,3.63 -38.72,34.04 -45.54,43.7z"/>
   <path class="fil4" d="M520.11 152.67c10.59,-4.62 12.8,-7.99 23.22,-15.18 8.54,-5.89 16.44,-10.7 24.65,-15.97 10.77,-6.91 40.45,-25.76 53.6,-29.14l0.02 -2.53 -44.98 -2.27c-8.19,-22.98 -6.95,-35 -17.83,-40.77 -10.77,5.13 -10.26,18.97 -18.01,40.63l-44.63 2.11c1.58,12.4 3.99,12.29 13.42,18.95 7.61,5.37 10.64,6.33 18.96,13.64l-8.42 30.53z"/>
   <path class="fil6" d="M1390.25 764.07c-51.34,12.68 -29.81,81.62 16.78,69.07 42.02,-11.33 27.4,-79.98 -16.78,-69.07z"/>
   <path class="fil4" d="M34.34 557.64c12.37,-4.93 16.57,-11.06 28.09,-16.42 17.15,5.75 20.9,20.7 41.81,20.91l-10.6 -43.93c10.88,-10.58 28.75,-15.23 31.21,-32.26l-45.01 -1.08 -6.18 -22.85c-8.27,14.36 -14.12,30.67 -20.59,46.83 -3.3,8.22 -6.63,15.77 -9.76,24.59 -2.59,7.26 -4.96,17.61 -8.97,24.21z"/>
   <path class="fil1" d="M231.78 556.46c7.86,-5.29 16.55,-12.06 24.2,-15.13 15.1,6.26 23.59,21.59 40.3,20.77 -1,-18.22 -9.29,-26.16 -9.31,-43.9 10.58,-10.52 28.82,-15.32 31.13,-31.15l-41.68 -1.89c-3.76,-4.34 -5.52,-8.13 -8.09,-15.25 -8.6,2.49 -7.96,7.12 -12.23,17.28 -3.27,7.82 -5.63,13.77 -8.94,22.29 -5.99,15.43 -12.56,30.8 -15.38,46.98z"/>
   <path class="fil4" d="M228.62 561.9c1.84,-2.14 1.6,-2.94 3.16,-5.44 2.82,-16.18 9.39,-31.55 15.38,-46.98 3.31,-8.52 5.67,-14.47 8.94,-22.29 4.27,-10.16 3.63,-14.79 12.23,-17.28l-2.86 -12.06c-5.04,-13.13 -0.1,-8.83 -9.49,-14.41 -10.2,5.56 -11.33,21.39 -17.72,40.75l-44.84 2.27c1.41,14.05 14.51,21.39 31.72,30.42 -2.09,24.73 -13.34,30.91 -7.26,47.32l10.74 -2.3z"/>
   <path class="fil1" d="M520.11 152.67l-1.45 0.31c-0.53,13.43 -2.31,5.63 2.67,13.33 16,-3.81 22.82,-16.45 37.46,-21.74 15.97,6.17 22.15,21.68 40.15,20.76l-10.69 -43.22c12.8,-12.5 27.44,-15.2 33.33,-29.73 -13.15,3.38 -42.83,22.23 -53.6,29.14 -8.21,5.27 -16.11,10.08 -24.65,15.97 -10.42,7.19 -12.63,10.56 -23.22,15.18z"/>
   <path class="fil4" d="M312.17 163.99c19.92,4.37 28.01,-10.58 43.71,-19.35 18.69,5.88 21.81,20.5 42.54,21.14l-10.98 -44.03c9.12,-9.69 20.3,-15.34 29.77,-24.98 -16.69,4.68 -93.75,55.47 -105.04,67.22z"/>
   <path class="fil4" d="M421.43 240.28c10.59,-8.23 14.01,-13.2 23.1,-23.62 3.67,-4.19 6.44,-6.99 11.13,-10.89 9.44,-7.83 5.21,-7.82 15.28,-6l-2.09 -12.45c-4.73,-11.03 -2.54,-11.15 -9.96,-17.07 -9.08,4.99 -9.3,9.3 -12.55,20.03 -7.83,25.9 -5.8,20.8 -31.22,21.32 -4.8,0.1 -7.26,0.02 -11.92,1.07 -20.48,4.62 6.5,19.42 18.23,27.61z"/>
  </g>
 </g>
</svg>
