<?xml version="1.0" encoding="UTF-8"?>
<!DOCTYPE svg PUBLIC "-//W3C//DTD SVG 1.1//EN" "http://www.w3.org/Graphics/SVG/1.1/DTD/svg11.dtd">
<!-- Creator: CorelDRAW -->
<svg xmlns="http://www.w3.org/2000/svg" xml:space="preserve" width="125.931mm" height="125.733mm" version="1.1" style="shape-rendering:geometricPrecision; text-rendering:geometricPrecision; image-rendering:optimizeQuality; fill-rule:evenodd; clip-rule:evenodd"
viewBox="0 0 2775.7 2771.35"
 xmlns:xlink="http://www.w3.org/1999/xlink"
 xmlns:xodm="http://www.corel.com/coreldraw/odm/2003">
 <defs>
  <style type="text/css">
   <![CDATA[
    .fil0 {fill:black;fill-rule:nonzero}
   ]]>
  </style>
 </defs>
 <g id="Camada_x0020_1">
  <metadata id="CorelCorpID_0Corel-Layer"/>
  <path class="fil0" d="M1566.62 2578.52l0 19.49c0,26.01 -8.66,88.85 -80.17,88.85l-199.35 0c-73.68,0 -80.17,-62.85 -80.17,-88.85l0 -19.49 -17.35 0c-23.84,0 -47.67,-4.34 -69.34,-15.18l0 32.5c0,106.17 67.16,175.51 166.85,175.51l199.35 0c99.66,0 166.85,-71.51 166.85,-175.51l0 -30.32c-19.52,6.49 -41.18,10.83 -62.84,10.83l-23.84 0 0 2.17zm0 0z"/>
  <path class="fil0" d="M2598.04 1120.25l-156.02 0c-26.01,-101.86 -65.02,-199.37 -119.18,-290.37l110.52 -110.49c34.67,-34.69 51.99,-80.19 47.64,-130.01 -2.14,-47.67 -23.81,-95.34 -60.65,-130.01l-106.18 -106.17c-75.85,-75.85 -192.86,-80.19 -260.02,-10.83l-110.52 110.49c-91,-54.16 -188.52,-95.34 -290.35,-119.18l0 -158.16c0,-97.52 -86.68,-175.51 -192.86,-175.51l-149.5 0c-106.18,0 -192.86,77.99 -192.86,175.51l0 155.99c-101.83,26.01 -199.35,65.02 -290.35,119.18l-110.52 -110.49c-69.34,-69.34 -186.34,-62.85 -260.02,10.83l-106.17 106.18c-36.84,34.67 -56.33,82.34 -60.68,130.01 -2.15,49.84 13,97.49 47.67,130.01l110.52 110.49c-54.16,91.02 -95.34,188.51 -119.18,290.37l-153.85 0c-97.51,0 -175.51,86.66 -175.51,192.83l0 149.53c0,106.18 78,192.83 175.51,192.83l156.02 0c26.01,101.86 64.99,199.35 119.18,290.37l-110.52 110.49c-34.67,34.67 -49.84,80.17 -47.67,130.01 2.17,47.67 23.84,95.34 60.68,130.01l106.17 106.17c75.85,75.85 192.86,80.17 260.02,10.83l110.52 -110.49c58.5,34.67 119.18,62.82 182,86.65 -4.32,-17.32 -6.49,-34.67 -6.49,-36.84 -6.52,-21.66 -13,-45.5 -23.83,-69.34 -45.5,-19.49 -88.86,-43.33 -132.18,-71.51 -6.49,-4.32 -15.18,-6.49 -23.84,-6.49 -10.83,0 -21.66,4.34 -30.32,13l-134.36 134.33c-34.66,34.67 -97.51,30.35 -138.67,-10.83l-106.18 -106.17c-21.66,-21.66 -32.5,-47.67 -34.67,-73.65 -2.17,-26.01 6.49,-47.67 23.84,-65.02l134.33 -134.33c15.18,-15.17 17.35,-36.84 6.52,-54.19 -65.02,-99.66 -110.52,-210.18 -134.36,-325.01 -4.34,-19.52 -21.66,-34.67 -43.32,-34.67l-192.86 0c-49.84,0 -88.83,-47.67 -88.83,-106.18l0 -149.53c0,-58.5 38.98,-106.17 88.83,-106.17l190.69 0c19.49,0 39.01,-15.15 43.33,-34.67 26.01,-114.84 71.51,-225.35 134.35,-325.01 10.83,-17.35 8.66,-39.01 -6.51,-54.19l-134.33 -134.33c-15.18,-15.18 -23.84,-39.01 -23.84,-65.02 2.17,-25.98 13,-54.16 34.67,-73.65l106.18 -106.17c41.16,-41.18 104,-47.67 138.67,-10.83l134.35 134.33c15.15,15.18 36.84,17.35 54.16,6.52 99.69,-65.02 210.18,-110.52 325.04,-134.36 19.49,-4.34 34.67,-21.66 34.67,-43.33l0 -188.51c0,-49.84 47.67,-88.86 106.17,-88.86l149.51 0c58.5,0 106.17,39.01 106.17,88.86l0 190.69c0,19.49 15.17,38.98 34.67,43.33 114.84,26.01 225.35,71.51 325.02,134.33 17.35,10.86 39.01,8.69 54.18,-6.49l134.33 -134.35c34.67,-34.67 97.52,-30.32 138.7,10.83l106.18 106.18c21.66,21.69 32.49,47.67 34.67,73.68 2.15,26.01 -6.52,47.67 -23.84,65.02l-134.35 134.33c-15.18,15.18 -17.32,36.84 -6.49,54.18 64.99,99.66 110.49,210.18 134.33,325.01 4.34,19.49 21.66,34.67 43.36,34.67l190.66 0c49.84,0 88.86,47.67 88.86,106.17l0 149.5c0,58.5 -41.18,106.18 -88.86,106.18l-190.66 0c-19.52,0 -39.01,15.18 -43.36,34.69 -26.01,114.84 -71.51,225.33 -134.33,325.02 -10.83,17.32 -8.69,39.01 6.49,54.16l134.35 134.35c34.67,34.67 30.32,97.51 -10.83,138.67l-106.18 106.17c-41.18,41.18 -104.03,47.67 -138.7,10.83l-134.33 -134.33c-15.18,-15.18 -36.84,-17.35 -54.18,-6.51 -38.98,26.01 -80.17,47.67 -121.33,67.16 -17.35,34.69 -30.35,71.51 -34.67,108.34 60.65,-21.66 119.18,-49.82 175.51,-84.51l110.49 110.52c69.34,69.34 186.37,62.85 260.02,-10.83l106.18 -106.17c75.85,-75.85 80.17,-192.86 10.83,-260.02l-110.49 -110.52c54.16,-91 95.34,-188.51 119.18,-290.34l155.99 0c97.52,0 175.51,-86.68 175.51,-192.86l0 -149.5c-2.14,-106.17 -80.17,-192.83 -177.66,-192.83zm0 0z"/>
  <path class="fil0" d="M1921.98 1995.63c34.67,-34.67 67.17,-69.34 82.34,-86.66 119.18,-145.19 184.17,-327.21 184.17,-515.73 0,-446.36 -359.68,-808.22 -801.73,-808.22 -442.02,0 -801.73,361.85 -801.73,808.22 0,225.36 95.34,444.22 260.02,595.89 86.68,80.17 149.53,156.02 190.69,234.01 23.83,43.33 41.18,86.68 49.84,127.84 0,4.34 8.66,39.01 13,65.02 6.49,43.33 43.33,75.82 88.83,75.82l403.04 0c45.5,0 84.51,-34.67 88.85,-80.17 15.15,-138.67 114.84,-275.2 171.17,-342.36 13.01,-15.17 41.18,-45.5 71.51,-73.68zm-327.18 405.21c0,2.17 -2.17,4.32 -2.17,4.32l-403.04 0c-2.17,0 -2.17,-2.14 -2.17,-2.14 -4.32,-28.18 -13,-65.02 -13,-71.51 -13,-49.84 -32.5,-99.68 -58.5,-149.53 -47.67,-86.66 -114.84,-169 -208.01,-255.68 -151.68,-136.5 -236.19,-331.53 -236.19,-533.05 0,-398.69 320.7,-721.53 715.05,-721.53 394.37,0 715.07,322.84 715.07,721.53 0,166.85 -58.5,331.53 -164.68,459.37 -13,17.35 -47.67,52.02 -78.02,82.34 -30.32,32.52 -60.68,60.68 -73.65,78.02 -78.02,93.17 -173.37,234.01 -190.69,387.86zm0 0z"/>
  <path class="fil0" d="M1040.09 1386.76c0,2.83 -0.29,5.67 -0.85,8.45 -0.56,2.81 -1.38,5.51 -2.46,8.13 -1.09,2.62 -2.41,5.14 -4,7.49 -1.59,2.36 -3.39,4.56 -5.38,6.57 -2.01,2.01 -4.21,3.81 -6.57,5.38 -2.38,1.59 -4.87,2.94 -7.49,4.02 -2.65,1.09 -5.35,1.91 -8.13,2.46 -2.81,0.56 -5.61,0.82 -8.47,0.82 -2.83,0 -5.64,-0.26 -8.45,-0.82 -2.78,-0.56 -5.48,-1.38 -8.13,-2.46 -2.62,-1.08 -5.11,-2.44 -7.5,-4.02 -2.36,-1.56 -4.56,-3.36 -6.57,-5.38 -2.01,-2.01 -3.79,-4.21 -5.38,-6.57 -1.59,-2.36 -2.91,-4.87 -4,-7.49 -1.09,-2.62 -1.91,-5.32 -2.46,-8.13 -0.56,-2.78 -0.85,-5.61 -0.85,-8.45 0,-2.86 0.29,-5.67 0.85,-8.45 0.56,-2.81 1.38,-5.51 2.46,-8.13 1.08,-2.65 2.41,-5.14 4,-7.49 1.59,-2.38 3.36,-4.56 5.38,-6.57 2.01,-2.01 4.21,-3.81 6.57,-5.4 2.38,-1.56 4.87,-2.91 7.5,-4 2.65,-1.09 5.35,-1.91 8.13,-2.46 2.81,-0.56 5.62,-0.82 8.45,-0.82 2.86,0 5.67,0.26 8.47,0.82 2.78,0.56 5.48,1.38 8.13,2.46 2.62,1.09 5.11,2.44 7.49,4 2.36,1.59 4.56,3.39 6.57,5.4 1.99,2.01 3.79,4.19 5.38,6.57 1.59,2.36 2.91,4.85 4,7.49 1.08,2.62 1.91,5.32 2.46,8.13 0.56,2.78 0.85,5.59 0.85,8.45zm0 0z"/>
  <path class="fil0" d="M1473.45 2231.82l-173.34 0c-23.83,0 -43.35,19.52 -43.35,43.32 0,23.84 19.52,43.36 43.35,43.36l173.34 0c23.84,0 43.33,-19.52 43.33,-43.36 0,-23.81 -19.49,-43.32 -43.33,-43.32zm0 0z"/>
  <path class="fil0" d="M1473.45 953.4c0,-23.84 -19.49,-43.36 -43.33,-43.36 -184.2,0 -348.87,108.35 -429.04,286.03 -10.83,21.67 0,47.67 21.66,58.5 6.52,2.17 13.01,4.34 17.35,4.34 17.32,0 32.5,-8.69 38.98,-26.01 67.19,-145.19 201.52,-236.19 351.05,-236.19 23.84,0 43.33,-19.49 43.33,-43.33zm0 0z"/>
 </g>
</svg>
