<?xml version="1.0" encoding="UTF-8"?>
<!DOCTYPE svg PUBLIC "-//W3C//DTD SVG 1.1//EN" "http://www.w3.org/Graphics/SVG/1.1/DTD/svg11.dtd">
<!-- Creator: CorelDRAW -->
<svg xmlns="http://www.w3.org/2000/svg" xml:space="preserve" width="35" height="35" version="1.1" style="shape-rendering:geometricPrecision; text-rendering:geometricPrecision; image-rendering:optimizeQuality; fill-rule:evenodd; clip-rule:evenodd"
viewBox="0 0 40.91 28.8"
 xmlns:xlink="http://www.w3.org/1999/xlink"
 xmlns:xodm="http://www.corel.com/coreldraw/odm/2003">
 <defs>
  <style type="text/css">
   <![CDATA[
    .fil1 {fill:none}
    .fil0 {fill:black;fill-rule:nonzero}
   ]]>
  </style>
 </defs>
 <g id="Camada_x0020_1">
  <metadata id="CorelCorpID_0Corel-Layer"/>
  <path class="fil0" d="M40.91 10.17l0 8.25c-0.01,0.16 -0.02,0.5 -0.03,1.01 -0.03,0.94 -0.13,1.92 -0.32,2.96 -0.13,0.74 -0.33,1.43 -0.6,2.08 -0.71,1.73 -1.98,2.92 -3.81,3.55 -0.67,0.23 -1.36,0.4 -2.05,0.5 -1.3,0.18 -2.65,0.28 -4.05,0.28 -6.5,-0.01 -12.87,-0.01 -19.12,-0.02 -1.95,0 -3.89,-0.15 -5.7,-0.73 -0.68,-0.21 -1.29,-0.49 -1.84,-0.83 -1.05,-0.66 -1.84,-1.57 -2.37,-2.73 -0.84,-1.85 -0.96,-3.95 -1.02,-5.96l0 -8.83c0.01,-0.48 0.02,-0.97 0.03,-1.46 0.01,-1.1 0.12,-2.16 0.33,-3.17 0.1,-0.5 0.28,-1.01 0.53,-1.56 0.16,-0.33 0.4,-0.7 0.63,-0.97 0.78,-0.95 1.89,-1.52 3.06,-1.86 0.85,-0.24 1.76,-0.41 2.76,-0.51 1.15,-0.11 2.32,-0.17 3.52,-0.17 6.46,0 12.77,0 18.95,0 1.69,0 3.42,0.07 5.07,0.34 1.06,0.18 2.14,0.49 3.05,1.01 1.02,0.57 1.75,1.41 2.21,2.51 0.23,0.58 0.4,1.2 0.5,1.86 0.15,0.97 0.23,1.81 0.23,2.52 0.01,0.65 0.02,1.29 0.04,1.93zm-23.23 -1.59c-0.88,-0.46 -1.94,0.19 -1.94,1.18l0.02 8.92c0,0.99 1.06,1.63 1.94,1.17l8.55 -4.47c0.95,-0.5 0.95,-1.86 0,-2.36l-8.57 -4.44z"/>
  <rect class="fil1" width="40.91" height="28.8"/>
 </g>
</svg>
